<mxfile host="app.diagrams.net" agent="Mozilla/5.0 (Windows NT 10.0; Win64; x64) AppleWebKit/537.36 (KHTML, like Gecko) Chrome/129.0.0.0 Safari/537.36" scale="1" border="0" version="24.7.16">
  <diagram name="Page-1" id="b5b7bab2-c9e2-2cf4-8b2a-24fd1a2a6d21">
    <mxGraphModel dx="2074" dy="1132" grid="1" gridSize="10" guides="1" tooltips="1" connect="1" arrows="1" fold="1" page="1" pageScale="1" pageWidth="827" pageHeight="1169" background="none" math="0" shadow="0">
      <root>
        <mxCell id="0" />
        <mxCell id="1" parent="0" />
        <mxCell id="nvwnlEwFlLKaPRoTBn40-58" value="" style="shape=folder;fontStyle=1;spacingTop=10;tabWidth=40;tabHeight=14;tabPosition=left;html=1;whiteSpace=wrap;" parent="1" vertex="1">
          <mxGeometry x="160" y="100" width="760" height="660" as="geometry" />
        </mxCell>
        <mxCell id="nvwnlEwFlLKaPRoTBn40-2" value="&lt;p style=&quot;margin:0px;margin-top:4px;text-align:center;&quot;&gt;&lt;br&gt;&lt;b&gt;Controller&lt;/b&gt;&lt;/p&gt;" style="verticalAlign=top;align=left;overflow=fill;fontSize=12;fontFamily=Helvetica;html=1;whiteSpace=wrap;" parent="1" vertex="1">
          <mxGeometry x="320" y="160" width="200" height="60" as="geometry" />
        </mxCell>
        <mxCell id="nvwnlEwFlLKaPRoTBn40-3" value="&lt;p style=&quot;margin:0px;margin-top:4px;text-align:center;&quot;&gt;&lt;i&gt;&amp;lt;&amp;lt;Interface&amp;gt;&amp;gt;&lt;/i&gt;&lt;br&gt;&lt;b&gt;IRequestHandler&lt;/b&gt;&lt;/p&gt;" style="verticalAlign=top;align=left;overflow=fill;fontSize=12;fontFamily=Helvetica;html=1;whiteSpace=wrap;" parent="1" vertex="1">
          <mxGeometry x="320" y="280" width="200" height="60" as="geometry" />
        </mxCell>
        <mxCell id="nvwnlEwFlLKaPRoTBn40-4" value="Use" style="endArrow=open;endSize=12;dashed=1;html=1;rounded=0;exitX=0.5;exitY=1;exitDx=0;exitDy=0;entryX=0.5;entryY=0;entryDx=0;entryDy=0;" parent="1" source="nvwnlEwFlLKaPRoTBn40-2" target="nvwnlEwFlLKaPRoTBn40-3" edge="1">
          <mxGeometry width="160" relative="1" as="geometry">
            <mxPoint x="416" y="385" as="sourcePoint" />
            <mxPoint x="576" y="385" as="targetPoint" />
          </mxGeometry>
        </mxCell>
        <mxCell id="nvwnlEwFlLKaPRoTBn40-6" value="" style="endArrow=block;dashed=1;endFill=0;endSize=12;html=1;rounded=0;entryX=0.5;entryY=1;entryDx=0;entryDy=0;exitX=0.5;exitY=0;exitDx=0;exitDy=0;" parent="1" source="nvwnlEwFlLKaPRoTBn40-7" target="nvwnlEwFlLKaPRoTBn40-3" edge="1">
          <mxGeometry width="160" relative="1" as="geometry">
            <mxPoint x="356" y="105" as="sourcePoint" />
            <mxPoint x="576" y="385" as="targetPoint" />
          </mxGeometry>
        </mxCell>
        <mxCell id="nvwnlEwFlLKaPRoTBn40-7" value="&lt;p style=&quot;margin:0px;margin-top:4px;text-align:center;&quot;&gt;&lt;br&gt;&lt;b&gt;IQueryHandler&lt;/b&gt;&lt;/p&gt;" style="verticalAlign=top;align=left;overflow=fill;fontSize=12;fontFamily=Helvetica;html=1;whiteSpace=wrap;" parent="1" vertex="1">
          <mxGeometry x="200" y="410" width="200" height="60" as="geometry" />
        </mxCell>
        <mxCell id="nvwnlEwFlLKaPRoTBn40-8" value="&lt;p style=&quot;margin:0px;margin-top:4px;text-align:center;&quot;&gt;&lt;i&gt;&amp;lt;&amp;lt;Interface&amp;gt;&amp;gt;&lt;/i&gt;&lt;br&gt;&lt;b&gt;ISqlConnectionFactory&lt;/b&gt;&lt;/p&gt;" style="verticalAlign=top;align=left;overflow=fill;fontSize=12;fontFamily=Helvetica;html=1;whiteSpace=wrap;" parent="1" vertex="1">
          <mxGeometry x="200" y="520" width="200" height="60" as="geometry" />
        </mxCell>
        <mxCell id="nvwnlEwFlLKaPRoTBn40-9" value="Use" style="endArrow=open;endSize=12;dashed=1;html=1;rounded=0;exitX=0.5;exitY=1;exitDx=0;exitDy=0;entryX=0.5;entryY=0;entryDx=0;entryDy=0;" parent="1" source="nvwnlEwFlLKaPRoTBn40-7" target="nvwnlEwFlLKaPRoTBn40-8" edge="1">
          <mxGeometry width="160" relative="1" as="geometry">
            <mxPoint x="416" y="385" as="sourcePoint" />
            <mxPoint x="576" y="385" as="targetPoint" />
          </mxGeometry>
        </mxCell>
        <mxCell id="nvwnlEwFlLKaPRoTBn40-13" value="&lt;p style=&quot;margin:0px;margin-top:4px;text-align:center;&quot;&gt;&lt;i&gt;&amp;lt;&amp;lt;Interface&amp;gt;&amp;gt;&lt;/i&gt;&lt;br&gt;&lt;b&gt;IRepository&lt;/b&gt;&lt;/p&gt;" style="verticalAlign=top;align=left;overflow=fill;fontSize=12;fontFamily=Helvetica;html=1;whiteSpace=wrap;" parent="1" vertex="1">
          <mxGeometry x="440" y="520" width="200" height="60" as="geometry" />
        </mxCell>
        <mxCell id="nvwnlEwFlLKaPRoTBn40-14" value="Use" style="endArrow=open;endSize=12;dashed=1;html=1;rounded=0;entryX=0.5;entryY=0;entryDx=0;entryDy=0;" parent="1" source="Wy0FvdjGNj6q11W69VIN-1" target="nvwnlEwFlLKaPRoTBn40-13" edge="1">
          <mxGeometry width="160" relative="1" as="geometry">
            <mxPoint x="280" y="460" as="sourcePoint" />
            <mxPoint x="830" y="660" as="targetPoint" />
          </mxGeometry>
        </mxCell>
        <mxCell id="nvwnlEwFlLKaPRoTBn40-15" value="&lt;p style=&quot;margin:0px;margin-top:4px;text-align:center;&quot;&gt;&lt;br&gt;&lt;b style=&quot;background-color: initial;&quot;&gt;Repository&lt;/b&gt;&lt;/p&gt;" style="verticalAlign=top;align=left;overflow=fill;fontSize=12;fontFamily=Helvetica;html=1;whiteSpace=wrap;" parent="1" vertex="1">
          <mxGeometry x="440" y="640" width="200" height="60" as="geometry" />
        </mxCell>
        <mxCell id="nvwnlEwFlLKaPRoTBn40-16" value="" style="endArrow=block;dashed=1;endFill=0;endSize=12;html=1;rounded=0;exitX=0.5;exitY=0;exitDx=0;exitDy=0;entryX=0.5;entryY=1;entryDx=0;entryDy=0;" parent="1" source="nvwnlEwFlLKaPRoTBn40-15" target="nvwnlEwFlLKaPRoTBn40-13" edge="1">
          <mxGeometry width="160" relative="1" as="geometry">
            <mxPoint x="670" y="660" as="sourcePoint" />
            <mxPoint x="830" y="660" as="targetPoint" />
          </mxGeometry>
        </mxCell>
        <mxCell id="nvwnlEwFlLKaPRoTBn40-57" value="" style="shape=image;verticalLabelPosition=bottom;labelBackgroundColor=default;verticalAlign=top;aspect=fixed;imageAspect=0;image=https://blog.cleancoder.com/uncle-bob/images/2012-08-13-the-clean-architecture/CleanArchitecture.jpg;strokeColor=#e4e5da;imageBorder=none;imageBackground=none;" parent="1" vertex="1">
          <mxGeometry x="160" y="880" width="762.47" height="560" as="geometry" />
        </mxCell>
        <mxCell id="nvwnlEwFlLKaPRoTBn40-59" value="" style="shape=image;verticalLabelPosition=bottom;labelBackgroundColor=default;verticalAlign=top;aspect=fixed;imageAspect=0;image=data:image/png,iVBORw0KGgoAAAANSUhEUgAAAeUAAAMQCAYAAAAZ8H3hAAAAAXNSR0IArs4c6QAAAARnQU1BAACxjwv8YQUAAAAJcEhZcwAAFiUAABYlAUlSJPAAALZNSURBVHhe7P0NdFRVgi98/1MJ+YRAPjAZEiiDlk1rl4gfV+KYS4yZoK1RboXSniZXu9CQ6/gMt2nHu/otGulZzq115TqizFrTk86j1Tag3RQT6RXf6XfxZGIYHpthFjbQASZSDaGiIqAXBkg08pV371O7KvX9kVSSE/L/rbWpfU7tOudUhZV/7Y+qpFVVVQ319fVhslixYgUaGxvx/e9/Hxs2bEBRURHWrVuHw4cPqxaJ+ZNHfoiZ36nBl7vexoWe/1ft9coqnod5KzaI/bvxya9fUnuHPfzww/jud7+rnddgSMOSN6qRmZOJD3/6Ifo/7dfaZBdm4/LFy7h6+Sq+9b1vYcGfL8BvHv9NUN3n5Zdfxj/90z/ht7/9rdoTg9mOjrYadFpq4ehW+0KY7R1os/XCbmqCS2tvQ6/dhCaXaiAF7TfD3tEGm9EDZ4zjigepdmpT8jhhqXXA+xDv/TWdFtQGHMTa6oajwtfOila3AxXO4DY+Qdcud1hb4XZU+K8r+FhqG3aYtCfnPbZ4sHquSZ4roddK7fO9Fr2+c/tE2x8s9Hl4RX5s2HUGCL0vmbYRX8uQn5NoHPxahInzfyLKaxrpXIn+nCK/dsP7TWI/0WRlULeTzmgCOZWuXRvCR699pNVr3qjBf97wn/HA3z2Apc6lyJyVqe3/+Fcf+0M4sD5WFlSI35CeXvSobana4YbbHVDEL8rh36PdcNSaYO8ywtam7m+1qvu85C88t9sbuCaTSSv2LnVnCnW7e1UtMtcmJzzGGtSbxYb4hd9cDXTtjJkaUcU719ixok5cN4w2tAX+TMTrq4VbdTPs8vlNJLMJFaoajV7+TxBdTyZtKKcikDML56Kw8kmUWdYFlZK655GRM1O1iu9C7wV0PN+BA39/AKd/fxqe/58Hu17YhW/+z6BqMY5UUHk624N6EV2ip+L7xRlYAnsvria13yKCr9oBd4dd9IMEX/iJY0TqyaSS2RQnCrrb0ekRbx5WW2Gur4FR9Mo2jSyT459rjJjtzahGl+j5Bf8s/K+9eLtUo73r0DE9/Z8guo5MylAeGBgYdSD3u/fiwqEOYOgapuUXBxVDZjb6e/fh7N73VOv4rn5zFX3/3Kf1hI//f4/jP/74H1ovenyZYd8oesAiqNb4flFqISY6X3XBPd+Yuh2olV0eX480IjNG9rvShZ3aoeu9gR/EjPoa0VXs2hk29DpM9OpbxAFEb3KjaBv65iPYaM8VSze0DlyFKeTYCyAHKqKLc1718wq/5gqYwp5EtGMl0zaKkfy/EeeYmP8TRNePSRfKg4ODWL9+/aiHrC8e3YMTm1/E0de/F7Eca1mFgRP7VetJQM7dyeFPhM61+ULMgeARaStafT1hWQ8drpbjq55OtMsDdbsh8yfwF7S1NWQeMQneIWgb2vzn9/IeU/QgY09iigPsFP1MI4yibUucXlpS51LPsyI00aLsd2lJYoPotCtyftUhesGB5D53wKhDPbwZE+05qp9X2BsiObXQKn5Sw6K/Xsm0jWb4/03wVIb6v5Lo/4lor2mIUf+fILpOTLpQ3rFjx4TOIQd64IEHUlKSFzD36yva4i+TtsglLKZcTTCJnm/wvLIDItGG28pfvgHHC15I40KTb0hb3d/caxn5/KHsiZss4u1D8Jyqds4IC5TCubDJKbpxifSekjqXeJ7iSRltbd52/jCKsl+8rhZxHcOvaxsqWsS5xKVFY10t5/K7EHMaXL3pkEP0w0QwWXrRrK5few7VYl/E1yuZtjHI/zcmO7qC/m+I/zfaxSf6fyLaaxpi1P8niK4Pk271tR4sWLAA/+2//Tekp6erPaNz9epV/MM//AN6egKXZhF5xVpRHSqZtkSkPwxlIp1jKBNNHZN29TUREdH1hqFMRESkExy+JiIi0gn2lImIiHSCoUxERKQT2vD1XXfdpTaJiIhoovhD+eLFi1ohIiKi8TdjxozhUP78889x8uRJdRcRERGNpzlz5nBOmYiISC8YykRERDrBUCYiItIJzimPQHl5OVasWIHs7Gy1Z3Tkn6PcunUrPv30U7WHiIimGjmnzFAegerqaixZsgT/+q//qvaMzuLFi7Fr1y50dY30byESEdFkx1AeIV8ov/baa2rP6PzoRz9iKBMRTXHX7err/Px8VYvPkDENOWULcEPNMyj5s1WYftPd6h4aqYcd/4x//mdZHHhY7SMioviuu1B+8MEH8Z//839WW3EY0pF/2wOY973/ieJKKwoWfRfllp9gdtUK1SA5ubNzUXpXKeb8pznIn5cvDu99eQsXFOKm+pvC6iPyrefwSy3wwssvn/uWajRxvvXcL/FX9+7Fq+Ln8OCDdvwW38JzvxTX98vnRG0EHnZ4n18Cj/e9GXDo/Z2Azn+G8Y3yZ0pEUV1XoSwD+YknnlBb8WUVlmH6jYvwzZleHGtZheP/9/PoP/4RCu54GOnZeapVfDJ8Fzy5AH/6P/8Ut9luw7f+/Fu49yf3InNWpnZ/gakA8+vnh9VH7jNs/wsZeoHlVXy6/O+1X+wTF0rfQk1lGbB3twjjFCtbjqdjPS8RdH9+r6qP2MNwRHz9ou0fDb3+DIloIl03oSx/qSUTyFJ6Tj7SMnPwzf/5BN982YerX13AV33dQJpB7M9VreK72XIzyqvLcfjtw/jn/+uf8cGaD7Dnr/fgysAV/NnP/8wfwqH1UfWYw/wWdvEavLoXuPevfomJ7HB99slxVZM+xs+eEoHz1M9EbaQ+w2efiedVFT2pvlVTiTLRSDQbuW/diHJVDRJtf8rp52cYWyp+pkQUyXURyiMN5KxiI6bNKkH2bCMKFj2MWbfXIqfsVhhELzn/lkoYpsX/yFN2UTbmPTgPx98/jpMfDi+U6/+sH1cGr+B4+3Gc/fisti+0fs59Tqun0m/tr2IvyrA8Zrdy8tmzRybVn0cJqofx9PIyfLZnD66HD5Vdrz9DIopv0ofySAJZmiVCuPS7f4nc8tuQN/9ulC37/+BPHlkjwvkhZOQVoLTuL3DDkh+o1tHNvHGm6Fin4fRHp9WeYMfaj+E/jv5HxPrZHm9Ap9ZvsVvkl+hWBi+yCp3HjDAfOLxAS5WgMVQ1jxjtfm3u9+8hshFlagjWd7923ETOF2thWOduLagqayKk8sNVuFfc++7PTqgd4eKdS7v/75eLM8heqmojrj/afv/rEfQaSdH2JyPKz1BI5DWT8/re/d5hd39b3zWF/l+I9hxitNGuI+Bn6t8OOfbkmCMn0o9JHcr19fURAzktLU3VokvPysWlL/rw2XsOfPy3lqDS+9b/hSsDZ5GWnaNaR5eena7dXr18VbsNNX7D18OOfxIyiCt/UYpgwfa/UHOXf4HtWI6/9/+i9f4S/qvy7fgL7X7v/KbMBb+Hn0blHt/j1f33/tXwL93f2sU+cVxx6s9857FHm1n2hkXw+eSw7b34q3+ONmz7W7wtDl62/OmQEBLXLieTo85jJ3au39rF/r/Yrg1/731VtRPXH23/WAv7GSb9msn9Vdjtayufg/x5/VIE9t/Pxbuh+wMPEO9nHU2Z+D+1Fvifvse9Kt5GiTdoo3p/QjTFTNpQloH86KOPqq2Jc+ncJe228JZC7TbUeA9fDyvHjdrvUBFaa0VPb++reOpnvhnAj/GzdwOHg+djrlyf9W7gHOFvYQ8MHxG6w4+XvL25ssoaf28pUQ87/gr3fibCJWRO8rd2GerRh20/7twjwvFeBE0tf6sGlWWfYfvbUSJ5hOfSB9/PcCTPQy4kk6vflY9/BvkjLxM/54j7A3+OI/5Zi3P+z4Dr++3b2pu0WGsBiCjYpAxlvQSyJEN24OQAbn78ZuSVDq/Yzi7IRnpm+gQMX/t8ihPyt6MWWrIjGRJaxz8Rv0LLMFfruB+H7JjFX1wUPKz5VyNa7fwwqsTjPtvTGRQuXh+jc4/2WzykN6yoALn3zwOGTZ+WbzjeRVCG+I3iXLqgfoYjeh6+xw7z9r6j7C+bK96aBRrBz/qzPegMOvbHOCEn+ctvjBPmROQz6UJZDovFC+ShoSFVG3vXrl7DobcOafXK9ZX4Tz/+T7jvp/eh6pUqTJsxTdsvA/j/WfX/hNXHynzZ7f3sExG1w/zzob6i5km9vKtpX90relx/r+6PNIf4z38fNKwpVwmn2sfab/Hofvv2dnxWVgltall9DCrsDUeC4p1rIkX6GUaT6ucxXj9rIgo3qUJZflNXTk4O2tvbYxa3260eEVtmwRwU3PUo/uShvwwqxfc3wpA5XbWK70LfBfzup7/DkS1H8H8O/x98+i+fYq9jLy79h3doe1ypoArtVfnnQ0NK8Ai12q/mGf0LeXzhJ44RPKyZet+6Mc6Hjz7uxB41XOv9GNR2RBm5jivuuSZKlJ9hNCl9HuP4syaicJMqlC9cuID3338/bvn44/i/TAZOHMCFj/9fDF29ivTcWUHFMC0LX33Sjf84sFO1jk9+/El+JEr2hPs6+3DhxAWtFz2+1PyxCKr/6fuFqoWYHN1MYpD245/hKdk18vVII/oWRpYFseYnE/nykeH58LWibezgGu25Yok2NOudnx+5CD/DMX0eiRjpz5qIkjVpF3qN1kDvfny243+h9xf/PWLp+9VafP3pYdV6EhA9nF/KjyQhdDGQL8T+KmQV7MNw+D/SIuqhw9XeSUzvHOHHJ7TP/wYG+8MO78efRsI7BL0cfx/yMSnvMffi1Xirm3/r/XhUmWj7bpzeXFLnUs+z3Le6yifK/t9qSRn4TWNyHvavIF65AGpuNuT8EUX9GabgNUtUin/WRJScKRvKqXDfffelpCQvYO7XP0dciT3yaxtDfplr5MeVRM83eF75ryASbbitHK4OOJ720Rv/sX4Lu29IW93/55/8xcjnGWVP3PexrNBzat+XHY/341EJ9Q6TOpd4nuJJhX7OOup+8br+hbiO4df17zH3Xbka2nt3bEn+DEf9miUqxT9rIkoK/3TjCNx00034/ve/D4MhNe9prl27hnfeeQfHjh1Te4iIaKrh31MmIiLSiev27ykTERFNRgxlIiIinWAoExER6YR/TvnixYtaISIiovE3Y8aM4VAmIiKiiaWFcl9fn9okIiKiicI5ZSIiIp1gKBMREekEQ5mIiEgnGMpEREQ6wVAmIiLSCa6+jqG8vByffir/kN3k83d/93eqFt1f/uVfqhoREekBQzmGFStWICsrC2+99ZbaM3Eefnj479sG+u1vI//RPhnKJ06cwPHjx9WeYfPnz8eNN97IUCYi0hkOX8dhtVqxbNkytTVxvvvd70YsschA/uCDD8JKpKAmIqKJx1BOQHNzsy6CubOzE+vWrdOKrEsmkylioWRZ0ep2o8NuVttEROOPoZyAHTt26CaYQ61evTpiSRmzHR0irNwRCgMsVcywd4jXtMMuakQ0lTGUE9DS0qLbYN60aVPEkloeOC2hvXE7em1tWji3WlUzIiIaFS70iqGxsVFb7OVbZOXb3rp1K7Zs2aLtGy/RVlMHLtbavXu3qkVXX1+PBx54ADU1NYkt9JI95bYadFpq4ehW+wJYW91wVMvQjnz/5CGHrx2ocFpQO7mfCBFNYuwpxzA0NKRqXjKIZY9ZBnNDQ4PaO3ZsNpu/9Pf3+8s//dM/+Uuow4cPY9u2bWFF7pdkIMvV16niarKjC0bYVrO7TEQ0WgzlJMmAGxgY0IJ5zpw5au/YWLlypb/cf//9/iI/BuUroWT4vvvuu2HFF8qyhyw/DpU6LuzsEjfVdaKvGSB0LjpkvtRs7xD7W8Vj1HxqQNuIw+Fxjid77Nq+kHaR571Dz9mBqNPjY3peUdST9R9H21LinFvSHhfYhnMJRJMaQzkJBQUF2LBhAwwGg7YC+uTJk+qesSPfBPyX//JftCLr0qJFiyKWRMgha19JlZ5ej6opMkzabIDTouafLXDChrawwKiGw70RWDM8V21xelDtCAnmRI9nFPu0w6nj2UUf3tYWfix3G2y9dv85TaYWVLQ5xNWEGPPzylGGKOKe2xvwjgonLIkcj4gmBYZygnyBXFRUpAWyr+c5ESIt7JJlYlXApHXjRFhstMHYZQ+Ym+2Go0XERXVzWI+0yx48F93tqIXINNHU1ytM5ngeONc4xL2KaxNExotO/HA6WleLY3lEkDW51B7JhSaLUzw60DidN2jbJ5FzL0CFUbx+LQHnjXo8IposGMoJ0FMgS5E+AiXLxOqFW6aDuR41Mix2hoRDT6+ILiMqFqhtTRdCm0laz9tYIWJHSOZ4nk60DyeU0A13r7ipMKmAt6JOdIc9ne0BQaZ0u8UzCDAG5w0O0BgSOncP5MtU7Ygx9E5Ekw5DOQETGchPPPEE3nvvPa3IurR///6IZaIskF02T6+IiWFyCDporrNN9PzUfSOR6uMlKiXnNZtQoarJiH1u0XOuNcHeZYStTd0fOqxORJMOQzkBExXI8ju3I5VYbrvtNvz5n/95WJH7x4TZjuYIvc8uu2+eM7iMdHQ11cdL1ESdV0rk3K4mtV8Ov1c7Ii4GI6LJg6Ech1xpPVFD1k6nM2KJRYav7FGHlrEJZTX36XFijW/us7sdnSHzqdH55qEDmVHvHbuFlj1JHS8e75CvsaY+PLisdcELvVJ53mSPNZJzdztQKyfjjTWoZyoTTVoM5RgGBwexfv36CZ9DTlRVVVXckjK+1cRwwlIbOFfqW5DkCPlokxWtYb04OfQqPxY1zNoqjmnsgt3fHUzmePGoY8nV0oEHk8/FEbr2egzOK3uyQQcTxwo+uJLIucMfa/VOmIfMbxPRZMJQjkF+UchkCeSxFTBv6Z/flN/yZYIpKJAVV5P2saDgOVEHELbQSYSvpRfNAcd1VIt9piZvL9kn4eMlQB7LN9TrO5b2caYIHydK9XnlOQLPK48VaaWblMi5g46lPh4V6edBRJMGv2aTJoT88pA2W294ABMRTWHsKRMREekEQ5mIiEgnGMpEREQ6wTllIiIinWBPmYiISCcYykRERDrBUCYiItIJhjIREZFOMJSJiIh0gqFMRESkEwxlIiIinWAoExER6QS/PCSG8vJyfPrpp2prYiy6dQ62vtqA3Jxpak9kPce/xPN//T6O9Z1Ve4iIaLJhKMewYsUKZGVl4a233lJ7xt8Pn67ED39Qib0HP1N7IrvNdAMGv7mMLb85qPZE9tXgZby1/fe4cvWa2kNERHrBUI5BhnJjYyNaWlq0v608EXyh/Pov9qg9kf3pnTfintv/RG3F5viHf8HPf71PbRERkV4wlGPwhbKUimBOS5+G3PJbMdP8oKhnoP/oHpz/993q3sh8oZyI/Uc+x65/O6G2IvMF/Otvxw75keLfSSYiGjku9EqADOPm5mYsW7ZM7UlemiEDhXc9ivmrWlBS8wyKKq2Y99RrKKl7TrWITQ5fxyodvzseN5BHz4pWtxtud6uoTSVm2DvE8+6wixoR0dhhKCfA10seTTBnzTZiumkxBj8/iiOv1OPoa1Zc/PhDFC1eDkP2dNUquj37+2KWQ0dPq5ZjyFqHao8HHlSjblxS2fsmoHVc3wFMxDmJiLwYyjGkpaWpmjeYt27dqgWzb0g7GRl5s5CelYfB08fxjSiX+8+h/9g+2YVGRs4M1UrPRG+xuRqezjVo6QKqm8eh12g2oUJVx03Ec3bDUWuCqdYhakREY4ehHMPQ0JCqeW3ZskXrMcu55oaGBrU3vvTcWcgquRmZRWXILr0JRZXLUXjPY8i7cREysmcg/7YHkJ6Zq1rrlLkeNUYPOtu74dopUtlYg3qO5RIRpRRDOUnbtm3DwMCAFsxz5sxRe2Mrvs+KudaXkCtCeMaCKhgbX8XcJ15G0eIGZOQXo9yyFqUPr1at9clcXwOjpxMikwHXJjg9RtTETGU1D6vNQcvSAXuE5tbWwDaiqHFjbX+bDUZRr3ZEuE/O71pbvfv9c72h5xQl4jh05HYJnVPbGhZ2/RHm2/2PNdvREdC2I8ILEna8iNdPRNcrhnISCgoKsGHDBhgMBqxbtw4nT55U98Rm0Iatj6Fv8ws4tPbeoOLeaMXl82dgyNZzT9mK1TYjPJ3tavi2G+2dHhhtq6Ms+KqGw70RWGOCyeQtFidgawucq/UGo6PCCYtqYzLZIfrgGleT2BYP8oh6l13d3xSwnttoQ1vdTu9+37CydTVqOi3qWLKI41U7gsNPC8Y22Hrtwe3EXXHPGcQ79xx8/SbYu+Rzj/AGRF6v9pKotvYusast4deDiKYGhnKCfIFcVFSkBfLhw4fVPVOAXOAlokoOXft0t3fGXPDVZa+FI2ACtttRKwIrcC56ASpEl7SrJXCe1oWmqCEYqgv20LauJtQGnlQczzvSXu/v4VpXi56wRwRf0GOTOa+XtdWBanmckHlmV5NFG0WwrQ59YTxwrgloq402iNfD/wKO9vUgousBQzkBUzqQBWtdtcgUNXTt090O0VkOCJVAXdgZIUt6esUDjBUifrQtyM1qR+Rh7bg8veIIkQQPTTvEpQ+zQj6V4OAbCe9xhkcOAnlHEcQLEzyKEPr6iXbuXnFTYVJvGEb5ehDRdYGhnICpHMi+ANKGX33znFppg02bfG0eYYh4VzTbu0Svsk0dc5Tzp9752LagIWzZO/cbp9Xc3VraJiv1rwcRTT4M5QSkIpAzC+eisPJJlFnWBZWSuueRkTNTtdIfs70Z1XKo2D/PGVC0+dd4C75i0+Zxfceqdoz8CzrMdjTLXrDdFDKEPf7MppFHf8peDyKalBjKcciV1qMN5H73Xlw41AEMXcO0/OKgYsjMRn/vPpzd+55qrSdm1NfIic6dkb8yUw1hB87ZelXAFJYk8Y7lQK3s1qb0o1ZmBOVjzCH3ZITPVQ+L8zwTNSavBxHpHUM5hsHBQaxfv37UQ9YXj+7Bic0v4ujr34tYjrWswsCJ/ap1sKvXvJ+Vlt9ZnYoi+Y4Zl/bZZJkv0eKlGw75TSJhwSGHYIM/GmRtlcPdgYuzrGgNGZ4Nm7vudsM77ZpAKqm2gYHrPafa0KjrlT3QoHMHXEuC53RtEj1ZOaQf0pMNf56JSuD1IKLrHv8gRQzp6em4evWq2poYebmZWNlwJ9INw98uNhoykN/6x99j4KtLak90co7WUS2HrmP9cQn50SAHqrvs2seH/H+QwtKLZvWZX6/Q46jHqS1NhNXM4iLg9q3WUufQrkt+dCi0rfy4U8A5PU4LWiraIrQNP7cc9h5+v5DoOeWispDgj/Acol1v8P4EXw8iuq4xlImIiHSCw9dEREQ6wVAmIiLSCYYyERGRTjCUiYiIdIKhTEREpBMMZSIiIp1gKBMREekEQ5mIiEgnGMpEREQ6wVAmIiLSCYYyERGRTjCUiYiIdIJ/kELnFt06B1tfbUBuzjS1J7Ke41/i+b9+H8f6zqo9REQ02TCUde6HT3v/DvLeg5+pPZHdZroBg99cxpbfHFR7Ivtq8DLe2v57XLl6Te0hIiK9YCjrnC+UX//FHrUnsj+980bcc/ufqK3YHP/wL/j5r/epLSIi0guG8igVFBTg3Llzaiu2tPRpyC2/FTPND4p6BvqP7sH5f9+t7o3MF8qJ2H/kc+z6txNqKzJfwL/+duyQJyKi8ceFXqOwbNkyfPe731VbsaUZMlB416OYv6oFJTXPoKjSinlPvYaSuudUi9jk8HWs0vG743EDeUTMdnS43XBHKB12s2qUCDPsHeJxHXZR0wezvUM8j1ZY1XYw/V0vEV3/GMojJAO5ublZbcWXNduI6abFGPz8KI68Uo+jr1lx8eMPUbR4OQzZ01Wr6Pbs74tZDh09rVqOBQ+cFhNMpsBiR6+tTQvn1sipRkRESWIoj0CygSxl5M1CelYeBk8fxzeiXO4/h/5j+2QXGhk5M1SrycSFJhHO9i6g2tGB+J3mbjhqRZjXOkRtMphs10tE1wOGcpJGEsjpubOQVXIzMovKkF16E4oql6PwnseQd+MiZGTPQP5tDyA9M1e1nlxcTXZ0wQjbanaXiYhGi6GchJEEslR8nxVzrS8hV4TwjAVVMDa+irlPvIyixQ3IyC9GuWUtSh9erVpPNi7sFL1lVNf552atrWou1trqnX9W87L+/SH1YBHmckPntUMeF+18/vsCH5vEWHvka1TXF+2YiV5rSLtI8/Nxrz3OuYho8mEoJ6ixsTFiIKelpaladAZt2PoY+ja/gENr7w0q7o1WXD5/BobsydlTlnp6PaoWwGhDW91O7/xzhCFgl0xy0Sasg22uR40R6GpRj5HB02YDnBY1l22BE+LYoQEVdj5veDoqnLBoj5NF9upHQQvBNth67ep4IcdM5lo3Amt8x7B3iV1tAXPzCVx7ouciokmFoZwAGcgrVqxQWxRZBUxB3bQu2Jtcqh6BaxOcIsur64JDxFxfA6PHiU3aQ0U4bbTB2GVHrcMX691wtIh4qm4OmccOPd8CVASGu8aFpljXFId1tbgWcW2WoGP4jpnMtXrgXBNwXWGvRbxrT+ZcRDSZMJTjYCAnqhfu4QQRudOLHlWNrBvtnVoSBXwkyYrVNiM8ne3eMPL1mneGBGlPr4g1IyoWqG0p7Hw9kB34xBahJcKKuurQoAyQ1LV2oj3oIN1w94qbCpOIWynOtSdzLiKaVBjKMcg55HiBPDQ0pGpT1wLZrYsbwuG62ztFiFTD30G01omtLrT4e39e1Y6AeVNZ2kQvUd0XnXf1tL3LCFubetxohnbNJlSoaiwju9ZQiV17as5FRHrCUI5CflNXXl4etmzZErN0d0fsN4XJLJyLwsonUWZZF1RK6p5HRs5M1WoSMtvRLHqQ/t5tMrod8I64ehcoWbWu6E6E9P/QZffNqwaXREaiXU2qvcUJT7VjzBdDjeZaQ8W79lSei4j0gaEchfzqzK1bt8Ytf/jDH9Qjout378WFQx2iW30N0/KLg4ohMxv9vftwdu97qvVkouY2PU6sCendJsq74KsG9VYZ7h44vZPJXt3t8I5wj6KH6yPeANTKD1XLc40kleNdSyqvNVTotY/luYhoQjGUx8HFo3twYvOLOPr69yKWYy2rMHBiv2od7Oo17/C4/M7qVBTJd8xR8a1EhhOW0XzBhrbIyYiaZrnAK3yu1bt4yRHyrWFWtMbt8Yo2IUO+Wk887ByJGr6W4KFk33lGc62h4l17Ks9FRHrCP0ihc3m5mVjZcCfSDfE/epUIGchv/ePvMfDVJbUnDvXRm/C5SvnVm7WI1EGWn6/VPs4TEtbR9svvoG6zGbXh2IhDr/Lzxw4RSgEC20Y+rggotwNBj5IrpwPa+M4bRrVbkOBxg657RNcauj/+tWvinIuIJh+GMhERkU5w+JqIiEgnGMpEREQ6wVAmIiLSCYYyERGRTjCUiYiIdIKhTEREpBMMZSIiIp1gKBMREekEQ5mIiEgnGMpEREQ6wVAmIiLSCYYyERGRTjCUdaK8vFzViIhoqmIo68SSJUuwcuVKtUVERFMRQ1lHrFYrli1bpraIiGiqSTcajT89f/682qSJcvvtt2vl7rvvxsDAAHp6etQ9I5OWPg1588yYXbUC+d+ugsFgwDdfJv53s7NnZuM7jd+B+ftm3PnsnZhfNx9FtxThqy+/wtdnv1atvJ7e9bR2e/rAae124Q8W4qE3HsLBXxzUtomIKDHsKevMjh070NzcPKoec5ohA4V3PYr5q1pQUvMMiiqtmPfUayipe061iK3iwQo8vvlxLHxqIW4w34DB84PIL8vHLY/dgsKbC1UroHRRqRbAgXVZZF0KrMdltqPD7YY7Qumwm1WjRJhh7xCP67CLmj6Y7R3iebTCqraD6e96iWjiMJR1pqWlZdTBnDXbiOmmxRj8/CiOvFKPo69ZcfHjD1G0eDkM2dNVq8gKTYW4f+39mJYzDR/97CO8+8i7eH/V+3jnkXfQ/mw7zvzhjGoJlCwswR22O7R66R2lWl0WWZdkXbZJnAdOiwkmU2Cxo9fWpoVza+RUIyK6bjCUdSItLU3VvMG8detWLZgbGxvV3sRl5M1CelYeBk8fxzeiXO4/h/5j+2QXGhk5M1SryCp/VAlDugEH3jyAQ786hGtXr6l7gLPus7jw2QW1BW14+u0lb2v1A84DWl0WWZdkffRD2C40iXC2dwHVjg7E7zR3w1ErwrzWIWqTwWS7XiIaSwxlnRgaGlI1ry1btmg95hUrVqChoUHtjS89dxaySm5GZlEZsktvQlHlchTe8xjyblyEjOwZyL/tAaRn5qrWwXIKc1B8a7E2Z3zEdUTt1QdXkx1dMMK2mt1lIrp+MZR1bNu2bdqiLxnMc+bMUXtjK77PirnWl5ArQnjGgioYG1/F3CdeRtHiBmTkF6PcshalD69WrYMVzC/Qbs/98VxQD1kfXNgpesuorvPPzVpb1VystdU7/6zmZf37Q+rBIszlhs5rhzwu2vn89wU+Nomx9sjXqK4v2jETvdaQdpHm5+Nee5xzRRb7+kfzehFdzxjKOlVQUIANGzZoq6bXrVuHkydPqntiM2jD1sfQt/kFHFp7b1Bxb7Ti8vkzMGRH7ilnzczSbq9cuqLdxiMXcvlWXsv5Y1mXxTfPLOu+hWCp0NPrUbUARhva6nZ6558jDAG7ZJKLNmEdbHM9aoxAV4t6jAyeNhvgtKi5bAucEMcODYuw83nDx1HhhEV7nCyyVz8KWgi2wdZrV8cLOWYy17oRWOM7hr1L7GoLmJtP4NoTPVegmNc/Bq8X0XWEoaxDvkAuKirSAvnw4cPqnrHlmy+eOW+mdhvP6YOn/fPHpw6c0uqyyLok67JNalXAFNRN64K9yaXqEbg2wSmyvLouOETM9TUwepzYpD1UBMVGG4xddtQ6fLHeDUeLiIrq5pB57NDzLUBFYLhrXGiKdU1xWFeLaxHXZgk6hu+YyVyrB841AdcV9lrEu/ZkzjUs9vWn/vUiup4wlHVmogJZuvjpRVz5+ooWymX3lqm90Z3af8q/kMtXl0XWpcB66vTCPfzbXOROL2J/orsb7Z1aEgV8JMmK1TYjPJ3t3mDw9Zp3hgRDT6+INSMqFqhtKex8PZAd+MQWoSXCirrq0NAKkNS1dqI96CDdcPeKmwqTiFspzrUncy6/ONef8teL6PrCUNaZiQpk6VL/JX/IVr5YGfYZY/mFItNLwz9SFbrKWtZ9q7JTaYHsYsUN4XDd7Z0iRKrh7yBa68RWF1r8vT+vakfIPGeb6PGp+6Lzrp62dxlha1OPG838qNmEClWNZWTXGiqxa0/qXHGvP8WvF9F1hqGsM6kI5MzCuSisfBJllnVBpaTueWTkxB6alquuT+w6gbzZeVj6+lIs27wMS99Yivo367F8+/LEvwwk1cx2NIsemL93m4xuB7wjrt4FSlatK7cToQOmXXbfHGdwSWRk1dWk2luc8FQ7ElwMNXKjudZQ8a49lefyiXROImIo64pcaT3aQO5378WFQx3A0DVMyy8OKobMbPT37sPZve+p1uHkqutdL+3CBz/5AJ/s+QQZmRnal4FkTc+CZ5cHXxz+QrUcT2pu0+PEmpDebaK8C75qUG+V4e6B0zuZ7NXdDu8Idwp6bOINQK38ULU810hSOd61pPJaQ4Ve+0jOlexjAs5JRAxl3RgcHMT69etHPWR98egenNj8Io6+/r2I5VjLKgyc2K9aR9e3uw+dP+7E9ie3Qw5Fy9vdf7Mb5/vG+XvSfSt54YRlNF+woS1yMqKmWS7wCp9r9S5ecoR8a5gVrXF7vKJNyPCr1hMPO0eihq8leFjXd57RXGuoeNeeyLm8q6mHe9fxrj/6OYmIoawb8otCxnsOWX8C5hn985c16JRfvTnqb7zyLvgyGo2RFyG5mrSPDAXPnzqAqAuWAsgACrhm7eM+YddbDUdAG61EC1F5LfJjQkHHFdfiW3A1mmsNFe/aR3KueNcf5ZxEBKRVVVUN9fUl/teDiIiIaGywp0xERKQTDGUiIiKdYCgTERHpBEOZiIhIJxjKREREOsFQJiIi0gmGMhERkU4wlImIiHSCoUxERKQTDGUiIiKdYCgTERHpBEOZiIhIJxjKOlFeXq5qREQ0VTGUdWLJkiVYuXKl2iIioqmIoawjVqsVy5YtU1tERDTVpBuNxp+eP39ebdJEuf3227Vy9913Y2BgAD09PeqekUlLn4a8eWbMrlqB/G9XwWAw4JsvE/+72dkzs/Gdxu/A/H0z7nz2Tsyvm4+iW4rw1Zdf4euzX6tWXk/velq7PX3gtHa78AcL8dAbD+HgLw5q20RElBj2lHVmx44daG5uHlWPOc2QgcK7HsX8VS0oqXkGRZVWzHvqNZTUPadaxFbxYAUe3/w4Fj61EDeYb8Dg+UHkl+XjlsduQeHNhaoVULqoVAvgwLossi4F1uMy29HhdsMdoXTYzapRIsywd4jHddhFTR/M9g7xPFphVdvB9He9SbO2hv3MvCXacyaiaBjKOtPS0jLqYM6abcR002IMfn4UR16px9HXrLj48YcoWrwchuzpqlVkhaZC3L/2fkzLmYaPfvYR3n3kXby/6n2888g7aH+2HWf+cEa1BEoWluAO2x1avfSOUq0ui6xLsi7bJM4Dp8UEkymw2NFra9N+ybfyN7yORfrZNcGl7iWixDCUdSItLU3VvMG8detWLZgbGxvV3sRl5M1CelYeBk8fxzeiXO4/h/5j+2QXGhk5M1SryCp/VAlDugEH3jyAQ786hGtXr6l7gLPus7jw2QW1BW14+u0lb2v1A84DWl0WWZdkffRD2C40iV/w9i6g2tGB+J3mbjhqRSDUOkRtMphs10tEY4mhrBNDQ0Oq5rVlyxatx7xixQo0NDSovfGl585CVsnNyCwqQ3bpTSiqXI7Cex5D3o2LkJE9A/m3PYD0zFzVOlhOYQ6Kby3W5oyPuI6ovfrgarKjC0bYVrO7TETXL4ayjm3btk1b9CWDec6cOWpvbMX3WTHX+hJyRQjPWFAFY+OrmPvEyyha3ICM/GKUW9ai9OHVqnWwgvkF2u25P54L6iHrgws7RW8Z1XX+eUprq9s7F+ub01Tzsv79IfVgEeZyQ+e1Qx4X7Xz++wIfm8RYe+RrVNcX7ZiJXmtIu0jz83GvPc65EhHttYu23yfs2iLMU8c6RtznFib265788YiSw1DWqYKCAmzYsEFbNb1u3TqcPHlS3RObQRu2Poa+zS/g0Np7g4p7oxWXz5+BITtyTzlrZpZ2e+XSFe02HrmQy7fyWs4fy7osvnlmWfctBEuFnl6PqgUw2tBWt9M7hxlhCNglk1y0Cetgm+tRYwS6WtRjZPC02QCnRc2HWuCEOHboL92w83l/iTsqnLBoj5NF9upHQQvBNth67ep4IcdM5lo3Amt8x7B3iV1tAXPzCVx7oudKRLSfVcT9VrSK0Au+NjmNUQ2HO8I0Rip+LjFf9zH4ORNFwFDWIV8gFxUVaYF8+PBhdc/Y8s0Xz5w3U7uN5/TB0/7541MHTml1WWRdknXZJrUqYAr6hdwFe1OM5USuTXCKLK+uCw4Rc30NjB4nNmkPFb9wN9pg7LKj1uGLim44WsSv3OrmkAAIPd8CVASGu8aFpljXFId1tbgWcW2WoGP4jpnMtXrgXBNwXWGvRbxrT+ZcRtja4vUio/2swvdbWx2olq9ByBstV5N4U+CJNI0x+p9L7Nc99T9nokgYyjozUYEsXfz0Iq58fUUL5bJ7y9Te6E7tP+VfyOWryyLrUmA9dXrhDvwt7elF7E90d6O9U0uigGFPK1bbjPB0tnt/wfp6zTtDfsH29IpYM6JigdqWws7XA9mBT2wRWiKsqKsO/eUfIKlr7UR70EG64e4VNxUmEbdSnGtP5lyRVl+HBla0n1XYfu9r4P/5BIn08xRG/XOJ87onfTyikWEo68xEBbJ0qf+SP2QrX6wM+4yx/EKR6aXhH6kKXWUt675V2am0QHZV4oZwuO72ThEZ1fB3EK11YqsLLf7en1e1I6Sn1yZ6Tuq+6Lyrp+1dAT3FkQzt+phNqFDVWEZ2raESu/bUnCt1urV3FvEk+XOJ+7qn+OdMFAVDWWdSEciZhXNRWPkkyizrgkpJ3fPIyIk9NC1XXZ/YdQJ5s/Ow9PWlWLZ5GZa+sRT1b9Zj+fbliX8ZSKqZ7WiO2nuKo9sB74irWlykdYl2InTgscse0tNTJZERSleTam9xwlPtCFuwlGqjudZQ8a49ledKBbMpkbctXqn+uYz3z5mmHoayjsiV1qMN5H73Xlw41AEMXcO0/OKgYsjMRn/vPpzd+55qHU6uut710i588JMP8MmeT5CRmaF9GUjW9Cx4dnnwxeEvVMvxpOY2PU6sCendJsq74KsG9VYZ7h44vZPJXt3t8I6IpqDnI94A1MoPVctzjeS3dbxrSeW1hgq99rE8V0zelfbGmvoIgWdGvXdMPexNVUzxfi7JPtfR/pyJomAo68Tg4CDWr18/6iHri0f34MTmF3H09e9FLMdaVmHgxH7VOrq+3X3o/HEntj+5HXIoWt7u/pvdON83zt+T7lsRi/BFP0nRFjkZUdMsF3iFz7V6Fy85Qr41zIrWuD0h0SZkGFPriYedI1HD1xI8POo7z2iuNVS8a0/luZLj2iR6onJFdch5rK3i/4IxzuI+Tbzn5l1NPdzTjfe6xzseUWowlHVCflHIeM8h60/AfJ1//rIGnXIB0WgCWeNdIGQ0GiMv5nE1aR8ZCp4/dQBRF/4EkL/IA65Z+9hM2PXKj/IEHluUaMEmr0V+3CbouOJafAuuRnOtoeJde8LnivCzEyUkxxIne6K+j18FHM/7kaQEv74zoZ9LgHive7LHIxqBtKqqqqG+vsT/ehARERGNDfaUiYiIdIKhTEREpBMMZSIiIp1gKBMREekEQ5mIiEgnGMpEREQ6wVAmIiLSCYYyERGRTjCUiYiIdIKhTEREpBMMZSIiIp1gKBMREekEQ1knysvLVY2IiKYqhrJOLFmyBCtXrlRbREQ0FTGUdcRqtWLZsmVqi4iIppp0o9H40/Pnz6tNmii33367Vu6++24MDAygp6dH3TMyaenTkDfPjNlVK5D/7SoYDAZ882Xifzc7e2Y2vtP4HZi/b8adz96J+XXzUXRLEb768it8ffZr1crr6V1Pa7enD5zWbhf+YCEeeuMhHPzFQW2biIgSw56yzuzYsQPNzc2j6jGnGTJQeNejmL+qBSU1z6Co0op5T72GkrrnVIvYKh6swOObH8fCpxbiBvMNGDw/iPyyfNzy2C0ovLlQtQJKF5VqARxYl0XWpcB6XGY7OtxutFrVtqT2uSOUDrtZNUqEGfYO8bgOu6jpg9neIZ5HKwKf7jD9XW/SrK1hPzOtTJrndB38DGhSYijrTEtLy6iDOWu2EdNNizH4+VEceaUeR1+z4uLHH6Jo8XIYsqerVpEVmgpx/9r7MS1nGj762Ud495F38f6q9/HOI++g/dl2nPnDGdUSKFlYgjtsd2j10jtKtbossi7JumwzOh44LSaYTIHFjl5bm/ZLPijESWdCf3YWOGFDW9Q3I3pnRSv/z9EYYyjrRFpamqp5g3nr1q1aMDc2Nqq9icvIm4X0rDwMnj6Ob0S53H8O/cf2yS40MnJmqFaRVf6oEoZ0Aw68eQCHfnUI165eU/cAZ91nceGzC2oL2vD020ve1uoHnAe0uiyyLsn62Axhu9Akfsnbu4BqRwfid5q74agVoVDrELXJYLJdb6LE81rjFFFdjTrdB1uEn4HZhApVJRorDGWdGBoaUjWvLVu2aD3mFStWoKGhQe2NLz13FrJKbkZmURmyS29CUeVyFN7zGPJuXISM7BnIv+0BpGfmqtbBcgpzUHxrsTZnfMR1RO3VL1eTHV0wwraaXZfJpsLEQWGiSBjKOrZt2zZt0ZcM5jlz5qi9sRXfZ8Vc60vIFSE8Y0EVjI2vYu4TL6NocQMy8otRblmL0odXq9bBCuYXaLfn/nguqIesXy7sFL1lVNf5h0OtrWoe0DenqeYE/ftD6sEizCOGzmuHPC7a+fz3BT42iXHPyNeori/aMRO91pB2kebn4157nHNFtaBCvI3yoLM9YAwgzrGG59/Dn3+0lzTs+qMMmcd6noE/A63eZhPXLkdnwttKiZzTf8yA/y/2gPMES2ReO/b/iVjPj/SJoaxTBQUF2LBhg7Zqet26dTh58qS6JzaDNmx9DH2bX8ChtfcGFfdGKy6fPwNDduSectbMLO32yqUr2m08ciGXb+W1nD+WdVl888yy7lsINlZ6ej2qFsBoQ1vdTu88ZoQhYJdMctEmrINtrkeN+K3b1aIeI8NC/CKG0xI8Jxr6iy3sfN5flI4KJyza42SRvfpR0IKrDbZeuzpeyDGTudaNwBrfMexdYldbQLglcO2JniuUfJyjWr7AcPh+KAkfqxoOt3bhqp0JFqdHC8jgpt553+Drl1Md8vGBUx3J/YxcTeJ+ixx6F5dvV+2bXN47Ez6nEvL/xZHo/8dQMf9PjMH/QRoXDGUd8gVyUVGRFsiHDx9W94wt33zxzHkztdt4Th887Z8/PnXglFaXRdYlWZdtxl4FgkdDu2D3/8KMwLUJ4ve56GAH/xY019fA6HFik/ZQ8Utto+gZddlR60+QbjhaxK+16uaQX7Sh51uAirBfpi40xbqmOKyrxbWIa7MEHcN3zGSu1QPnmoDrCnst4l17MucywtYW0Etrq0CLDIcRHUtck712OMyFbketd11B83BP0trqQLV8nULejLmaRNh7Aqc6UvczSvycPiH/XxL6/xgu9v+J1P8fpPHBUNaZiQpk6eKnF3Hl6ytaKJfdW6b2Rndq/yn/Qi5fXRZZlwLrY6sX7sDfhp5exP6UdzfaO7XfggHDi1asthnh6Wz3/hLz9VJ2hvwS6+kVsWZExQK1LYWdrweyA5/YIrREWFGndTCDf+n7JXWtnQgcOZavhbtX3FSYVLDFufZkziXfAPhXX8temug5BnZrkzpWF0KbSdpIibFCRJDkfZ38P8MgoT/zVP2MkjmnEvb/JYH/j2Hi/J9I+f9BGi8MZZ2ZqECWLvVf8ods5YuVYZ8xll8oMr00/CNVoausZd23KnusLZDdgbghHK67vVP84g9YBWytE1tdaAnsign++UN/b0/0TtR90XlX7tq7AnqK8YZ2Y0lw1e/IrjVUYtee/LlEL827XD5sHjg11x1ft/buwyfFP6Mogs8ZXbejRXvTEu//o1/c/xPj8/wo9RjKOpOKQM4snIvCyidRZlkXVErqnkdGTuyhabnq+sSuE8ibnYelry/Fss3LsPSNpah/sx7Lty9P/MtAxoPZjuaovZQ4uh3wjpKqhTxat2OniI5g/vnDkJLIKKA2Dynby7lIEUaxF+yM3miuNVS8ax/RuVxN3uFmR/ACqFRedyxmU3iMjfXPKNI5I/MuWoz3/zFZkZ4f6RtDWUfkSuvRBnK/ey8uHOoAhq5hWn5xUDFkZqO/dx/O7n1PtQ4nV13vemkXPvjJB/hkzyfIyMzQvgwka3oWPLs8+OLwF6rlRFPzkR4n1kTrTcThXfBVg3qrDHcPnIGTd93t8I4opqB3Id4A1Mo0kucayW/8eNeSymsNFXrtozyXa5NcLFWNZjmmmtSxQtcNSGbUe8e/VXh5g81YUx8hWEPbhhjxz2gU5wwR8/9jqGR/DgHPj/SNoawTg4ODWL9+/aiHrC8e3YMTm1/E0de/F7Eca1mFgRP7Vevo+nb3ofPHndj+5HbIoWh5u/tvduN8nw6+J9236hThi2uSoi2wMaKmWS6oCZ9r9S44Ch1utaI1bm9KtAkZKtR6PmHnSNTwtQQPQfrOM5prDRXv2kd5LjVCYbStFo9I5lhyGDa4h21tFf8HjMGLprTQl6ubQx4f3jbe84yg2w3v9HvwlSV+zjjU/0ebQ77ZDL0O8SZUfvTJf454/yeiPz/SN4ayTsgvChnvOeTJIWBOzD/nWINOuYBoNIGs8S6wMRqNkRfMuJq0jwwFz3k6gKiLawLIX5YB16x9NCXseuVHZgKPLUpYGCnyWuRiqaDjimvxrX4azbWGinftozyXr7fskM814WOJcLP0otnfRlxXtdhnagruhcoeof/rPAPaah8NCmmb0M8okHdeXH6ETHuML/SSOWdMasGXkNCUTLz/E1GeH+lbWlVV1VBfX+J/PYiIaDzJLw9ps/WGB/B1aCo9V4qMPWUiIl1Ibg6ark8MZSIiHTDbNyY3B03XJYYyEdEE8n63t5vD1qThnDIREZFOsKdMRESkEwxlIiIinWAoExER6QRDmYiISCcYykRERDrBUCYiItIJhjIREZFOMJSJiIh0gl8eEkN5eTk+/fRTtTUxFt06B1tfbUBuzjS1J7Ke41/i+b9+H8f6zqo9REQ02TCUY1ixYgWysrLw1ltvqT3j74dPV+KHP6jE3oOfqT2R3Wa6AYPfXMaW3xxUeyL7avAy3tr+e1y5ek3tISIivWAoxyBDubGxES0tLdrfO54IvlB+/Rd71J7I/vTOG3HP7X+itmJz/MO/4Oe/3qe2iIhILxjKMfhCWUpFMKelT0Nu+a2YaX5Q1DPQf3QPzv/7bnVvZL5QTsT+I59j17+dUFuR+QL+9bdjh/xkZW1N5I/VExHpExd6JUCGcXNzM5YtW6b2JC/NkIHCux7F/FUtKKl5BkWVVsx76jWU1D2nWsQmh69jlY7fHY8byCNibdX+gk1Y6bDDrJoQEVFqMJQT4OsljyaYs2YbMd20GIOfH8WRV+px9DUrLn78IYoWL4che7pqFd2e/X0xy6Gjp1XLseCB02KCyeQrFjhhQ5u7FVbVIrWsaBXB3zo2Byci0i2GcgxpaWmq5g3mrVu3asHsG9JORkbeLKRn5WHw9HF8I8rl/nPoP7ZPdqGRkTNDtZosuuFY4xRRXY26sQhOswkVqkpENJUwlGMYGhpSNa8tW7ZoPWY519zQ0KD2xpeeOwtZJTcjs6gM2aU3oahyOQrveQx5Ny5CRvYM5N/2ANIzc1XryaXCxEFsIqJUYSgnadu2bRgYGNCCec6cOWpvbMX3WTHX+hJyRQjPWFAFY+OrmPvEyyha3ICM/GKUW9ai9OHVqvUksaACRtFX7mwPWE5ltqMjxryzXISl7Qtp12EfbqW1abOJYwPVDtXGP45thr1j+HHB90WnHTPJxxARTQSGchIKCgqwYcMGGAwGrFu3DidPnlT3xGbQhq2PoW/zCzi09t6g4t5oxeXzZ2DInkQ9ZRmqjmqgqwUOXybLfSJM4bQEzzuHBqBR7NsIrPHNT9u7xK42//yxq0nss8ihcXF4u2rT5PLeaV2Nmk7f8WWxo6vaERTqwbwhrq3GDnyMupeISG8YygnyBXJRUZEWyIcPH1b3TAVG2NoCepptFWgJDEsZfhtF77bLjlp/SnfD0SLir7oZwZnpgXNNwMeVXJvgFAlcncjktKsp4PiSCzvFKYw19VFWgi9Ahehyd7UEfjzKhSb/dRMR6QtDOQFTO5ClwNXXsqdZDUdgD9hcjxoZfjtDwq6nVzzSiIoFalvydCJwxFuGt7tX3FSYogRrqOAhbNlhj64HvTLwHR0hbwyIiPSJoZyAqR3IoURP0y57wI6wjyz554D9PWrv3HCqeOeG24KGsOWlRCd667WyTUBPn/PJRKRjDOUEpCKQMwvnorDySZRZ1gWVkrrnkZEzU7WaJFxNWhhWO4I/p+yfAw4pKRktNtvRLKexxTmCh7Dj0+ap5bXIuWrxZoJffEJEesVQjkOutB5tIPe79+LCoQ5g6Bqm5RcHFUNmNvp79+Hs3vdU68nBtcn7OeVmOS7c3Y7OROeFU8oMUzIfaO52oFa+mzDWoJ6pTEQ6xFCOYXBwEOvXrx/1kPXFo3twYvOLOPr69yKWYy2rMHBiv2od7Oo172el5XdWp6JIvmOOigg4uY7LaFstesu+RV2hQ9pWtI6kV9rthneaOeCRal9g8Ftb22CLOT4uzh8yXG2tE93tsHltIiJ94B+kiCE9PR1Xr15VWxMjLzcTKxvuRLph+NvFRkMG8lv/+HsMfHVJ7YlDfve1owJOS+3wx5981MegjB71ByC0tsErr+Rws/8TTVH+WETE/YHH6rJ7V3r7zufdC4/TgpaKtqDHBh9Lfl2nQ/TnA/iuVW0SEekJQ5mIiEgnOHxNRESkEwxlIiIinWAoExER6QRDmYiISCcYykRERDrBUCYiItIJhjIREZFOMJSJiIh0gqFMRESkEwxlIiIinWAoExER6QRDmYiISCf4ByliKC8vx6effqq2JsaiW+dg66sNyM2ZpvZE1nP8Szz/1+/jWN9ZtYeIiCYbhnIMK1asQFZWFt566y21Z/z98Gnv30Hee/AztSey20w3YPCby9jym4NqT2RfDV7GW9t/jytXr6k9RESkFwzlGGQoNzY2oqWlBTt27FB7x5cvlF//xR61J7I/vfNG3HP7n6it2Bz/8C/4+a/3qS0iItILhnIMvlCWUhHMaenTkFt+K2aaHxT1DPQf3YPz/75b3RuZL5QTsf/I59j1byfUVmS+gH/97dghnyxrqxuOCicstQ50q336YkWr24EKpwW1Dn1eIRERF3olQIZxc3Mzli1bpvYkL82QgcK7HsX8VS0oqXkGRZVWzHvqNZTUPadaxCaHr2OVjt8djxvII2eGvcMNtzu4dNjN6n4iIkoFhnICfL3k0QRz1mwjppsWY/DzozjySj2OvmbFxY8/RNHi5TBkT1etotuzvy9mOXT0tGqZYtZWEcBtqOm0wGQyDRd7l2pARESpwlCOIS0tTdW8wbx161YtmH1D2snIyJuF9Kw8DJ4+jm9Eudx/Dv3H9skuNDJyZqhWeiN6yM3VQJc9fMjX1cRhYCKiFGMoxzA0NKRqXlu2bNF6zHKuuaGhQe2NLz13FrJKbkZmURmyS29CUeVyFN7zGPJuXISM7BnIv+0BpGfmqtZ6sgAVRlUlIqIxx1BO0rZt2zAwMKAF85w5c9Te2Irvs2Ku9SXkihCesaAKxsZXMfeJl1G0uAEZ+cUot6xF6cOrVWs9cWGnHKWubkbC08dmOzoC555breoOnwjz0yFt5KIxd4cdZm3oXNXVfWHHD7zPL/QcHYlfPxHRBGIoJ6GgoAAbNmyAwWDAunXrcPLkSXVPbAZt2PoY+ja/gENr7w0q7o1WXD5/BoZsPfaU5Si1HV0wwtYWLQADGG1o2wisCZx3rnYELwizrg6ZnxbHD20jyWPV7fS28a3oloHcZgOcvsdb4IRoFxjqWmi3wdZrV21kaUFFmwPVqgkRkV4xlBPkC+SioiItkA8fPqzuud650CSCzeL0eIMyau9U8sC5JuAjUa5N0B5WsUDtEMLmor29cWNNfcgxu2Bvcqm6JHq/G20wBs1vd8PRIoN/uCdvXS3aeJywBD1WPAeLU1wdEZG+MZQTMHUDeVi3o1brdQ6Hc4QhYU8n2oPWfnXD3StuKkwhgRs8vOyI1IX19KJHVTXmetQYRVTvDAxboadXhK0R3ty3ok4cy9PZHv5Z6W435KUQEekZQzkBUz2QA3nDWQ1pb4wznB2BNl8c8hGrZD5dVe0YDnOttImesbqPiGiyYygnIBWBnFk4F4WVT6LMsi6olNQ9j4ycmarVZOHCJu+4NAIGpuMz2+H9hJVpxB+nko8dniseLkGj1UREkxRDOQ650nq0gdzv3osLhzqAoWuYll8cVAyZ2ejv3Yeze99TrSeHBSn7rJQZpgpVjaW7HZ3ifUB1Xehq7kA96JXvFcLmpwVrHRd6EZHu8buvY5CfRe7p6ZnQIeu//K+L8cLK+9RWavztW7/D323+V7UVi/y+6DrsNDWJvnEA+VElRzU8Ad8jHe27r4P3e79/urrLDpPq2mr3y7SUi7PUY6Mdy3de2Vse7hmLY3aYsMnXVrWRX3jiO4dv1bZ8GxF4zUREesNQjiE9PR1Xr15VWxMjLzcTKxvuRLph+NvFRuPqtSG89Y+/x8BXl9SeWFSIqq1hHjgttQjMtsRCWQgISEmGZEtFW1CbqKEs+UI3QHBICyHn8Aa+G6v5BymISOcYykRERDrBOWUiIiKdYCgTERHpBEOZiIhIJxjKREREOsFQJiIi0gmGMhERkU4wlImIiHSCoUxERKQTDGUiIiKdYCgTERHpBEOZiIhIJxjKREREOsE/SKFzi26dg62vNiA3Z5raE1nP8S/x/F+/j2N9Z9UeIiKabBjKOvfDpyvxwx9UYu/Bz9SeyG4z3YDBby5jy28Oqj2RfTV4GW9t/z2uXL2m9hARkV4wlHXOF8qv/2KP2hPZn955I+65/U/UVmyOf/gX/PzX+9QWERHpBUN5lAoKCnDu3Dm1FVta+jTklt+KmeYHRT0D/Uf34Py/71b3RuYL5UTsP/I5dv3bCbUVmS/gX387dsgTEdH440KvUVi2bBm++93vqq3Y0gwZKLzrUcxf1YKSmmdQVGnFvKdeQ0ndc6pFbHL4Olbp+N3xuIE8EmZ7B9wddpjVdjAz7B1uuFutapuIiEaDoTxCMpCbm5vVVnxZs42YblqMwc+P4sgr9Tj6mhUXP/4QRYuXw5A9XbWKbs/+vpjl0NHTqiUREU1WDOURSDaQpYy8WUjPysPg6eP4RpTL/efQf2yf7EIjI2eGakVERFMZQzlJIwnk9NxZyCq5GZlFZcguvQlFlctReM9jyLtxETKyZyD/tgeQnpmrWhMR0VTFUE7CSAJZKr7PirnWl5ArQnjGgioYG1/F3CdeRtHiBmTkF6PcshalD69WrSc/a6sbbndACZ1zNtvREXh/yJy19ni5z9oadn/cYxMRTWIM5QQ1NjZGDOS0tDRVi86gDVsfQ9/mF3Bo7b1Bxb3Risvnz8CQfT30lL0LvxwVTlhMJpi0YkeXulcjA7nNBjgt6n4LnLChLTRcjWJf3U5vm1oHuhM5NhHRJMdQToAM5BUrVqgtim4BKoxAV4sMUR8Xmppcqi6CdaMNxi47ah2+Ft1wtIhorW6GPWiJdxfs/sdJ8Y5NRDT5MZTjYCAnowe9HpGvjo6QgFXM9aiRwbozJEh7euGBERUL1Lbk6RVHCxTn2ERE1wGGcgxyDjleIA8NDanadcxYIfqpiRC93loT7F1G2Nqiz/lWOwLmhGVpE71ndV90iR2biGgyYyhHIb+pKy8vD1u2bIlZuruHB1NjySyci8LKJ1FmWRdUSuqeR0bOTNVqsvEOKXt6g/u0riY152txwlPtCFvI1WX3zQkHl0RGouMdm4hoMmMoRyG/OnPr1q1xyx/+8Af1iOj63Xtx4VCH6FZfw7T84qBiyMxGf+8+nN37nmqtL93tnfCgGnWROqXWOnGPB53tUd6YdDtQa+8SPe0a1Mvk7G5HpxyCjniwJIUem4joOsDvvta5v/yvi/HCyvvUVmr87Vu/w99t/le1FZ/8GJKj2gOnpRb+9VlqFbVctGXyd3GtaG1F0OIr7bFyxbS2glrbAbejWustDzcTj+swYZNqE/YYTQLHJiKa5BjKOpeXm4mVDXci3RD/o1eJuHptCG/94+8x8NUltSdBKkwDBQerJILT7RC95wCeCKEZ51hRQzmRYxMRTWIMZSIiIp3gnDIREZFOMJSJiIh0gqFMRESkEwxlIiIinWAoExER6QRDmYiISCcYykRERDrBUCYiItIJhjIREZFOMJSJiIh0gqFMRESkEwxlIiIineAfpNCJ8vJyfPrpp2prYiy6dQ62vtqA3Jxpak9kPce/xPN//T6O9Z1Ve4iIKBUYyjqxYsUKZGVl4a233lJ7xt8Pn67ED39Qib0HP1N7IrvNdAMGv7mMLb85qPZE9tXgZby1/fe4cvWa2kNERLEwlHVChnJjYyNaWlqwY8cOtXd8+UL59V/sUXsi+9M7b8Q9t/+J2orN8Q//gp//ep/aIiKiWBjKOuELZSkVwZyWPg255bdipvlBUc9A/9E9OP/vu9W9kflCORH7j3yOXf92Qm1F5gv419+OHfJEROTFhV46I8O4ubkZy5YtU3uSl2bIQOFdj2L+qhaU1DyDokor5j31GkrqnlMtYpPD17FKx++Oxw3kpFlb4Xa7I5RWWFUTIqLrHUNZZ3y95NEEc9ZsI6abFmPw86M48ko9jr5mxcWPP0TR4uUwZE9XraLbs78vZjl09LRqmWoeOC0mmEyBpQkude/4s6JVvDFo5bsCIhonDGWdSEtLUzVvMG/dulULZt+QdjIy8mYhPSsPg6eP4xtRLvefQ/+xfbILjYycGaoVxWU2oUJViYjGA0NZJ4aGhlTNa8uWLVqPWc41NzQ0qL3xpefOQlbJzcgsKkN26U0oqlyOwnseQ96Ni5CRPQP5tz2A9Mxc1ZqIiPSEoaxj27Ztw8DAgBbMc+bMUXtjK77PirnWl5ArQnjGgioYG1/F3CdeRtHiBmTkF6PcshalD69WrScPa6sb7g47zGp7mBn2jpD7zHZ0BM5LhzzOf6yQdh324VZamzYbjKJe7VBtAsaxtfsDHht4HxHRSDGUdaqgoAAbNmyAwWDAunXrcPLkSXVPbAZt2PoY+ja/gENr7w0q7o1WXD5/BobsyddTdu3sAow2rA7NPnM9akRydrU40K1ti6AVYQqnRc1JW+CEDW2hoSmO1bYRWOObu7Z3iV1t/vljV5PYZ3HCI+pddtWmSc5ue98EOCqcsPgea7JDXB0R0agxlHXIF8hFRUVaIB8+fFjdc70zwtYWpQfq2gSnSMjquuBwNdfXwOhxYpO2GkwE5kbRu+2yo9ahRbTQDUeLiMzqZgR0hAUPnGtUkEtRjh9uASoC3wRoXGjSApuIaHQYyjozdQNZirD62h923Wjv1FIz4CNSVqy2GeHpbFe9ZNVr3hkSkD294shGVCxQ25KnE+3DqSp0w90rbipMQUPd4XrQKy/D0RES8kREo8dQ1pmpG8jxdbd3inCthr8za60TW11o8feKvfxzwL6i5oZTQ/S8a02wdwX06jmfTEQpwlDWmVQEcmbhXBRWPokyy7qgUlL3PDJyZqpWk1C3A96RaO/CLWtdtewWh32O2T8HHFJSOcKszTnL48p552pHlEVoRETJYSjriFxpPdpA7nfvxYVDHcDQNUzLLw4qhsxs9Pfuw9m976nWk493wVcN6q12NFd74PROJnt1t8M7wj2OPVfxRqHWrq6JqUxEo8TvvtYJ+Vnknp6eCR2y/sv/uhgvrLxPbaXG3771O/zd5n9VWzHIr9l0VMBpqUXIaHQIufq5DTXaLHEnLLWBC64E7TjVWm95uGdsRWuHCZtUW/lxJm31dMhjw/fLb/RyoMJpCVg4Jva1ImhhV7TjEREli6GsE+np6bh69aramhh5uZlY2XAn0g3D3y42GlevDeGtf/w9Br66pPbEoMI0kuCAFbFs70CbzRi23y/CsQLbJh7KQuCxuuwwNUEL6qCjexjIRJQaDGUiIiKd4JwyERGRTjCUiYiIdIKhTEREpBMMZSIiIp1gKBMREekEQ5mIiEgnGMpEREQ6wVAmIiLSCYYyERGRTjCUiYiIdIKhTEREpBMMZSIiIp1gKOtEeXm5qhER0VTFUNaJJUuWYOXKlWqLiIimIoayjlitVixbtkxtERHRVJNuNBp/ev78ebVJE+X222/Xyt13342BgQH09PSoe0YmLX0a8uaZMbtqBfK/XQWDwYBvvkz872Znz8zGdxq/A/P3zbjz2Tsxv24+im4pwldffoWvz36tWnk9vetp7fb0gdPa7cIfLMRDbzyEg784qG0TEVFi2FPWmR07dqC5uXlUPeY0QwYK73oU81e1oKTmGRRVWjHvqddQUvecahFbxYMVeHzz41j41ELcYL4Bg+cHkV+Wj1seuwWFNxeqVkDpolItgAPrssi6FFhPhtneAbfbHVI6YDerBilnhr1DnKPDLmpERBOHoawzLS0tow7mrNlGTDctxuDnR3HklXocfc2Kix9/iKLFy2HInq5aRVZoKsT9a+/HtJxp+OhnH+HdR97F+6vexzuPvIP2Z9tx5g9nVEugZGEJ7rDdodVL7yjV6rLIuiTrsk3irGgVAdxm64XdZIIpoNi7VBMiousYQ1kn0tLSVM0bzFu3btWCubGxUe1NXEbeLKRn5WHw9HF8I8rl/nPoP7ZPdqGRkTNDtYqs8keVMKQbcODNAzj0q0O4dvWaugc46z6LC59dUFvQhqffXvK2Vj/gPKDVZZF1SdYTH8KWgexAdZddhHATXGqvj6upFo5utZFy3XDUivCvdYgaEdHEYSjrxNDQkKp5bdmyResxr1ixAg0NDWpvfOm5s5BVcjMyi8qQXXoTiiqXo/Cex5B34yJkZM9A/m0PID0zV7UOllOYg+Jbi7U54yOuI2rv+DDbm1GNLtibQuOYiGjqYCjr2LZt27RFXzKY58yZo/bGVnyfFXOtLyFXhPCMBVUwNr6KuU+8jKLFDcjIL0a5ZS1KH16tWgcrmF+g3Z7747mgHvLYM6O+xgh07QzrIUdibVXzv2Y7OgLmnTtCJp29c9Otog+u5owD2rZaVSPFf0y1HVn4cdwBB9KOEeU+IqJEMJR1qqCgABs2bNBWTa9btw4nT55U98Rm0Iatj6Fv8ws4tPbeoOLeaMXl82dgyI7cU86amaXdXrl0RbuNRy7k8q28lvPHsi6Lb55Z1n0LwWIy10Nmsqc3iRXnRhvaNgJrfPPO9i6xqy0sbCH63w631tA/P21xelDtCA/mmLQ3AG2w9crhdd+x7KJvr92phbWjwglL2H1ERIljKOuQL5CLioq0QD58+LC6Z2z55otnzpup3cZz+uBp//zxqQOntLossi7JumyTqF53MjO6HjjXBMwBuzZBZC2q68KTtssePB/d7ajVFo5VNye+2tq62gajR4Ru0PC6C03a9gJUyI5+S+CctO8+IqLEMZR1ZqICWbr46UVc+fqKFspl95apvdGd2n/Kv5DLV5dF1qXAesp5OtEelOHdcPeKmwpTSNB2YWeEbOzpFQlurBBxmggr6qpDQzdQD+Thqh1j+bEtIpoKGMo6M1GBLF3qv+QP2coXK8M+Yyy/UGR6afhHqkJXWcu6b1V2Qrrd8OapThPNbEKFqkbmXb1t7zLC1sb5ZCIaOYayzqQikDML56Kw8kmUWdYFlZK655GRE3toWq66PrHrBPJm52Hp60uxbPMyLH1jKerfrMfy7ctH9GUg8bmws0t0XGvqEx5O1iNXk5pPtjjhqXbwy0iIKGkMZR2RK61HG8j97r24cKgDGLqGafnFQcWQmY3+3n04u/c91TqcXHW966Vd+OAnH+CTPZ8gIzND+zKQrOlZ8Ozy4IvDX6iWqeXaJILMaMPGlI//ViC8A57cam90t6Mzynx1RN0O1MpJa2MN6pnKRJQEhrJODA4OYv369aMesr54dA9ObH4RR1//XsRyrGUVBk7sV62j69vdh84fd2L7k9u1oWh5u/tvduN83xh9T7oKMrmCOlIP09o60vlaOaQsPxY1zNraBpsx1meiQ792sxuOFrkyTPR+g4alrWjVtn23w6xyEjps3puIKDaGsk7ILwoZ7zlk3XE1wWSywAkb2gI/7yuKo7oXSS3O9hPha+lFc9CxxL4I3xoWk3ZtdnTJYPYfywH/KrKg/erjUfyGMCJKUlpVVdVQX1/ifz2IaLKQXx7i/R7t+AEsv/iDQUpEE409ZSKYYZLLq3vdDGQimlAMZSLratiMHjg3JTWgTUSUcgxlmqICvsfaUQGnZSz/ChURUWI4p0xERKQT7CkTERHpBEOZiIhIJxjKREREOsFQJiIi0gmGMhERkU4wlImIiHSCoUxERKQTDGUiIiKdYCjrRHl5uaoREdFUxVDWiSVLlmDlypVqi4iIpiKGso5YrVYsW7ZMbRER0VSTbjQaf3r+/Hm1SRPl9ttv18rdd9+NgYEB9PT0qHtGJi19GvLmmTG7agXyv10Fg8GAb75M/DvOs2dm4zuN34H5+2bc+eydmF83H0W3FOGrL7/C12e/Vq28nt71tHZ7+sBp7XbhDxbioTcewsFfHNS2JzP5d5Z/899noOuXu3FG7SMiGivsKevMjh070NzcPKoec5ohA4V3PYr5q1pQUvMMiiqtmPfUayipe061iK3iwQo8vvlxLHxqIW4w34DB84PIL8vHLY/dgsKbC1UroHRRqRbAgXVZZF0KrMdlbfX+xaaw0gqrajL21F+O6rCLGhHR+GMo60xLS8uogzlrthHTTYsx+PlRHHmlHkdfs+Lixx+iaPFyGLKnq1aRFZoKcf/a+zEtZxo++tlHePeRd/H+qvfxziPvoP3Zdpz5w3B/sWRhCe6w3aHVS+8o1eqyyLok67JN4jxwWkwwmQJLE/hXjoloqmAo60RaWpqqeYN569atWjA3NjaqvYnLyJuF9Kw8DJ4+jm9Eudx/Dv3H9skuNDJyZqhWkVX+qBKGdAMOvHkAh351CNeuXlP3AGfdZ3HhswtqC9rw9NtL3tbqB5wHtLossi7J+uQawu6Go1a8Eah1iBoR0fhjKOvE0NCQqnlt2bJF6zGvWLECDQ0Nam986bmzkFVyMzKLypBdehOKKpej8J7HkHfjImRkz0D+bQ8gPTNXtQ6WU5iD4luLtTnjI64jai8REY0XhrKObdu2TVv0JYN5zpw5am9sxfdZMdf6EnJFCM9YUAVj46uY+8TLKFrcgIz8YpRb1qL04dWqdbCC+QXa7bk/ngvqIeuF2d6h5pitaA2cd25Vs85mOzoi7fdTc8Yx2siFXcnPKcc+rnbMKPcREQViKOtUQUEBNmzYoK2aXrduHU6ePKnuic2gDVsfQ9/mF3Bo7b1Bxb3Risvnz8CQHbmnnDUzS7u9cumKdhuPXMjlW3kt549lXRbfPLOs+xaCpU41HO467PTNOVuc8FQ70NEhArutAi2h++0B8WpdjZpOS8B8tR1doW2Spb0RaIOt1x58XO+dWlg7KpywhN1HRBSOoaxDvkAuKirSAvnw4cPqnrHlmy+eOW+mdhvP6YOn/fPHpw6c0uqyyLok67JN4oywtcXrVcrFYAGLv7odaBEpZzQi8v6a+uFer6sJtY7A2WIXdoa2SZJ1tQ1GjwjdpsDlaC40adsLUCGuq6slcI7adx8RUTiGss5MVCBLFz+9iCtfX9FCuezeMrU3ulP7T/kXcvnqssi6FFhPTITV12EB1gt3yCqsnl6P+DfKfmOFiMZAwUPNjmq1e0SsqBOPDw7dQD2Ql1Dt6MBoOuNENHUwlHVmogJZutR/yR+ylS9Whn3GWH6hyPTS8I9Uha6ylnXfqmw98c7ttgUNYdtHM5ZsNqFCVSPzrua2dwWMAHA+mYhiYCjrTCoCObNwLgorn0SZZV1QKal7Hhk5sYem5arrE7tOIG92Hpa+vhTLNi/D0jeWov7NeizfvjzxLwPRG7MdzbJXazeFDGGPPVeT6vWreW5+OQkRRcNQ1hG50nq0gdzv3osLhzqAoWuYll8cVAyZ2ejv3Yeze99TrcPJVde7XtqFD37yAT7Z8wkyMjO0LwPJmp4Fzy4Pvjj8hWp5PTDDFLurG1t3Ozrl8HRdgr3fbgdqZdfcWIN6pjIRRcBQ1onBwUGsX79+1EPWF4/uwYnNL+Lo69+LWI61rMLAif2qdXR9u/vQ+eNObH9yuzYULW93/81unO+bpN+T3u1Gr7gJDFBraxtsRrWRkNCv4eyGQ64mk73foGFpK1q1bd/tMKuchPZ0on18O+tENEkwlHVCflHIeM8h60+E1deipGYa1oUm3/CxOm5zr2V0c8qSqwm+j1YNX7MD2KkWqAXtVx+P4jeGEVEUaVVVVUN9fYn/9SAiIiIaG+wpExER6QRDmYiISCcYykRERDrBUCYiItIJhjIREZFOMJSJiIh0gqFMRESkEwxlIiIinWAoExER6QRDmYiISCcYykRERDrBUCYiItIJhrJOlJeXqxoREU1VDGWdWLJkCVauXKm2iIhoKmIo64jVasWyZcvUFhERTTXpRqPxp+fPn1ebNFFuv/12rdx9990YGBhAT0+Pumdk0tKnIW+eGbOrViD/21UwGAz45svE/2529sxsfKfxOzB/34w7n70T8+vmo+iWInz15Vf4+uzXqpXX07ue1m5PHzit3S78wUI89MZDOPiLg9o2ERElhj1lndmxYweam5tH1WNOM2Sg8K5HMX9VC0pqnkFRpRXznnoNJXXPqRaxVTxYgcc3P46FTy3EDeYbMHh+EPll+bjlsVtQeHOhagWULirVAjiwLousS4H1uMx2dLjdaLWqbcFs74C7ww6z2g5mhr3DDXfgA8aStRVucX1hJer16Y16vSbN9RJNTQxlnWlpaRl1MGfNNmK6aTEGPz+KI6/U4+hrVlz8+EMULV4OQ/Z01SqyQlMh7l97P6blTMNHP/sI7z7yLt5f9T7eeeQdtD/bjjN/OKNaAiULS3CH7Q6tXnpHqVaXRdYlWZdtrh8eOC0mmEy+YoETNrS5WzFObw1SzIpW8cZivN7XEFF8DGWdSEtLUzVvMG/dulUL5sbGRrU3cRl5s5CelYfB08fxjSiX+8+h/9g+2YVGRs4M1Sqyyh9VwpBuwIE3D+DQrw7h2tVr6h7grPssLnx2QW1BG55+e8nbWv2A84BWl0XWJVm/voewu+FY4xRRXY063QebuNZa8Uai1iFqitmEClUlIn1gKOvE0NCQqnlt2bJF6zGvWLECDQ0Nam986bmzkFVyMzKLypBdehOKKpej8J7HkHfjImRkz0D+bQ8gPTNXtQ6WU5iD4luLtTnjI64jai8losLEQWEiGj2Gso5t27ZNW/Qlg3nOnDlqb2zF91kx1/oSckUIz1hQBWPjq5j7xMsoWtyAjPxilFvWovTh1ap1sIL5BdrtuT+eC+ohTybW1pA539CxWTV37b8/ZI5Ve7zc55tDjjcHu6ACRtFX7mz39z/jnkObK9eGvNU8b0DbaEPJYc8rypB5rOfvf26+eptNXDtQ7QhvKyVyTv8xA14ve8B5giUyrx3+moQ9hyj3EV0PGMo6VVBQgA0bNmirptetW4eTJ0+qe2IzaMPWx9C3+QUcWntvUHFvtOLy+TMwZEfuKWfNzNJur1y6ot3GIxdy+VZey/ljWZfFN88s676FYGPP+8vcUeGExT/na0eXulcjw1IEEZyW4Dnh0F/sRrGvbqe3TeBwbyh5PEc10NUCh69RoudANRzujcAa37WaYHF6tIAMbuqd9w1+XibYu+TjO2D3p1sCzz+Aq0ncb5FD7+Ly7ap9k8t7Z8LnVEJeL8dOcVaxb3XoUzbXo0a8C+hqifKaam9m2mDrtfvPOfwcknt+RJMVQ1mHfIFcVFSkBfLhw4fVPWPLN188c95M7Tae0wdP++ePTx04pdVlkXVJ1mWb8bEAFWG/8F1o8geN+KW+UfQMu+yo9SdoNxwt4td6dXNI0HTB7n9cICNsbQG9tLYKtMhwGNE5ZBjWDoe50O2oFcEnmw73JK2tDlR7RBCFvDlwNYmw94jr8SdfvOefuMTP6RPyerk2iXbieYRMtJvra2AUx90U5ZKsq8VrJ88bdM2+55C650ekZwxlnZmoQJYufnoRV76+ooVy2b1lam90p/af8i/k8tVlkXUpsD72etArg8ARoScn+XppO0N+iff0it6iERUL1Lbk6RVHiyRw9bXspYmeY2C3NplziEeHNpN65JMwVogIkqyoEx1xT2d7UDh6daO9U0s+NaQc5/knLJlzKmGvV6R2Vqy2GaMcV/KeN2ovOmXPj0jfGMo6M1GBLF3qv+QP2coXK8M+Yyy/UGR6afhHqkJXWcu6b1X2qPkDKh7v6mJ7V0BvNsJ8o3/+1N/b9c6rJk/00rRurSNsHjh154it292ralJiz3+0gs8ZXbejRXvT4u8sW+vEVhdaAocGAsVdCT4+z49oojGUdSYVgZxZOBeFlU+izLIuqJTUPY+MnNhD03LV9YldJ5A3Ow9LX1+KZZuXYekbS1H/Zj2Wb1+e+JeBjDnvcKanN7iPps2Vyp6snC8VgRm6qMg/fxpSRjQK6mryDjc7ghdApfQcMZhN4TEW7/mPVqRzRuaCnFr2DcVbtW7wTrF3dMb6+RFNNIayjsiV1qMN5H73Xlw41AEMXcO0/OKgYsjMRn/vPpzd+55qHU6uut710i588JMP8MmeT5CRmaF9GUjW9Cx4dnnwxeEvVMux193eiaifAdZ6XiGrngN1O1ArE9NYg3r5W7u7Hd4R1dT2rlybvJ9TbpZjqkmdowLhn6Iyo947/q3Cyxtsxpr6CMET2jZE6PNP2CjOGcLlPRDqrXY0V3vgjDaZLCX78xnx8yPSN4ayTgwODmL9+vWjHrK+eHQPTmx+EUdf/17EcqxlFQZO7Feto+vb3YfOH3di+5PbIYei5e3uv9mN833j+D3p4hevtkYqdB4x0qpn0VdtDRnO1Hpnnk54c9u34Cp0uFk8bjS9LXWNRttqcaRkziGHYYN72NbWNtiMwYumtNCXq5tDHh/eNt7zj6DbDTkYHfoZ68TPGYe24Es8T4dcwBV6Hd7V1MM93eHXLnhY2ve8RvD8iCYhhrJOyC8KGe855MlAG66094aserahVw4Rh4aD/IXuayOK9vGZwBXEriZxrC7RLOBYbgcQdXFRYny9ZYcMmITPIcLN0otmfxtxvdVin6kpuBcqe4T+r/MMaKt9NCikbbznH8Y7L260tXkf4wu9ZM4Zk1rwJURf4BVAvnZyAV3Q8xCvnW9FXNLPj2jySauqqhrq60v8rwcR0ejILw9ps/WGB/B1aCo9V6JUYE+ZiMZIcnPQRMRQJqIxYrZvTG4OmogYykSUWt7v9nZz2JpoBDinTEREpBPsKRMREekEQ5mIiEgnGMpEREQ6wVAmIiLSCYYyERGRTjCUiYiIdIKhTEREpBMMZSIiIp1gKOtEeXm5qhER0VTFUNaJJUuWYOXKlWqLiIimIoayjlitVixbtkxtERHRVJNuNBp/ev78ebVJE+X222/Xyt13342BgQH09PSoe0YmLX0a8uaZMbtqBfK/XQWDwYBvvkz8O86zZ2bjO43fgfn7Ztz57J2YXzcfRbcU4asvv8LXZ79Wrbye3vW0dnv6wGntduEPFuKhNx7CwV8c1LaJiCgxDGWd8IXyjh070NjYOKpgTjNkoPDuesxb8b+Qf8tiZM+5BTMXLhVBnYGBY/tUq+gqHqzAg688iPJ7y5FTmIOBMwPIL8vHDeYb8OWRL3H2j2e1dqWLSnHTQzdpt0gDppdOR+kdpdq2rEtpaWnoP9Wv1WOytsL9m9ew+vEZ6PrlbpxRu4dZ0er+Df77jC78cnf4vURE1wMOX+tMS0uLFszNzc0jHsrOmm3EdNNiDH5+FEdeqcfR16y4+PGHKFq8HIZsb1hGU2gqxP1r78e0nGn46Gcf4d1H3sX7q97HO4+8g/Zn23HmD8OBWLKwBHfY7tDqMoxlXRZZl2RdtkmK0YbVVlUnIppiGMo6IXuUPjKYt27dqgWz7DUnKyNvFtKz8jB4+ji+EeVy/zn0yx5ymgEZOTNUq8gqf1QJQ7oBB948gEO/OoRrV6+pe4Cz7rO48NkFtQVtePrtJW9r9QPOA1pdFlmXZD25IewudHUB1Y5W0S8mIpp6GMo6MTQ0pGpeW7Zs0XrMK1asQENDg9obX3ruLGSV3IzMojJkl96EosrlKLznMeTduAgZ2TOQf9sDSM/MVa2DyaHq4luLtTnjI64jau/42tlkF9FcDUcrY5mIph6Gso5t27ZNm1uWwTxnzhy1N7bi+6yYa30JuSKEZyyogrHxVcx94mUULW5ARn4xyi1rUfrwatU6WMH8Au323B/PBfWQx5cLm5we0V1uht2sdkVlhr3DDbc7oISEudneIfbLnreck47QzmxHR6T9gULbdNjFmeOJfW3W1uj3EdHUxVDWqYKCAmzYsEFbNb1u3TqcPHlS3RObQRu2Poa+zS/g0Np7g4p7oxWXz5+BITtyTzlrZpZ2e+XSFe02HrnK2rfyWs4fy7osvnlmWZdtktXtWAOnxwjbxjjhZ12Nmk4LTCaTKqKXXe1AR1iai563uw47fe0sTnhkuw4R2G0VaAndH/h4GchtNsDpO48FTtjQFitEtRBvg63Xrh4jixwB0O7UwtpR4YQl7D4imuoYyjrkC+SioiItkA8fPqzuGVu++eKZ82Zqt/GcPnjaP3986sAprS6LrEuyLtskrxuONSIg4y36cjWh1tGtNiQXdop0M9bUh4S5R2Rqk7hX6XagRbYzyqyNsN//eBGgG20wdtkDziOuTTaK0ZO3rhaP8YjQbfIfWXChSdtegApx3q4WhziSj+8+IprqGMo6M1GBLF389CKufH1FC+Wye8vU3uhO7T/lX8jlq8si61JgPWkqIOMv+goeJnZUq91BeuEOzG6hp9cj/o2y31gholMw16NGBujOkMDs6RUxb0SF1iiUFXXiGoJDN1AP5CmqHR0JDM8T0VTDUNaZiQpk6VL/JX/IVr5Y6f38cQD5hSK+zx8HCl1lLeu+Vdmj4VKLvpqjpJd3XrYtaAjbLoI81aodw6GvlTbRE1b3hTGbUKGqkYmedq28TiNsbep4nE8mIoWhrDOpCOTMwrkorHwSZZZ1QaWk7nlk5MQemparrk/sOoG82XlY+vpSLNu8DEvfWIr6N+uxfPvysKAeW95FX0bbxvBepdmOZtkjtZtChrBTT55jeG54uIxmxNnVpI6j5rETWzxGRNc7hrKOyJXWow3kfvdeXDjUAQxdw7T84qBiyMxGf+8+nN37nmodTq663vXSLnzwkw/wyZ5PkJGZoX0ZSNb0LHh2efDF4S9Uy/ExvOirOU4PVDLDFL9R4rrb0SmHmuuS6Mkm+5huB2pl995Yg3qmMtGUx1DWicHBQaxfv37UQ9YXj+7Bic0v4ujr34tYjrWswsCJ/ap1dH27+9D5405sf3K7NhQtb3f/zW6c7xvvr2T1LfoyBg8Zd7vRK24Cw8/a2gZb1HHlkfAt6nIgeITZilZ/z1bNafu3hx8TPCwtHqNt+26HWeUktKcT7WPb4SeiSYChrBPyi0LGew550lCLvoK50OQb+lVzvc29ltTPKbuaYBIHDZ5XdgBRF3IJ8jHq41lBj/EtGAvarz4eVRvjeEQ0ZaRVVVUN9fUl/teDiIiIaGywp0xERKQTDGUiIiKdYCgTERHpBEOZiIhIJxjKREREOsFQJiIi0gmGMhERkU4wlImIiHSCoUxERKQTDGUiIiKdYCgTERHpBEOZiIhIJxjKOlFeXq5qREQ0VTGUdWLJkiVYuXKl2iIioqmIoawjVqsVy5YtU1tERDTVpBuNxp+eP39ebdJEuf3227Vy9913Y2BgAD09PeqekUlLn4a8eWbMrlqB/G9XwWAw4JsvE/+72dkzs/Gdxu/A/H0z7nz2Tsyvm4+iW4rw1Zdf4euzX6tWXk/velq7PX3gtHa78AcL8dAbD+HgLw5q20RElBiGsk74QnnHjh1obGwcVTCnGTJQeHc95q34X8i/ZTGy59yCmQuXiqDOwMCxfapVdBUPVuDBVx5E+b3lyCnMwcCZAeSX5eMG8w348siXOPvHs1q70kWluOmhm7RbpAHTS6ej9I5SbVvWpbS0NPSf6tfqsZjtHfhwfTm6frkbZ9S+YWbYOz7EW1Wn8HftR9Q+IqLrD4evdaalpUUL5ubm5hEPZWfNNmK6aTEGPz+KI6/U4+hrVlz8+EMULV4OQ7Y3LKMpNBXi/rX3Y1rONHz0s4/w7iPv4v1V7+OdR95B+7PtOPOH4cgsWViCO2x3aHUZxrIui6xLsi7bEBFRYhjKOiF7lD4ymLdu3aoFs+w1JysjbxbSs/IwePo4vhHlcv859MsecpoBGTkzVKvIKn9UCUO6AQfePIBDvzqEa1evqXuAs+6zuPDZBbUFbXj67SVva/UDzgNaXRZZl2SdQ9hERIljKOvE0NCQqnlt2bJF6zGvWLECDQ0Nam986bmzkFVyMzKLypBdehOKKpej8J7HkHfjImRkz0D+bQ8gPTNXtQ4mh6qLby3W5oyPuDhMTEQ03hjKOrZt2zZtblkG85w5c9Te2Irvs2Ku9SXkihCesaAKxsZXMfeJl1G0uAEZ+cUot6xF6cOrVetgBfMLtNtzfzwX1EPWK2urG253QGm1qnsUsx0dgfd32GFWd0na4+U+a2vE+4PJee2AY8kScL6410JElACGsk4VFBRgw4YN2qrpdevW4eTJk+qe2AzasPUx9G1+AYfW3htU3ButuHz+DAzZkXvKWTOztNsrl65ot/HIVda+lddy/ljWZfHNM8u6bJN63oB0VDhhMZlg0oodXepejQzkNhvgtKj7LXDChrbQsDSKfXU7vW1qHehWu4No4d4GW69dHSvwfAlcCxFRghjKOuQL5KKiIi2QDx8+rO4ZW7754pnzZmq38Zw+eNo/f3zqwCmtLousS7Iu26TeAlQYga6WwBB1oanJpeoiKDfaYOyyo9bha9ENR4uIyupm2IO6w12w+x8XmXW1OJZHhG5QO9/54l0LEVHiGMo6M1GBLF389CKufH1FC+Wye8vU3uhO7T/lX8jlq8si61JgPbV60OsR+eroCAlYxVyPGhmUO0OCsacXHhhRsUBtS55ecbRYrKirDg3dQHGuhYgoCQxlnZmoQJYu9V/yh2zli5Xezx8HkF8o4vv8caDQVday7luVnRRjheh3JkL0emtNsHcZYWuLPodb7QiY45WlTfR41X0JM5tQoaqRJXYtRESJYCjrTCoCObNwLgorn0SZZV1QKal7Hhk5sYem5arrE7tOIG92Hpa+vhTLNi/D0jeWov7NeizfvjwsqMeHd4jY0xvcp3U1qTlcixOeakfYQq0uu2+ON7iMxchyvGshIkoEQ1lH5Err0QZyv3svLhzqAIauYVp+cVAxZGajv3cfzu59T7UOJ1dd73ppFz74yQf4ZM8nyMjM0L4MJGt6Fjy7PPji8BeqZWp1t3fCg2rURepkWuvEPR50tkceQEa3A7X2LtHTrkG9TMLudnTKIeWIB0tSsscKvRYioiSkVVVVDfX1Jf6dyDQ25GeR5ddqjveQtZ7IjxU5qj1wWmrhX5+lVlHLRVsmfxfXitZWBC2m0h4rV0D7VlDLjzk5qrXe8nAz8bgOEzapNmGP0cjV1G2wIfxY4mARrgHxr4WIKEEMZZ1IT0/H1atX1dYU5gvAAMHBKolAdDtE7zmAXB0dGoJxjpVwKGvCz+k9VoLXQkSUAIYyERGRTnBOmYiISCcYykRERDrBUCYiItIJhjIREZFOMJSJiIh0gqFMRESkEwxlIiIinWAoExER6QRDmYiISCcYykRERDrBUCYiItIJhjIREZFOMJR1ory8XNWIiGiqYijrxJIlS7By5Uq1RUREUxFDWUesViuWLVumtoiIaKpJNxqNPz1//rzapIly++23a+Xuu+/GwMAAenp61D0jk5Y+DXnzzJhdtQL5366CwWDAN18m/nezs2dm4zuN34H5+2bc+eydmF83H0W3FOGrL7/C12e/Vq28nt71tHZ7+sBp7XbhDxbioTcewsFfHNS2iYgoMewp68yOHTvQ3Nw8qh5zmiEDhXc9ivmrWlBS8wyKKq2Y99RrKKl7TrWIreLBCjy++XEsfGohbjDfgMHzg8gvy8ctj92CwpsLVSugdFGpFsCBdVlkXQqsx2O2d8DdYYdZbQczw97hhrvVqrbHmLUVbrc4X1hpxThdARFNUQxlnWlpaRl1MGfNNmK6aTEGPz+KI6/U4+hrVlz8+EMULV4OQ/Z01SqyQlMh7l97P6blTMNHP/sI7z7yLt5f9T7eeeQdtD/bjjN/OKNaAiULS3CH7Q6tXnpHqVaXRdYlWZdtJicPnBYTTKbA0gSXupeIaCwwlHUiLS1N1bzBvHXrVi2YGxsb1d7EZeTNQnpWHgZPH8c3olzuP4f+Y/tkFxoZOTNUq8gqf1QJQ7oBB948gEO/OoRrV6+pe4Cz7rO48NkFtQVtePrtJW9r9QPOA1pdFlmXZJ1D2EREiWMo68TQ0JCqeW3ZskXrMa9YsQINDQ1qb3zpubOQVXIzMovKkF16E4oql6PwnseQd+MiZGTPQP5tDyA9M1e1DpZTmIPiW4u1OeMjriNqLxERjReGso5t27ZNW/Qlg3nOnDlqb2zF91kx1/oSckUIz1hQBWPjq5j7xMsoWtyAjPxilFvWovTh1ap1sIL5BdrtuT+eC+oh65W1NWTON3TO2WxHR+D9IXPW2uPlPt8cctQ57XDRHhvvmGHXHGGeOtYxwh4fd55dzcdHeUzyxyOiscRQ1qmCggJs2LBBWzW9bt06nDx5Ut0Tm0Ebtj6Gvs0v4NDae4OKe6MVl8+fgSE7ck85a2aWdnvl0hXtNh65kMu38lrOH8u6LL55Zln3LQRLLW/QOCqcsPjne+3oUvdqZCC32QCnRd1vgRM2tIWGjlHsq9vpbVPrQLfanZBoj42434pWEXrB12yCvasaDncH7KHvBsKOkcBzDqW9KWmDrdfuP9/wY0ZwPCIacwxlHfIFclFRkRbIhw8fVveMLd988cx5M7XbeE4fPO2fPz514JRWl0XWJVmXbVJvASqMQFdLYIi60NTkW4YlAmejDcYuO2odvhbdcLSIyKluDgnALtj9jwtkhK0tXi8y2mPD91tbHaj2iAAMCX5Xk3iz4BHnWh3v2PGeczjravEayHMGtfE9JvnjEdHYYyjrzEQFsnTx04u48vUVLZTL7i1Te6M7tf+UfyGXry6LrEuB9dTqQa9H5KsjQg9TMtejRgbOzpCA6emFR4RtxQK1LXl6xdEiibD6OjSwoj02bL8VddVid2d7UCB7daO9Uz6ZuuBh7LBjxHnOYbznDA7dQMkej4jGA0NZZyYqkKVL/Zf8IVv5YmXYZ4zlF4pMLw3/SFXoKmtZ963KToqxQvTfEiF6vbVy6DegNxthLrTaEdDLlaVN9BzVfXrS7e5VtVgSe85+ZhMqVDWyJI9HROOCoawzqQjkzMK5KKx8EmWWdUGlpO55ZOTEHpqWq65P7DqBvNl5WPr6UizbvAxL31iK+jfrsXz78oS/DCS1vEOtnt7gvqOrSfVgLU54qh1hi6q67AG93ICitxFasyl2fAaK95yTFel4RDRxGMo6IldajzaQ+917ceFQBzB0DdPyi4OKITMb/b37cHbve6p1OLnqetdLu/DBTz7AJ3s+QUZmhvZlIFnTs+DZ5cEXh79QLVOru70THlSjLlJnzVon7vGgsz3yQCy6Hai1d4medg3qZUJ1t8M7IqyXnp8LO7XLq48QoGbUe8faRaskhD7nUMm+BgHHI6KJw1DWicHBQaxfv37UQ9YXj+7Bic0v4ujr34tYjrWswsCJ/ap1dH27+9D5405sf3I75FC0vN39N7txvm+MviddhIK2Dit0jlOuIHZok6Pwr9mSK5lDhlqt3klbeHPbt6jLgeBm4nGj7FmOlGuT6InKFdUh57e2tsFmjLZgLFC856w++uQ//vBrEDws7TtO9OMR0cRhKOuE/KKQ8Z5D1httKNXeG7zquc2GXjkMHRpaMmx8bUTRPtoTuLLZ1SSO1RUyr+wAoi58ChVh9bUoITmWONkT9X0sK+B43o8kJfj1nfGecyj5GsiPOQU9TrwGvgVwUY5HRBMnraqqaqivL/G/HkRERERjgz1lIiIinWAoExER6QRDmYiISCcYykRERDrBUCYiItIJhjIREZFOMJSJiIh0gqFMRESkEwxlIiIinWAoExER6QRDmYiISCcYykRERDrBP0ihc4tunYOtrzYgN2ea2hNZz/Ev8fxfv49jfWfVHiIimmwYyjr3w6cr8cMfVGLvwc/UnshuM92AwW8uY8tvDqo9kX01eBlvbf89rly9pvYQEZFeMJR1zhfKr/9ij9oT2Z/eeSPuuf1P1FZsjn/4F/z81/vUFhER6QVDeZQKCgpw7tw5tRVbWvo05JbfipnmB0U9A/1H9+D8v+9W90bmC+VE7D/yOXb92wm1FZkv4F9/O3bIjwVrawJ/mH8Exuq4RETjjQu9RmHZsmX47ne/q7ZiSzNkoPCuRzF/VQtKap5BUaUV8556DSV1z6kWscnh61il43fH4wZysmTYud2tsKrtcFa0ukWb1ugtkmeGvUMcs8MuakREUwtDeYRkIDc3N6ut+LJmGzHdtBiDnx/FkVfqcfQ1Ky5+/CGKFi+HIXu6ahXdnv19Mcuho6dVy9Rx7ewS/1ajLlrmWuvEvUDXTpd3m4iIRoWhPALJBrKUkTcL6Vl5GDx9HN+Icrn/HPqP7ZNdaGTkzFCtdMa1E1osR0lla50WyUhtJnfDUWuCiUPRRDQFMZSTNJJATs+dhaySm5FZVIbs0ptQVLkchfc8hrwbFyEjewbyb3sA6Zm5qrWeuODtLNdFGMK2wpvJO0UrIiJKBYZyEkYSyFLxfVbMtb6EXBHCMxZUwdj4KuY+8TKKFjcgI78Y5Za1KH14tWqtL1GHsLWhaw+cmwIi2WxHh5xj9pVo88Kh7ULmpLW57LDHqrnmGI8LksC1eOfMA0pK58aJiJLHUE5QY2NjxEBOS0tTtegM2rD1MfRtfgGH1t4bVNwbrbh8/gwM2XrsKQtRhrC1oWtPJ9p9Y8wyBNtsgNMCk8kkigVO2NAWGnRGsW8jsEZrI4pdHL3agQ57jGVdWsC2wdZrV8eWxa5dV0Rxr8Ub8NqK7USOR0Q0ThjKCZCBvGLFCrU11biwyekJGcL2Dl17OtvVvK8IuY02GLvsqHX4UrobjhYZuM0IzlvRu14TMF/s2gR5eGPFArUjnHW1OLZHBGhT4EC5C01B2z6JXMsCVBiBrpbAeetoxyMiGj8M5TimdiB7dbd3iigNGMJWQ9edvm6yuR41MuRCV3z19IpWRgTlbWDvWtMNd6+4qTCFDS97ed8ABAdoDAldSw965fsMR0fIGwYioonFUI5BziHHC+ShoSFVu451t6NT6yx7Uzls6FqpdoTM0baJHqu6b8TMJlSoajJiX4t3hbe9ywhbm7qf88lEpAMM5SjkN3Xl5eVhy5YtMUt3d0L9N2QWzkVh5ZMos6wLKiV1zyMjZ6ZqpVfdaPemsui3hg5dD+uy++Zng8tEjAonci2uJrXf4oSn2sEvLCGiCcdQjkJ+debWrVvjlj/84Q/qEdH1u/fiwqEO0a2+hmn5xUHFkJmN/t59OLv3PdVan/xD2K0hQ9dSSE86pZI99kiupduBWrngzFiDeqYyEU0gfve1zv3lf12MF1bep7ZS42/f+h3+bvO/qq1EyRXLbbDJMWC56Cr0yz2srXA7qrUe6nBv1IrWDhM2qbbRvqM6dH9YO3VscXCY/AcXx26FtjgrWvvo1zL8WJ9o10ZENJ4YyjqXl5uJlQ13It0Q/6NXibh6bQhv/ePvMfDVJbUncWZ7B9pEKnucloCVzQF84RkgMBhHHMoa+T3bDtFLH+Y7dsT2Ma8l/FgR32gQEY0zhjIREZFOcE6ZiIhIJxjKREREOsFQJiIi0gmGMhERkU4wlImIiHSCoUxERKQTDGUiIiKdYCgTERHpBEOZiIhIJxjKREREOsFQJiIi0gmGMhERkU7wD1LoRHl5OT799FO1NTEW3ToHW19tQG7ONLUnsp7jX+L5v34fx/rOqj1ERJQKDGWdWLFiBbKysvDWW2+pPePvh09X4oc/qMTeg5+pPZHdZroBg99cxpbfHFR7Ivtq8DLe2v57XLl6Te0hIqJYGMo6IUO5sbERLS0t2LFjh9o7vnyh/Pov9qg9kf3pnTfintv/RG3F5viHf8HPf71PbRERUSwMZZ3whbKUimBOS5+G3PJbMdP8oKhnoP/oHpz/993q3sh8oZyI/Uc+x65/O6G2IvMF/Otvxw55IiLy4kIvnZFh3NzcjGXLlqk9yUszZKDwrkcxf1ULSmqeQVGlFfOeeg0ldc+pFrHJ4etYpeN3x+MGctKsrXC73RFKK6yqCRHR9Y6hrDO+XvJogjlrthHTTYsx+PlRHHmlHkdfs+Lixx+iaPFyGLKnq1bR7dnfF7McOnpatUw1D5wWE0ymwNIEl7p3/FnRKt4YtPJdARGNE4ayTqSlpamaN5i3bt2qBbNvSDsZGXmzkJ6Vh8HTx/GNKJf7z6H/2D7ZhUZGzgzViuIym1ChqkRE44GhrBNDQ0Oq5rVlyxatxyznmhsaGtTe+NJzZyGr5GZkFpUhu/QmFFUuR+E9jyHvxkXIyJ6B/NseQHpmrmpNRER6wlDWsW3btmFgYEAL5jlz5qi9sRXfZ8Vc60vIFSE8Y0EVjI2vYu4TL6NocQMy8otRblmL0odXq9aTh7XVDXeHHWa1PcwMe0fIfWY7OgLnpUMe5z9WSLsO+3ArrU2bDUZRr3aoNgHj2Nr9AY8NvI+IaKQYyjpVUFCADRs2wGAwYN26dTh58qS6JzaDNmx9DH2bX8ChtfcGFfdGKy6fPwND9uTrKbt2dgFGG1aHZp+5HjUiObtaHOjWtkXQijCF06LmpC1wwoa20NAUx2rbCKzxzV3bu8SuNv/8satJ7LM44RH1Lrtq0yRnt71vAhwVTlh8jzXZIa6OiGjUGMo65AvkoqIiLZAPHz6s7rneGWFri9IDdW2CUyRkdV1wuJrra2D0OLFJWw0mAnOj6N122VHr0CJa6IajRURmdTMCOsKCB841KsilKMcPtwAVgW8CNC40aYFNRDQ6DGWdmbqBLEVYfe0Pu260d2qpGfARKStW24zwdLarXrLqNe8MCcieXnFkIyoWqG3J04n24VQVuuHuFTcVpqCh7nA96JWX4egICXkiotFjKOvM1A3k+LrbO0W4VsPfmbXWia0utPh7xV7+OWBfUXPDqSF63rUm2LsCevWcTyaiFGEo60wqAjmzcC4KK59EmWVdUCmpex4ZOTNVq0mo2wHvSLR34Za1rlp2i8M+x+yfAw4pqRxh1uac5XHlvHO1I8oiNCKi5DCUdUSutB5tIPe79+LCoQ5g6Bqm5RcHFUNmNvp79+Hs3vdU68nHu+CrBvVWO5qrPXB6J5O9utvhHeEex56reKNQa1fXxFQmolHid1/rhPwsck9Pz4QOWf/lf12MF1bep7ZS42/f+h3+bvO/qq0Y5NdsOirgtNQiZDQ6hFz93IYabZa4E5bawAVXgnacaq23PNwztqK1w4RNqq38OJO2ejrkseH75Td6OVDhtAQsHBP7WhG0sCva8YiIksVQ1on09HRcvXpVbU2MvNxMrGy4E+mG4W8XG42r14bw1j/+HgNfXVJ7YlBhGklwwIpYtnegzWYM2+8X4ViBbRMPZSHwWF12mJqgBXXQ0T0MZCJKDYYyERGRTnBOmYiISCcYykRERDrBUCYiItIJhjIREZFOMJSJiIh0gqFMRESkEwxlIiIinWAoExER6QRDmYiISCcYykRERDrBUCYiItIJhjIREZFOMJR1ory8XNWIiGiqYijrxJIlS7By5Uq1RUREUxFDWUesViuWLVumtoiIaKphKOtMc3NzSoI5LX0a8owLMefRH6Hs8f+Bmd+uUvckJntmNu545g782f/+Myz/9XI8+vNHUflCJQpNharFsKd3PY2FP1iotqDV5T49sba64e6ww6y2U2WsjktEUxNDWWd27Ngx6mBOM2Sg8K5HMX9VC0pqnkFRpRXznnoNJXXPqRaxVTxYgcc3P46FTy3EDeYbMHh+EPll+bjlsVtQePNwKJcuKvWHsa8ui6xLgfW4zHZ0uN1otXo3tbBzt0JtRmBFq2jv9j0gJcywd4xDyFpbxXOTzy+kTJpwH6fXiWgKYijrTEtLy6iDOWu2EdNNizH4+VEceaUeR1+z4uLHH6Jo8XIYsqerVpHJnvD9a+/HtJxp+OhnH+HdR97F+6vexzuPvIP2Z9tx5g9nVEugZGEJ7rDdodVL7yjV6rLIuiTrss1IuHZ2iX+rURctc6114l6ga6fLuz3peOC0mGAy+YoFTtjQFvONiJ553ySl9D0S0RTEUNaJtLQ0VfMG89atW7VgbmxsVHsTl5E3C+lZeRg8fRzfiHK5/xz6j+2TXWhk5MxQrSKr/FElDOkGHHjzAA796hCuXb2m7gHOus/iwmcX1BZw8BcH8faSt7X6AecBrS6LrEuyLtuMiGsntFiOksrWOi2SkdpM7oajVgRkrUPUxps49xqniOoYb0R0I8LrZDahQlWJaOQYyjoxNDSkal5btmzReswrVqxAQ0OD2htfeu4sZJXcjMyiMmSX3oSiyuUovOcx5N24CBnZM5B/2wNIz8xVrYPlFOag+NZifH32axxxHVF7J4oL3s5yXYSeoxXeTN4pWl1/KkwcFCaaqhjKOrZt2zYMDAxowTxnzhy1N7bi+6yYa30JuSKEZyyogrHxVcx94mUULW5ARn4xyi1rUfrwatU6WMH8Au323B/PBfWQJ0rUIWxt6NoD56aASFZz0trcbKz52dB2IeOtkRduqTnUGI8Lkui1hFpQAaN4Xp3tAf30OMcy2zvEfjnkHX6N0S7RO18fWCIPmYe1Czhg4Ouk1dts4trFT8sR3lZK5Jz+Y/rm3EXdHnCeYInMa8f+ucV6fkQThaGsUwUFBdiwYQMMBgPWrVuHkydPqntiM2jD1sfQt/kFHFp7b1Bxb7Ti8vkzMGRH7ilnzczSbq9cuqLdxhO4ylrOH8u6LL555tBV2UmLMoStDV17OuHPLhlcIhTgtATPz4b+kjWKfRuBNb55XLs4erUDHfYYkamFYhtsvXZ1bFns2nVFlOi1hJKPc4jn1dUCR7LPS7xFcbi1J6bamWBxerSADG7qnfd1VDhhUe1ksXfJx3dg+GXwhllwu+jP2dUk7rfIoXdx+XbVvsn3hinRcyryZ1S309uu1gGHfGMm9q0OfcrmetSIdwFdLVGmGmL+3JJ7fkTjiaGsQ75ALioq0gL58OHD6p6x5ZsvnjlvpnYbz+mDp/3zx6cOnNLqssi6JOuyzci5sEmES/AQtnfo2tPZrn4Zi1+wG0UvrcuOWn+adcPRIn7FVjeH/NIXves1Ab/EXZsgD2+sWKB2hLOuFsf2iF/e/pCRXGgK2vZJ5lqMsLUF9NLaKtAiw8F/3GSOJcOwdjjMhW5HrQg+2XS4J2ltdaBaPpeQOXNXkwh7j7gef/ItQEVY4EV7zrElfk6fLtgDz6N+RqFvzMz1NdrPJXCwJFDsn1vqnh9RqjGUdWaiAlm6+OlFXPn6ihbKZfeWqb3Rndp/yr+Qy1eXRdalwPpIdbd3Bi9+UkPX/iFeX48pdMVXT69oZURQ3gb2rjXdcPeKmwqTP7iCed8ARO2NhUrmWuQbBP/qa9lLEz3HwG5tUseKvOCtp1d7xyEiSAp9MxOoG+2dgW9+eiAfWu2I0JNNSjLnVDy94uyBIrWzYrXNGOW4UryfW6qeH1HqMZR1ZqICWbrUf8kfspUvVoZ9xlh+ocj00vCPVIWuspZ136rsUetuh/d3svdXctjQteKfy/T3PEVPSd03YiNcUZz8tYhemhpKDx2ZHpPnFUG39u7Ex7u62t4V0JuPN/w+AsHnjK7b0aK9aQl+Y9aFlsChgUBxf27j8/yIRoKhrDOpCOTMwrkorHwSZZZ1QaWk7nlk5MQemparrk/sOoG82XlY+vpSLNu8DEvfWIr6N+uxfPvyxL8MJGUCe0rRe17+ucyQMhEjkiO6FleTd7jZEbwAaryel9kUHmPaXLE8n5wvFm8YYi+qSl6kc0bmXYnvG4rX3pilYOX9WD8/opFgKOuIXGk92kDud+/FhUMdwNA1TMsvDiqGzGz09+7D2b3vqdbh5KrrXS/twgc/+QCf7PkEGZkZ2peBZE3PgmeXB18c/kK1HD/+IezWkKFrKaQnnVLJHnuU1+La5P2ccrMcU03qWBUI/xSVGfXe8W8VXt5gM9bURwie0LYhuh2ole8YjDWoTyq1RnHOENpKfHl+qx3N1SEr70Ml/XMb6fMjSj2Gsk4MDg5i/fr1ox6yvnh0D05sfhFHX/9exHKsZRUGTuxXraPr292Hzh93YvuT2yGHouXt7r/ZjfN951WLceT7JVsdaejat/gpdOjXitZR93yGjx08vCmOHXG4c5TXIsJBPtxoWy0ekcyx5DBscA/b2toGmzF40ZQW+nJ1c8jjw9uGP79o0wZ+3W54p+eDryzxc8ahLfgSz9MhF3CFXod3NfVwTzfez20Ez49onDCUdUJ+Uch4zyFPHmoIW4i4uMfVpH28KXj+1QEkukArFnlsuRBL/oIPPHa0rxIb5bX4essOGTAJH0uEm6UXzf42bjiqxT5TU3AvVPYI/V/nGdBW+2hQSNug56vaxPymM++8uNHW5n2ML/SSOWdMcf4PhIr3c0v6+RGNj7Sqqqqhvr4+tUlEk4n88pA2W294AF+HptJzpamLPWUimgSSm4MmmqwYykSke2b7xuTmoIkmKYYyEemW97u93Ry2pimDc8pEREQ6wZ4yERGRTjCUiYiIdIKhTEREpBMMZSIiIp1gKBMREekEQ5mIiEgnGMpEREQ6wVAmIiLSCYayTpSXl6saERFNVQxlnViyZAlWrlyptoiIaCpiKOuI1WrFsmXL1BYREU016Uaj8afnz59XmzRRbr/9dq3cfffdGBgYQE9Pj7pnZNLSpyFvnhmzq1Yg/9tVMBgM+ObLxL/jPHtmNr7T+B2Yv2/Gnc/eifl181F0SxG++vIrfH32a9XK6+ldT2u3pw+c1m4X/mAhHnrjIRz8xUFtmxJnbXXjN/99Brp+uRtn1D4imjrYU9aZHTt2oLm5eVQ95jRDBgrvehTzV7WgpOYZFFVaMe+p11BS95xqEVvFgxV4fPPjWPjUQtxgvgGD5weRX5aPWx67BYU3F6pWQOmiUi2AA+uyyLoUWI/H+9eAWmFV28HMsHe44e6wi9okZW3V/tpRaOmwT9pnRERjgKGsMy0tLaMO5qzZRkw3Lcbg50dx5JV6HH3Niosff4iixcthyJ6uWkVWaCrE/Wvvx7ScafjoZx/h3Ufexfur3sc7j7yD9mfbceYPw/23koUluMN2h1YvvaNUq8si65Ksyzbk44HTYoLJpIrFCdja4G6N/FYkcVa0ioAf9WGIaMIxlHUiLS1N1bzBvHXrVi2YGxsb1d7EZeTNQnpWHgZPH8c3olzuP4f+Y/tkFxoZOTNUq8gqf1QJQ7oBB948gEO/OoRrV6+pe4Cz7rO48NkFtQVtePrtJW9r9QPOA1pdFlmXZD01Q9jdcNSKEKt1iNp1pNuBNU4PUN2MUXWYzSZUqCoRTW4MZZ0YGhpSNa8tW7ZoPeYVK1agoaFB7Y0vPXcWskpuRmZRGbJLb0JR5XIU3vMY8m5chIzsGci/7QGkZ+aq1sFyCnNQfGuxNmd8xHVE7aWx1N3eKfrPRlQsUDuIaEpjKOvYtm3btEVfMpjnzJmj9sZWfJ8Vc60vIVeE8IwFVTA2voq5T7yMosUNyMgvRrllLUofXq1aByuYX6DdnvvjuaAesh7IBVDhc8pqrjlwnjZwDNdsR0fgfSGP9x8zpF2keV6tbUCbsCHnOOeKakGFiORYYj9H7brabNoxqh3h94/suhI4Z5T7iGh0GMo6VVBQgA0bNmirptetW4eTJ0+qe2IzaMPWx9C3+QUcWntvUHFvtOLy+TMwZEfuKWfNzNJur1y6ot3GIxdy+VZey/ljWZfFN88s676FYCmnhU0bbL324Tlakx1d6m7tfhFWcFrUfRY4YUNbaIAYxb6NwBrfMexdYldbwPysN6AcFU5YIp1HSvRcEZhNcuC5Cztd3u0w1tWo6fQdV5272uF/4+BqEvssTtHbFkexqzZN6mAjua6Yr2sCrwURjQpDWYd8gVxUVKQF8uHDh9U9Y8s3Xzxz3kztNp7TB0/7549PHTil1WWRdUnWZZuxYF0teoceEQ6+ANK40KRti/DYKO7vsqPW4ZuF7oajRcRH2PytB841AXPVrk3QpnnrfMG1ABWiG9rVEjif7TuPlMy5Qlhb0WYzijBtEkeMwtUUcFzJhZ3i0MaaenHmWEZ2XbFf13ivBRGNFkNZZyYqkKWLn17Ela+vaKFcdm+Z2hvdqf2n/Au5fHVZZF0KrKeWFXXVoeEQwFyPGhkeod3Pnt7w+VtPJ9qDDtINd6+4qTCp0OtBrwxpR0fkIEvmXGLb1hYw7Ouo0FZjx880bw/V9ziHeO5xJXVdPnFe13ivBRGNGkNZZyYqkKVL/Zf8IVv5YmXYZ4zlF4pMLw3/SFXoKmtZ963KHhMJrjb2z7H6ipp7TY535be9KyBQIwz/JnaukI9EmWoR1AmOwDt/2xY0hG1PYrw4qdcg7uua2GtBRCPHUNaZVARyZuFcFFY+iTLLuqBSUvc8MnJiD03LVdcndp1A3uw8LH19KZZtXoalbyxF/Zv1WL59ecJfBqIH/jnWkDKS0VZt7lY+Xs7fVjvCFkyl8lx+ZjuaZc9VHDt4CDtxY3Fd8V4LIho5hrKOyJXWow3kfvdeXDjUAQxdw7T84qBiyMxGf+8+nN37nmodTq663vXSLnzwkw/wyZ5PkJGZoX0ZSNb0LHh2efDF4S9UywnU3Y7OoHnfEPHuH41uB2plV9VYg3qZRGN5rojM0NaGxTOS60r2MaGvBRGNGkNZJwYHB7F+/fpRD1lfPLoHJza/iKOvfy9iOdayCgMn9qvW0fXt7kPnjzux/cntkEPR8nb33+zG+T49fE+6b8GS6KUFDZ9a0aptD98fPLoq7k+6V+c75jCrnHj1z0Wn8lwhut2Q09uBIWltbYMtdPxZtaswBZ4tketSc9X+7Xiva7zXgohGi6GsE/KLQsZ7Dll/quEInP+UJVqwuZrg+3jQcHsH/J8tkveLXlzwnKq4P+oiphiCzqE+EhT47WKpPFcQF5p8Q8TquM29lghzyqKd2Ck/yqW18wXnSK4r3usa77UgolFJq6qqGurrS/yvBxEREdHYYE+ZiIhIJxjKREREOsFQJiIi0gmGMhERkU4wlImIiHSCoUxERKQTDGUiIiKdYCgTERHpBEOZiIhIJxjKREREOsFQJiIi0gmGMhERkU4wlHWivLxc1YiIaKpiKOvEkiVLsHLlSrVFRERTEUNZR6xWK5YtW6a2iIhoqmEo60xzc3NKgjktfRryjAsx59Efoezx/4GZ365S9yQme2Y27njmDvzZ//4zLP/1cjz680dR+UIlCk2FqsWwp3c9jYU/WKi2oNXlvsnHila3Gx12s9pOjLXVDXeHHck9iogoHENZZ3bs2DHqYE4zZKDwrkcxf1ULSmqeQVGlFfOeeg0ldc+pFrFVPFiBxzc/joVPLcQN5hsweH4Q+WX5uOWxW1B483Aoly4q9Yexry6LrEuB9bisrXCLQEwk3LQQFG1brWoHEdF1gqGsMy0tLaMO5qzZRkw3Lcbg50dx5JV6HH3Niosff4iixcthyJ6uWkUme8L3r70f03Km4aOffYR3H3kX7696H+888g7an23HmT+cUS2BkoUluMN2h1YvvaNUq8si65KsyzZJMdqwOlbYmu1orlZ1IqLrDENZJ9LS0lTNG8xbt27VgrmxsVHtTVxG3iykZ+Vh8PRxfCPK5f5z6D+2T3ahkZEzQ7WKrPJHlTCkG3DgzQM49KtDuHb1mroHOOs+iwufXVBbwMFfHMTbS97W6gecB7S6LLIuybpskzgPPB6gui56Kpvra2AUjUQzIqLrDkNZJ4aGhlTNa8uWLVqPecWKFWhoaFB740vPnYWskpuRWVSG7NKbUFS5HIX3PIa8GxchI3sG8m97AOmZuap1sJzCHBTfWoyvz36NI64jau/46uzsEqncjMjTulasthnh6exEr9pDRHQ9YSjr2LZt2zAwMKAF85w5c9Te2Irvs2Ku9SXkihCesaAKxsZXMfeJl1G0uAEZ+cUot6xF6cOrVetgBfMLtNtzfzwX1EMeV+070QUjauojpLK1DtXi3haHW+0I55tvHi6tIsojMcPeEdiuI8obAcFsR0fgMUe0qCv0fKIETIqHXTcnzImmJIayThUUFGDDhg0wGAxYt24dTp48qe6JzaANWx9D3+YXcGjtvUHFvdGKy+fPwJAduaecNTNLu71y6Yp2G0/gKms5fyzrsvjmmUNXZSfGhU1OD4y21SFhKkJNTiZ37RQtIvGunHZUOGExmWBSxd5VDUdo4Goh2wZbr93fzmRqQUWbQ4R+CNm2zQY4LaqdBU7Y0JZMaEY8n128vdDu1MI6+Lp99xHRVMNQ1iFfIBcVFWmBfPjwYXXP2PLNF8+cN1O7jef0wdP++eNTB05pdVlkXZJ12SZZ3e2d8Ih4DJpaNtejxuiBc1OUSG4VgeoRwVbrQLfaJ7maRIh6jLAFrB6zrrbBKNs2BR7LhSaLM2SuWgTmRtG2y45ah++o3XC0xBpiDxf1fNr2AlQYxXuNlsDr9t1HRFMNQ1lnJiqQpYufXsSVr69ooVx2b5naG92p/af8C7l8dVlkXQqsJ6XbAW/uDQ8Ta8HW1QJ/Ngaxok50cT2d7UGB7NWN9k5t9Zjqecdo2+0OnqvW3gjIznlIQPb0ivA2omKB2o7Je77g0A3Ug155eY4Yw+dENGUwlHVmogJZutR/yR+ylS9Whn3GWH6hyPTS8I9Uha6ylnXfquyRcm0SvVZjDbSpZfUxqLBwTFC3e3TLwqodIfO9beINgrovLrMJFaoameh518phdtGbb1PH53wy0ZTFUNaZVARyZuFcFFY+iTLLuqBSUvc8MnJiD03LVdcndp1A3uw8LH19KZZtXoalbyxF/Zv1WL59eeJfBjJa3e3oVMPO3o9BORFl5Dousyl2LMbTZffN9QaXVI4wu5rUceUQerVDW0xGRFMPQ1lH5Err0QZyv3svLhzqAIauYVp+cVAxZGajv3cfzu59T7UOJ1dd73ppFz74yQf4ZM8nyMjM0L4MJGt6Fjy7PPji8Beq5VgbnrvdWCM/BhVpaNrHhZ2iqbGm3j/cPcyMeu8YtFog5h0ujthWW90dQHtjIEe+R9FzTfYY3Q7U2rUno3YQ0VTCUNaJwcFBrF+/ftRD1heP7sGJzS/i6Ovfi1iOtazCwIn9qnV0fbv70PnjTmx/crs2FC1vd//NbpzvO69ajAOX9+NRRqP8GFT0SJa8w902tIV8XMna2gabeLzd361VYS/bBg4TyxXSjqBIFnxvDBwhX+lpRWvUj0Wpjz757x8+RvCwtDiGtu27HWb1TnqrLSKaShjKOiG/KGS855D1z/vxqOgfgwoge5i+jysFzP96P2rUFPx4V9PwMLGv7UZgTaSPIsm2oucaPK/sgHiXEKPnHkIeQx478HzyGL458qD96pprxf1ENOWkVVVVDfX19alNIiIimijsKRMREekEQ5mIiEgnGMpEREQ6wVAmIiLSCYYyERGRTjCUiYiIdIKhTEREpBMMZSIiIp1gKBMREekEQ5mIiEgnGMpEREQ6wVAmIiLSCYayTpSXl6saERFNVQxlnViyZAlWrlyptoiIaCpiKOuI1WrFsmXL1BYREU01DGWdaW5uTkkwp6VPQ55xIeY8+iOUPf4/MPPbVeqexGTPzMYdz9yBP/vff4blv16OR3/+KCpfqEShqVC1GPb0rqex8AcL1Ra0utw3Uaytbrg77DCr7VQZq+MSEfkwlHVmx44dow7mNEMGCu96FPNXtaCk5hkUVVox76nXUFL3nGoRW8WDFXh88+NY+NRC3GC+AYPnB5Fflo9bHrsFhTcPh3LpolJ/GPvqssi6FFiPRQs7dyusajucFa1u0aY1eovkmWHvYMgSkb4wlHWmpaVl1MGcNduI6abFGPz8KI68Uo+jr1lx8eMPUbR4OQzZ01WryGRP+P6192NazjR89LOP8O4j7+L9Ve/jnUfeQfuz7TjzhzOqJVCysAR32O7Q6qV3lGp1WWRdknXZJh7Xzi7xbzXqomWutU7cC3TtdHm3iYiuUwxlnUhLS1M1bzBv3bpVC+bGxka1N3EZebOQnpWHwdPH8Y0ol/vPof/YPtmFRkbODNUqssofVcKQbsCBNw/g0K8O4drVa+oe4Kz7LC58dkFtAQd/cRBvL3lbqx9wHtDqssi6JOuyTVyundBiOUoqW+u0SEZqM7kbjloTTLUOUSMi0geGsk4MDQ2pmteWLVu0HvOKFSvQ0NCg9saXnjsLWSU3I7OoDNmlN6GocjkK73kMeTcuQkb2DOTf9gDSM3NV62A5hTkovrUYX5/9GkdcR9Te8eCCt7NcF2EI2wpvJu8UrYiIrm8MZR3btm0bBgYGtGCeM2eO2htb8X1WzLW+hFwRwjMWVMHY+CrmPvEyihY3ICO/GOWWtSh9eLVqHaxgfoF2e+6P54J6yOMh6hC2NnTtgXNTQCSb7eiQc8y+Em1eOLRdyJx05IVbaq45xuOCJHotQWKfwzvHHvk+Irq+MZR1qqCgABs2bIDBYMC6detw8uRJdU9sBm3Y+hj6Nr+AQ2vvDSrujVZcPn8GhuzIPeWsmVna7ZVLV7TbeAJXWcv5Y1mXxTfPHLoqO6YoQ9ja0LWnE+2+MWYZgm02wGmByWQSxQInbGgLDS6j2LcRWKO1EcUujl7tQIc9RmRqAdsGW69dHVsWu3ZdESV6LYFinsMb1o4KJyyJnJ+IrjsMZR3yBXJRUZEWyIcPH1b3jC3ffPHMeTO123hOHzztnz8+deCUVpdF1iVZl20S48Km/3979wIbR3ngAfzvR2wnDgl+0KR5dFnKti5oL9CqAvea4vhcR1DcWE62cIpV6raOW0XKlSKqammITlQrNVeRNKfe4VrFRUlKy0YGZI6eInfZHGqjnKAJbIJM3GCveZQQSJrXYUIS3/fNfLPenZ3Zh73rHdv/nzT422/HM7OzeP77PWbTGzV1Yetd19FQvxr3FaG1owOusB9NASOlIwh0y8DtQmLeitb1/XHjxcFdkJt3uetURTLfFrHtqAjEzviO8iA6Ex4bsjmWCan3UQe3Cwh3x49z2+2fiGYjhrLDFCqQpfNvncflDy9robz8tuWq1t67h9+NTeQyynKRZSm+nIlIf0hEaVwXtuq6DhnNZG8LGmVomWd8DQ6LtVxIyNv41rUmgqFh8cPtsele1j8AJAZiCtkcS0y6fQxiWH4uCQzYhjoRzW4MZYcpVCBLly5cioVs/YP1SfcYyy8UWbg0+ZYq8yxrWTZmZWcl0o+Q1ljWUzmp61ppCJjGXPtE61M9N2leD9yqmI2sjiXtPvQZ4f6wCx19anscTyaaUxjKDpOLQC6rXonq+nuwvG1rwrKkeTNK56fumpazrkcOjKDyukqs3bkWrbtbsfYXa9Hy6xZs2Lchoy8DmbwI+vVUFm1Kc9f1hLDfGG9NXArRy5uPYwl2qu209SLaEOAXnBDNIQxlB5EzracayBeGDuHc0QFg/CrmLapNWIrLKnBh+CWcPvS0WjuZnHV94OEDeOEnL+DNg2+itKxU+zKQ8oXliB6I4tSxU2rN/Ih1YfeYuq4lU0s6p7Ld9mSOJet9BNAkJ6i5GtHCVCaaExjKDjE2NoZt27ZNucv6/PGDGNn9II7vvNdyOdG9CRdHDqu17Y2+OIrQj0PYd88+yK5o+fPFn76Is6Nn1Rp5YgRXg1XXtTGRKoDEXl0feqbcmpzYdmKXsdi2ZRdyJseibn2KPU63j+R92XXhE9HsxFB2CPlFIdM9huxMqgtbsOq6RrBTu70pcSw3AGQ6QSsVuW15C5IMzfht232V2GSOJd0+EurV7VH81jGiOaNo9erV46Ojo+ohERERFQpbykRERA7BUCYiInIIhjIREZFDMJSJiIgcgqFMRETkEAxlIiIih2AoExEROQRDmYiIyCEYykRERA7BUCYiInIIhjIREZFDMJSJiIgcgqHsECtWrFAlIiKaqxjKDnHHHXfg29/+tnpERERzEUPZQXw+H1pbW9UjIiKaaxjKDtPV1ZWTYC4qmYdK1yosu/uHWL7uR1j8udXqmcxULK7ALd+5BV/9t69iw+834O5f3Y36B+pR7alWa0y478B9WPWtVeoRtLKsKxRfzxCGBvzwqse5kq/tEhEZGMoO88wzz0w5mIuKS1H9hbtxw6ZuLGn8DmrqffjUNx/FkubvqzVSc/+TG+t2r8Oqb67CJ7yfwNjZMSxavgif+fpnUH3jRCgvvXVpLIyNslxkWYovp6KF3VAPfOpxMh96hsQ6PfZrZM8L/8A0hKyvR7w2+frMS6rXS0RzFUPZYbq7u6cczOXXubDQczvG/nYcr/2sBccf9eH8639Cze0bUFyxUK1lTbaEv/zQlzFv/jy8/J8v48mvPYnnNj2H337tt+j/bj/ee/U9tSawZNUS3NJxi1ZeestSrSwXWZZkWa6TTnB/WPy3Ac12KeVrFs8C4f1B/fGME0VvmwceT/zSiZn6aogofxjKDlFUVKRKejDv3btXC+b29nZVm7nSymtRUl6JsZNv4COxfHzhDC6ceEk2oVE6/xq1lrX6H9ajuKQYR359BEd/dxRXr1xVzwCnh07j3Nvn1CPgld+8gifueEIrH+k9opXlIsuSLMt10gruhxbLNqnsa9YiGbnN5AgCTSIcmwKiRETkDAxlhxgfH1cl3Z49e7QW88aNG7F+/XpVm17JgmtRvuRGlNUsR8XST6OmfgOqv/h1VF5/K0orrsGim9egpGyBWjvR/Or5qL2pFh+e/hCvBV9TtdMhCL2x3GzRpeuDnsn72bIkolmPoexgTz31FC5evKgF87Jly1RtarVf8mGl72EsECF8Td1quNp/jpXfeAQ1t69H6aJarGh7CEvv3KLWTlR1Q5X288xfzyS0kKeDbRe21nUdRe+uuEj2+jEQPz5rNy5sXs80Jm09cUuNNaf4vQSZHksKseMwxp/VNuzqDfpYfPySPE6dahtJv592zD71ucl+e0RkxlB2qKqqKmzfvh3FxcXYunUr3nnnHfVMasVat/UJjO5+AEcfui1hGdrhw8dn30NxhXVLuXxxufbz8qXL2s904mdZy/FjWZaLMc5snpWdkk0XttZ1HQ2h3+hjliHY1wH0tqmx2Tb0ogN95gBwibodwP3GGK5fbL0hgAF/isjUArYPHcN+tW25+LXjspTpsWRCHm/zfn078V3qlvX6xLeAuxdtseP0wB9uQGBoAEkvMWkbergm/n6K1ymlPDeT2B4RWWIoO5ARyDU1NVogHzt2TD2TX8Z48eJPLdZ+pnPylZOx8eN3j7yrleUiy5Isy3UyE8Su3qipC1vvuo6G+lUYiYv/jg64wn40BYzYiiDQLQO3yxRGonV9f1y4BXdBbt7lrlMVyXxbxLajIlg64zvKg+hMeGzI5lhc6OhL14oMw2+5n+R6X08ADfI4TePhwU7xoSAq9rUl3bbr4HaJ2u7437d7nbrU5yb77RGRNYaywxQqkKXzb53H5Q8va6G8/Lblqtbeu4ffjU3kMspykWUpvpyJSH9IRGlcF7bqug4ZzWRvCxrlxd8842twWKzlQkLexreuNREMDYsfbo+IUyv6B4DEYEkhm2ORHxDMs6/NgRUdxqAqJkiqN39QiRdBf8j8wUZI2sYghuVqAYtWtaV05ybb7RGRHYaywxQqkKVLFy7FQrb+wfqke4zlF4osXJp8S5V5lrUsG7OysxLph54peqQkdV0rDQFTq7NPtOLUc5Pm9cCtitnIy7FMQUT75JGOPvPcH45rwafqck97brLcHhHZYig7TC4Cuax6Jarr78Hytq0Jy5LmzSidn7prWs66HjkwgsrrKrF251q07m7F2l+sRcuvW7Bh34aMvgxk8uJbevYtwrDf1OpUSyF6S510LJLXk/lHi2CnOt62XkQbAkkTybKV6+0RzUUMZQeRM62nGsgXhg7h3NEBYPwq5i2qTViKyypwYfglnD70tFo7mZx1feDhA3jhJy/gzYNvorSsVPsykPKF5YgeiOLUsVNqzfyIdWH3mLquJVNLOqey3XY+jyUl/fYxV2OLReB50aL3qYu1shAJoElOhHM1osUqRbM+N2m2R0S2GMoOMTY2hm3btk25y/r88YMY2f0gju+813I50b0JF0cOq7Xtjb44itCPQ9h3zz7Irmj588Wfvoizo2fVGnliBECDVde1MZEqgMTeUR96ptwqm9h2Yter2LZlV2w+jyW14C7REpUzqk378fX0ocNlN2EsXvJrShwqULc+xbaf7tyk2x4RZYqh7BDyi0KmewzZmVQXtmA5mSnYqd3elDiWGwAynaCVity2vJVHhk/8tu2+SizjY7GYfS0WU45lTrZEjduv4ran35KU4dd3JrxG9bupvt0s3bnJdntEZKlo9erV46Ojo+ohERERFQpbykRERA7BUCYiInIIhjIREZFDMJSJiIgcgqFMRETkEAxlIiIih2AoExEROQRDmYiIyCEYykRERA7BUCYiInIIhjIREZFDMJSJiIgcYsb9gxQrVqzAW2+9pR4VxvXXX4/NmzejoqJC1UyN/Gcbf/nLX2JkZETVEBHRXDTjQnnjxo0oLy/H448/rmqm35133om77roLoVBI1UxNY2Mjnn/+efzhD39QNURENBfNyFBub29Hd3e39m8QF4IRylu3blU1U/PII48wlImIaOaOKXd1daG1tVU9mryiknmodK3Csrt/iOXrfoTFn1utnqHJ8vUY/9h9Dyb77/hTajzHRLPTjA1l2UqeajAXFZei+gt344ZN3VjS+B3U1PvwqW8+iiXN31drZKfyk5VY9qVlWPmVlVjkXoTi4iKtvtZbi8/e+9mk8qR4/RjQLsbJy4Dfq1YqHK9/AIGGMPweDzyeTgThhX9AHN+AX5Qmwdejv74Mft8Iqh6np5R6Dyd7nMnnmIhmixkbykb39VSCufw6FxZ6bsfY347jtZ+14PijPpx//U+ouX0DiisWqrXSk+Hr/a4XTY814fP/8nl4N3mxZucalNfoE8Fqbq5B3T/XJZUnL4reNnlBjl/8GO7oK3AoedHS6ALC+3MfFK4ObEn1ukTQdTWo8qT50GN5/uzqCyGP59hWoV6/k8470fSYcaFcVKS3PiUZzHv37tWCWY4zZ6u08lqUlFdi7OQb+EgsH184gwsnXpJNaJTOv0atld7n7rsJ7jvdOLzrMJ675zk83/48XtjyAi6du4R1z66LhbC5PKUWc5IgOkU4+8NAQ2AAhWw0R4cHVUmKINAkPjQ0BURpsqKIRsXrara/OntbGuESK4nVJs/rgVsVE9jVF1DiOc6zQr1+B553onybcaE8Pj6uSro9e/ZoLWY5AWz9+vWqNr2SBdeifMmNKKtZjoqln0ZN/QZUf/HrqLz+VpRWXINFN69BSdkCtba9+dfNxw0tN+D137+O0T9OTJg7Fz2HKx9dweCTgzgVOaXVmcsfHPtAK+dSsNOPMFzoSNmsnHlCIflpo8vmw4YPWzpciIZCGFY1REQz0Yztvo731FNP4eLFi1owL1u2TNWmVvslH1b6HsYCEcLX1K2Gq/3nWPmNR1Bz+3qULqrFiraHsPTOLWpte1U3VqG4pBhv//ltVZPo9d+9jg+O6uFrLr8feV8r51YQ+0V+iWaliKo45rFoizHaiclDaknoN1Rjw3bPa2O/fRDZCJfqRjee17abyf5STVrq36992GhssUhlXzMaxLPdgSFVkSzdvrTn+zrEHmRPg1pHHL9dfex8JJwjya4+tdg5Mr1PCfMEMjnHSWPwad43Jen8xG/X8vXb7TPb82J9fPb7zXz79udEyODvgagQZnwoV1VVYfv27SguLtZuUXrnnXfUM6kVa93WJzC6+wEcfei2hGVohw8fn30PxRXpW8qlC0q1n7JVbGX6uq8nDA6bOnHlBUhc4NDbpsaf29CLDvTFLmD6BS3g7kVb3Bi1zPYY3xY0hozfV883BCZCI9gp6sR2xa6jxn467UY99bHCxP3JrvcGBIbsut6D2CU27urYYgpucexyMNl2jDWzfQU7RX1br9b9Hfar9cTx29XnhUu8JzuA+43j9IuPISJ8Y29TunMsf795v15vDBeke9/SvPdpX7/VPjOlBaP4kDHsV/uVi77vnJ13q+NL+/dAVDgzOpSNQK6pqdEC+dixY+qZ6TP2wZj2s/bmWu2n2XR3X09ww6Ndd8VFd4docYT9aAoYl8wIAt3x3cF1cIsmSbg7/qIaRGf8RVAEwsTvS3qL3NXYknULw9cTQENUhIDpIh7slIFj3/Ue6Q+Ji3QDEoaWvS1odEXRu8v6gj3ZfRWGeB33xx1ncJcWwKnG0hOF4TcHV9r3LYP3PiWLfWbIt0X8fynfm4Tfz2bfmTAfXyZ/D0SFM2ND2QmBLL3/6imcGz2Hm9pvwsIVEzO2K6orUDKvpADd14ZhDMlrjhZa4tK033ShGxwWEeCCW2u4D0I2rtNPENNbVUaXX2BSs519aBa/Fw31J4SkLoL+kJZCptawEglAv3ZOdDVqF/ZwNxJyJ2YK+yqEaAj9CQcawZAcJHd7MvvgEx0W76SVVO9bpu+9Ddt9pqO/N4kfBvLAfHwZ/T0QFc6MDWUnBLJ09eo4Xn70Za3c+ItGfGX7V7Dm39dgbe9alF1bptXLAH523bNJ5Xypk00f08UoNi5nLGq8TqfPkPaHRcuxTz1v6srTxxz7ErpC5UzvXItoKWQvuKsXUVcjtKFlr34bVNIFNkPp9jUbpH/f0r/3eVHgmdWp/x6ICmfGhnIuArmseiWq6+/B8ratCcuS5s0onb9YrZXeueFzGNg8gCP/cQQn/3IS0f+O4sADB/CR6tqeViqozK3D2LicaYnv2dPG8WS9HMtrCExMfjHCT2wjsSs097yeNJfqSD9CqttZvw2qFzY912ml3ddMl8X7Zvvez1KZ/D0QFcKMDGU503qqgXxh6BDOHR0Axq9i3qLahKW4rAIXhl/C6UNPq7XTkxO9Rv84qrWE3/ivN/D3v/5da0VPLzVeJoLqfuMirIWY7KXNovUTCaBJNqeMFqklLyaXaanGojP5YoyJ8b8dYl3rrmnDVPeVil3Xsj5G61xp3reM3vtUMjwvk/n/UjPF8z7p/RJNjxkXyvKfOdy2bduUu6zPHz+Ikd0P4vjOey2XE92bcHHksFp7BpAzSuVMVpgnNRkhFjB9M5IPPbHWkCibu6v1wVh9jDMypN3/G38h8/Xot+ZMht4F3YE+U2tM32YGE4eC+u1RLrFud7oWYDb7Uq/Trc+Qm2BTH9QSvyPum8bk2G0A4szFUeO5pv1Pi4zetzTvvWR3Xmxkdl4m/r9M7C6PO54pnXc7mfw9EBXOjAtl+UUhhRxDjrdmzZqcLNmLG/+LjYk1IiS/etPqthR5K41o/SSOowUgEm1iXXlxjNuedotMbFtBdBrdmur5ruG2yY8py9aYcRuKeZ8ZfZezfntURq3crPYlXqd4UeZ7gG3rxXltE8cxcV774O6Ws7r1pwsvw/ct5Xsv2Z0XG5meF/n/pbpFa2L/4v/L2ByBPJ33TP4eiApkxv3TjU5QV1eH733veygpKVE1U3PlyhU89thjGBycxq9OJCIix2EoExEROcSMnX1NREQ02zCUiYiIHIKhTERE5BAMZSIiIodgKBMRETkEQ5mIiMghGMpEREQOwVAmIiJyCIYyERGRQzCUiYiIHIKhTERE5BCz5ruvb71pGfb+fD0WzJ+naqwNvvE+Nv/rczgxelrVEBEROcOsCeUf3FePH3yrHodeeVvVWLvZ8wmMffQx9jz7iqqx9n9jH+PxfX/B5StXVQ0REVF+zbpQ3vmbg6rG2j9+/np88R8+qR6lFnjsf/Cr37+kHhEREeXXtIVyVVUVzpw5ox7lnhHKmTj82t9w4H9H1CNrRsDvfCJ1yBMREeXKtEz0am1txV133aUe5Zfsvk61DPz5jbSBTEREVAh5D2UZyF1dXepR/h08PJpyOXr8pFoz13zoGRpCj089zKl8bpuIiJwir6E83YFcUF4P3KqYc/ncNhEROUbeQnlOBTIREVEO5CWU51og+3qGMNTXAZcoNwREeUgs8X3NXj8GZJ2xDPjhVU8ZtG3Er6N+32rbREQ0O+U8lNvb2y0DuaioSJVmn2CnB562XkRFOewXZY9YOoP6kzKQRaiit02v97ShFx3oi4W2F/6BIQTcvWjTnpeLH2H1rNW2iYhodsppKMtA3rhxo3pEWuDuEK3csB9NgYiqiyDQLSK3oQt+rblcB7doBoe7A+IZQxCdRqgTEdGckbNQZiBb8LagUQbuflPADg6Llq8L7jrtAYZFM7ghMKBCmoiI5qqchLIcQ04XyOPj46o098TGmY1FjRHrRMu5yQN/2IWOPvU8730iIpqTphzK8pu6KisrsWfPnpRLJDLROTvXxMaZTUt8D7U2dizr5fhxQ8ByMhgREc1uUw5l+dWZe/fuTbu8+uqr6jfmkEg/QrJrujmLlm8kgCZ/GHA1ooWpTEQ0hwD/DxkTqq9qnMcGAAAAAElFTkSuQmCC;imageBorder=default;" parent="1" vertex="1">
          <mxGeometry x="160" y="1520" width="449" height="726" as="geometry" />
        </mxCell>
        <mxCell id="nvwnlEwFlLKaPRoTBn40-61" value="&lt;span&gt;&lt;font style=&quot;font-size: 16px;&quot;&gt;SCREAMING ARCHITECTURE&lt;/font&gt;&lt;/span&gt;" style="text;html=1;strokeColor=none;fillColor=none;align=left;verticalAlign=middle;whiteSpace=wrap;rounded=0;shadow=1;fontFamily=Lucida Console;fontStyle=1" parent="1" vertex="1">
          <mxGeometry x="160" y="1480" width="400" height="40" as="geometry" />
        </mxCell>
        <mxCell id="nvwnlEwFlLKaPRoTBn40-62" value="" style="shape=image;verticalLabelPosition=bottom;labelBackgroundColor=default;verticalAlign=top;aspect=fixed;imageAspect=0;image=data:image/png,iVBORw0KGgoAAAANSUhEUgAAAeoAAAJXCAYAAABc0RcMAAAAAXNSR0IArs4c6QAAAARnQU1BAACxjwv8YQUAAAAJcEhZcwAAFiUAABYlAUlSJPAAAJ05SURBVHhe7d0LeFXlnS/+bxIuIdxBBQm4iRpBaTrai4Ad/qYxUqmmtYHtpaBOnEmZ0ilTLHN6ZjsO7elxn6llxNIeNZM5pCrUljixc+IMPjHG7diKzGlrbbQDBAjh5q0VBcI98H/fd71r77XW3mvfb9n5fp5nJXu9637Z67fey1q7yOPxnEcEl1xyifq/b98+9V+67LLL1P/jx4+r/0SZ4LnNjzU3vYP/c+96/FKnDXZqm67+Lb7j24w+nZb/PLjNvwY3TQXeef478G2Wa26kXf1bs59o8Jo6dSq+9a1vqc/f+9738M4776jP+aKsrEz9L1Z/iSij+jY34XnchDUrP6NTBoM+bPbdi3u/8zxw9VwRooHPrBSBW2xJE4M0FQAZmGWAzscgbcUcNeWdQsxRD0qfWYkNf361+vjb/3Mv1vNgEGWVmaNmoCYiIspDLPomIiIaBBioiYiI8hgDNRERUR5Lqo6aiIiIsoM5aiIiojyWUI6aiIiIsos5aiIiojzGQE1ERJTHGKiJiIjyGAM1ERFRHmOgJiIiymMM1ERERHksZ49nlZSUwOv1YtSoUTolNSdOnEBraysGBgZ0ChER0eCXs0B9xx13YMWKFbovPR599FH89Kc/1X1ERESDX84CdUNDg+rq6+t1Smra2trQ0tKiOiIiokLBOmoiIqI8xkBNRESUx9JS9F1UMhxl06/C+KobxOdhOLZzKz76r1f00Mjuuece/Pmf/7nuS49cFn17m3vgr2hBfa0f3TqNskPt+2r5KQBfZSNaVSoVCh5fGupSDtRFxcMw6VN1mPbFb2HYqLEYOH0c58Uc33tpA97teEyPFW7evHn43Oc+h/fee0+npGbKlCl48cUX8cor0W8QQqrg62xDg0f3an0t9aj1Jx5q0xuo9boh+4G/yteJtoomVDbqy2GVD51tDXDsJiXZfZVOan0bei0X8BT3nbcZPTIq9MWe3gwgAV8lzN2VD8KOoSu9r3p9EceV81mHVTGPcbzjJSP8+MYnH9Y9Nbm7BjgxE5J7KRd9j7zQgzGV83Dy7Z34/ffqsPNhL47u+CUmz1uC4tIxeqxw50U0/+ijj/D000+npZONyQ4fPqznHoO8GPe0oaarHpWVlaHOF9AjZJMXzT09aPbq3rzUh5Z6y35SnQ+9DW1iP+Zy3atQVyNuIQId6c9leRqwMtp2iRuY5SqXlwq3Y5+lc8K7UtyoilxqWJCWQaJHBMhIt2dW8Y6XrGSOb76se75K/NxqbawXtwsxvg+UUSkH6mGjJ6Bk5GicfHcPTonuzLHDOLb7VzKrrXLYmTQMpZgzugEXD1+AQ/veU0EjNvEFlVfYgC/8Lrq1Mft31lWVqNAfQ7rhrxXBMK/vYFvRKAK2vLep9nfCV6WTc6Cvd7v+JKVj3/Whr09s10L3K1NVXQ08YiQxWvIiHnvBLT2tjO9BX8t6WxCUuSd5ExsrfsU7XjrYj6+7fFz35GXoGpDUudWN9q4+VC/3ibOGciGlQF1SNgEjp1yOEZPLUTr1MkyevwSTPv0FjJ55DYaVjsW4OZ9FyYgyPXZ6ySD9sXF/jgkjK3Dp2Bvx6Yl/gwtGfEwPjWY2KobaTXQGtTb6EIAHDQV2u93VJe9AlrvcgHixUlzl+7q60KtTBp2qOtSI3HST7ca0CpXiKi6rNCorRS7K9S4k3vGyaTCve/7r9jch4KlBHSN1TqQUqC+4zosZ3r9HmQjMY2cvgGfZWsy47buYPG8xho27ANPr78fURSv12OljBunRw6boFLEhRcNRNuwi3RdNKzpkCbfrRTiccQdu7ZrFpToao1itJ6x8yZ6u5qvrf6v9et7WYZ3hd7DxrEtwWlm/bBm3M44N7vbXxlG3aWXuz4X29XAsO65tse0vva/chuvqC5kr8ugi+HTsu6D2DnUDUhPpyuRdiGoxtEkcMzexlqWGRzj2bunxnlNSPMfQKBHohT2vauTiYpcqxTueu5jHIsrxjSzz6y7rs431DD83naumtk+eg2o79Gc9TIq5/UJwHrpfieN7FTwnrOOJFXQ/twxh62TbqO3o7XP5PlDGpRSoi1WR927se+qbePP+ubauZ50XZz56D8WlyeWoK0pvwcfH/iXKiqfqFMNwjLEF6fPnz6n/iQjmAtvEyRjxRDcZ9TmqIYWlftYXqIa/J/Xi3tZGMb/6FlV8Khskqfm7XmATXBdPA9rWAavMcX1ii8UFL+q1Lknbex3ZEt0ADSrXIpdv1HG1BRduXEjs2yKPiYV3paMNgRhe7Q/dbLQ2ijQjR2TkjsQ46dp3SivWi5l7GlY6LqBi3VXViVu9aXzLcjv2iZ0TyZtdIUsE2kXYyrY4j0VCxzeb5HqqL1Zw3evFSsrAF/bdkt/BhR3GeMEi7BSuKTG/V4IK5OIGRzYQDM7f+G65n1txfB/F2svib0/FbN1P2ZRyHXWmTCu7FmOHT8PV4/8SF4+Yr9JGFE3Ax0W/GaT3fBTArsMvqM+JMepX5RdMfZnEFydSwPY2+1EdofWvalwh7i6zWdyb+Lr0oWWVZdzW9eqiF63eNTUVqFQ7UHzp14m7dlsbAJGLaRJf+2AphlH9EGiybos4JtYLcVh7ASPn7qmpCztOsSR7HLvbu8RerIZtl6kiY7Fv17uE6Tw6Z9wZxb+5MDj2T3QBXy2sp6YswVBtNcLqcMMb6iW//fF8r8T8V4px5Pxty3V8t8LE8X00VVQm/P2j1OVtoJZ2H34RH57ai0vHLMKssmWoGvcXKC0ZhzPnTuDX7/wz/uuPbThflHiO2qSKCG0B23pH68VC+ZROxFyHcXcZVtybMUmsS18X2m0jd6NHVqhm7IvWix65PBXIxJe+w/El394rgp4Hxg25LEYTqxyzEZpxp28WxRnP0iYqhePY7YdxHQxdgNWFMNBku1CH5NM5E1uvOmDZNLj2T2QBOE9tSZUqeSpEyLMIq1pIYfvj+l4Z87cH3HjE933sVhcQyoW8DtQDOI1t7zyGj07txwWlV6ggfezM23jlwPfwzvHf6bFSZwRsXRy+LlpReEg+nbS5XhdZjOq8KAXrwMxO140ZjHpCX0Dsb1n9IIc7yg2N+jL7I3SZeHou1r5rXd+CPrMRTZXxSFbYxTJOvNBFN9T3TzzbH/V7lfTTArG/j5RbKQfqEZNmYNL821Fe/4Ctm7Lwaxg2arweK3njR5ZjzPBQozFZ7H3x6I/rvnQy6iTD7opdVOWq7DCCnK6LDl7OXEKwDszR2Uu3dbqsN6v2h6ofzIAo5pFMo59ExNx33e3o0kWSRgOsFriUeseUT+eMVGHUVeSNfNs/2RbP9sfzvUqW6/dRG+rHJ5dSCtTHerbhyJudwPlzGD7uAltXPKIUx3p/hQ+2PavHTtyk0stw7RTjpzB/+/5TeKf/tygqKsaVk+vxqal/geHF6fkta5PKGQZFqxON9SIGt2LmZB8NS2VdMknXm4ngtcoMqCqwyRK8BO7Iu/2oldnlqI9/JFuvmuq+C9UDrhPjRi62NGXyOKXznNLzyrp8PY8TYbbFsIp33VPY/ni+V8l89yKJ9n3s7Yly/lOmpBSoj+7cir1P/Q12PnJHxG5301fQv/d1PXbiLhh1BfrPvo9XDn4PB4/+P/zmvR/j7f7fqGFTyj6OBTO+pXLciZGtLiM8luNtVnWg1hdAGMWeDWhz3Fl6m+VjI5He6BTSqr6RDZa3+cj6Vj/EIuy6e9SzuLFyN6msS0aYrUvDXnFoBja/oxWs2O/BdRefnUXdRuWdUa+u94n1gmNsp+5JUMr7rtV4VMsT9txxuISW5XbsXdLjPqfiIOtUIweMzMq78zhhsnjY+ahd/Oue/PbH870KjWMvurZ83yKeWzG+j4pxIxHvy2covXJeR3311VfbuqlTjcex3vjocWz/4Fn88uDD6D/zvkqTj2L95t0fq9be0qiSSSpgJ04+CmGp55Gdv0K9JtNW1CrvLM1HICzjGo8xxHj3cGtj8LENY7o2VDTJlp16eFArGvWjU2o8xxcmKJV1SZml7srs2mrQJV8r6mi9qshHa8Q22evT/BBRLjSuvJhY5qe2IzgvsU/M4jc9fHlvffJ11CnvO10tEk9uL6FluR17l/S4z6nYVH1onNU8aZXT8zgdRDCt78Vy67pXi7R41z3Fa0rM75UcRz/KaBsn2K7C5dyK+n2UjJKb7DdAJCktv56VDLFc1NXVoaSkRKeIu4biYrz++uuqO3HiBE6fPq2HhJPF35eOt+cldh7egh7REVEsMjcuA31+/aBIPkv2B0KSJRtUhgfM3FDbXtOVF+syFOUsR93X14cf/ehH+MEPfhDs1q1bh0AgoH6sI1qQluSjWWbOWua03z3+O7x9zCgWJ6JYjMeB+P7mfKXbZORFnbAu9o7aPoMyKedF36mQwbr7Dz/FywcexK/e+WccO/OuHkJEsXT7VxlFsG7VLZQ76pfN3F+sk02q/lycKcEGo5R1OSv6JiIaTDJf9G1URxiNJuVPy9rfgEZDFwM1ERFRHhvURd9ERESFjoGaiIgojzFQExER5TEGaiIiojzGQE1ERJTHGKiJiIjyGB/PEsaOGYOPVVVh8uTJqv+9995D3969eFf8JyIiyqUhHagXLFiAv/iLv8BVV16pU+x++8Yb6HrxRfxLW1vMV5oSERFlQsYD9fTp03HgwAHdlx9mejz473/7t/jkJz6hU6LbuXMn/n7NGuzevVunEBERZUfG66ivv/563Hvvvbov92SQfvzxx+MO0tIVV1yBDf/n/6gcOBERUTZlpTGZ1+vFrbfeqvtyZ8aMGSpIy7roo0eP4syZM3qIu7Nnz6pxy8rK8D+/+11cdtlleggREVHmZa3V9/Lly3MerP/7t74VbDDW3NyM2htvxP/+3/9b/azm3r4+/OIXv8DLL7+sirhlcH7iiSew6POfx/1/93dqGhmsH3n4YYwYMUL1FzL5AwQ9Pc3g7yoREeVW1gL1z3/+85wG64ULF+Laa6/VfVCB+fjx4/ixCMYyYMtc/6r77sPqv/kb3HHnnai54Qb8SATxDz/8EHv37tVTAVMvvhhfSmEbjADYE9aFfmlQ/oKOSOuM43eCvc1i2k743Eas8qHTNu9c8aJZbWe6A38C+4qIaJDKWqBuamrKabCur6/XnwwTJkzQn2KbNm2a/mS4/fbb9adEGMHK+Jm8SlRaO18A1QujhTBj2kH7s8HehagWN0Z9qEbUzYxqkO8DIqIkZTxQFxUV6U9GsN60aZMK1suWLdOpmSeLrP/k4x/XfVDPR8si7ni98cYb+P1//ZfuM+q6P/axj+m+eMgg40d1wCcCc4Tfsm1tRGWjmdoNf60I3rV+8UmrqkSF/jj4iFzv8mr0da1CUwCoXp5k7jfiPoiwr4iICkzGA/X58/anvzZu3Khy1kuXLsXixYt1amb9yZ/8CYYNG6b7gBdeeEEVe8dLNij793/7N91ncOayo6nyLRd5yQB8wWA8hFTVocbTh672brR2iEjtqUEdy6mJiOKWtaJvq82bN6O/v18F60QCXrLMBmSm/fv360/x2+eYZsb06fpTLF6sbPAAgY7wnLQLb3Oo3lV9bmuAmAOq/bKeV3RJl//qOt2w6d3SJT1M1THLLkqdeARVdTXw9HVBxGmgdT1a+jyocY3UzmWJTqxTtH1g3VdWKt06nwj148FpdV2+OW5nhA0Mm1/Sx4CIKDFZD9QTJ07EQw89hOLiYjzwwAM4dOiQHpI9sug6UZckMY2ii2wDHcnlplsbK1FZ34I+8Tng03XaWcuZV8Pfsw5YpZcrOrEqaGiLt67YuEnp62rXRdPdaO/qg6dhZVjQNBq+taGhV1YPmMvzQeTBE9wHRl22v6IF9cH5VMIXkNsS4SbD04A2tYl6XF9AJLWFNe6zz89YLyKibMhqoDaDtMzhyiD91ltv6SGZdeLECf3JkMyz0Jc6ppGtxlOiWmxbcmhJt1z2qMBpm5fZ6VxoKgK+WvgtFcDd/loR9OKsa5aNyER4lcXepu72roiNyrwrxbr2iWBoC8CtaEzwpsTb7Ee1nI+j3rq1sV7l5htWOm8R+tCyyjKuyvWL7Quu4GxUyAKRJuv8El8vIqJkZS1Q5ypIS/+5bZuqZzZ9+lOfwhUiZxSvKRddhBtra3WfYX+q70CXDch0Dk0GvuSJQFNv5vQcnc6FJi+ASAUB23vFXD0VIoRF511YLVZPF3ubutshMtWOVu5eyFHtwTAZxnxCOXgrIzcvFmzPzTvXT4zX0yv+VVTqG5HtkJtb7U+syJ+IKF2yFqhzFaSlo8eO4U3LMmXDsn/4h3+IK1jLYnI57tixY3UK8Mc//jH+HHV3D4zr/lC7yhtBUxUt23L6bZBV9iJLHgp8WWrV3q0icKKMluW+gKXkgvXTRJRFWQvUuQrSps4XXlD///Vf/xUPP/wwLr74YvWo2Drx+c477rC9bUwG8ttvu00F6M0/+1nYo1jyjWXx/5pWK4zGznVJFm0PTsGW7s5cvuxUTj9ao7LMqKpM/nZA1ZOb617t50tWiChrshKoZQvvXAZpSf5U5ZtvvokvfvGLOHDwIP5OrI8sDv/TP/1T9dYya+CV6RdeeCFuqKmxPdYlydy0nFciWteLi7vIWa7Ledmps1jXZNTDhqtAeEFAFepqZKVttFbsMcbRxd/Bm5eIxeHJiHZTFM96x6Hbj1pZV8HHzIgoSzIeqE+ePIk1a9bkNEhLMvh+5zvfUT/E8Z1vfxu//vWvseyuu9TPV8rXhjpFKtqW83jQ70/8t6n1xV22Jg4vNq1CzIxeGovPjWeZGxBqUyVbNftF7jcSWdxrf6zJ2yyLrmM8E66enZYx0W2cbvjl20+CwU73y5yqbf940Wz2x7kPzJuiNkeON671jsiyDlrEunciogzJeKCWLzfJdZA2yeC74mtfQ0lJCX7wgx+o38p+77339NDoZJCWufBXXnlFpyRINR6rR0uFCEZhdbaOlsdhWtFoBvpU60jFetS39IWeRxbLr2iSLaL1cBsR2Op7sdyyvv5qWZwd4e1qFqoFt0tDtKDWDjGGpRW22j8+BGSwDi7Pj9BM4twH8qZI7mfY68aNx6uir7cr2zrpefFtaESUJUUej8f+6jDtkksuUf/3pdq6OQ/Jx7O+/9BDweepv/M//geee+459dl0yy23YM3f/736LIu7/9c//ENCrx0lIiJKh6w1Jssn8mcsb7v9dhWg5VvKBgYG9JAQGZxlJxuefeGLX2SQJiKinBiSOWoiIqLBYkjmqImIiAYLBmoiIqI8xkBNRESUxxioiYiI8hgDNRERUR5joCYiIspjDNRERER5jIGaiIgojzFQExER5TEGaiIiojyW8VeIyl+oOnDggO7LjWuumoZNaxejbNRwnRLZ9j1/wNe+8xx27/tApxAREeVWxgP10qVLMXLkSGzYsEGnZN837pmPb/zZfGx746BOiWxO5UU4eeoMNv7rGzolsuMnz2DDM7/B2YFzOoWIiCgzshKoly1bhqamJvXb1LlgBupHfrxVp0T2mU/MxKc/frHui87/+H/gn372K91HRESUGVkL1FKugrUZqOPx+u/fxsv/uVf3RWYG/UeeiB74M8nb3AN/RQvqa/3o1mlERFR4staYTAbo5cuX49Zbb9Up2SeLvqN1na/uiRmkk1cFX2cPenrsXaevSg/PJb1unT7xKcuqfOgU+6HZq/uJiMgma4HazE3nMlhvfX1f1O7Nne/qMdPM2yyCchtquupRWVkZ6nwBPUI2edGc94FxMKwjEVF2ZDxQFxUV6U9GsN60aZMK1mZxeOETudXl1UDAh1q/o5C6tTE8LdOqKlGhP4Z0w18rbhzypRg94joSEQ1NGQ/U58/bq8A3btyoctay7nrx4sU6tZDNRoVHfyQiIkpQTl54snnzZvT396tgPW3aNJ1aqFrRIUu4q5cj3upo2VDMXpfdjOilwLqOOays2J6u5tvWAHnfUO3X87YOi1BHHc+6BKfV9c3muMnUv0dbR8WxDOc6V/k6RbpcR6P4PDieOQ/n9GH7LMI2RxiHiChbsh6oJ06ciIceegjFxcV44IEHcOjQIT2kcLU2+hAQoaehTVz0ozbYMoKLas1tqcv2Barh7+mMO9C7aW0U86tvQZ/4HPDp+Te2GgPDJLgunga0rQNWmeP6xBY3tCVczxx1HWWQFUEcLWZdfz1aIJYbthC5jgvRYa6LnF+1H52dIoi3VaDJmR7cGOPGxr7N8tgREeVOVgO1GaQnT56sgvRbb72lhxS6VjSKi359iwg/MqDJXFrE3Ksf1X3hj1y1NoqA1CcC/crs5ewSX5c+tKyyjNu6XownQubCdK2zCKLrRE7bVtffDX+TCKNhpRViXeobxV7Xuv2Qo3lENj1iek2dPhZGNUWgybrN4ti53swQEWVe1gL10A3SId3+WpVLCwVsa87Ui4XVIsR0tdsCo6Eb7V0q6omxsiGJdenrQrtt5G709Ip/FZVRShASUFWHGhlEOxxBc3uvCMseVMzW/Uovehwrvr1XrLNbuqdChGjVB9lb7U+99IKIKF2yFqiHepC2MgK2Lg5fF60oPKRbRb38kMt1CdZbm52uz04Po/W7L6CrKeT8WT9NRDmWtUDNIO3UivUqZ23m5qKrqsyfB5ZyuS7BemtHl87SaVVPLuer67CjtysgIsqsrARq2cKbQTrcbNtzW0br8FB9qVUV6oxy31D9qo1bMXOyj4alsi4Z0t0Oo8Q9izncbj9q5UtpPDWoY6QmohzJeKA+efIk1qxZk9MgPXDOeJZbvqM7HZ1kzjM22Xo6wuNV3mb4ZT1wy/pgwGtdL3Jwsu7akYPzNrehwROAL0q2sVVF1gaE2njJFsx+iEXYdffAiOnRI08q65KyiOtoNhzzO1qSi/2bthyvmJejqNtrVNY76t+JiLIn4z/KUVJSgoGBAd2XG6PLRuDexZ9ASXHoLWmpkEF6w7/8Bv3HT+uUaGSgjhAwVcvkWoS/mEwGWBkMda8UofW1fNbX+aMc8hniNsuEAV89epeLefX67I9hyVeayrsEKWAMizS/VNZFcku30Y9c9focxdcR1lGxpmuyONwcbOyDXvgqLa27hfjSIxyrCNtLRJRNGQ/URERElLysNSYjIiKixDFQExER5TEGaiIiojzGQE1ERJTHGKiJiIjyGAM1ERFRHmOgJiIiymMM1ERERHmMgZqIiCiPMVATERHlMQZqIiKiPMZATURElMeGxI9yXHPVNGxauxhlo4brlMi27/kDvvad57B73wc6hYiIKLeGRKD+xj3G70hve+OgTolsTuVFOHnqDDb+6xs6JbLjJ89gwzO/wdmBczqFiIgoM4ZUoH7kx1t1SmSf+cRMfPrjF+u+6PyP/wf+6We/0n1ERESZkReBeuLEiTh8+LDuSz8zUMfj9d+/jZf/c6/ui8wM+o88ET3wExERpSrnjcluvfVWfP7zn9d9mSWLvqN1na/uiRmkiYiIsimngVoG6eXLl+u+zNv6+r6o3Zs739VjEhER5YecBepsB2kiIqLBKCeBmkGaiIgoPlkP1EM1SHube9DTY+mavXqIHtbpQ5W32RgmP+thEJ98nZbpHNMSEVFhy2qgXrZsWcQgXVRUpD8VIiPQ+itaUF9ZiUrV+RDQQ4M8DWhb2GEMr/WjW6ZV+dDZ04aGXp+ezmVaIiIqWFkL1DJIL126VPcNJbNR4QECTTr4Kq1obGzVn00B+Bxp3pUN8PSJAG9LjzQtEREVqqwE6qEbpKXt6O0Dqv2d8IXKs8P19YoxrbxYWO0M8ERENNRkPFDLOulYQfr8+YjvXCkQ3fDXVsIX8KChLYE65qpKVOiPREQ0dGU0UMs3jo0ePRobN26M2nV3F36esbVR1zHXt6Cv2u9oMEZERBRZRgO1fC3opk2bYna/+93v9BRDQLcftb4A4KlBXbRI3d2OLllkvpAtvImIhrIh8aMcX79rHr5573W6Lz3+ccOr+OFTr+m+aLxoboatAZh8HEu1Atetu539QfJxLb+sqPahMjh9+PyIiKhwDYlAPbpsBO5d/AmUFKfnMbCBc+ex4V9+g/7jp3VKNCKw9vghwm2IbMltCcqugVoJnz7gqwTjNBHR0DAkAjUREdFglbXnqImIiChxDNRERER5jIGaiIgojzFQExER5TEGaiIiojzGQE1ERJTHGKiJiIjyGAM1ERFRHmOgJiIiymMM1ERERHmMgZqIiCiPMVATERHlsYL6UY7p06fjwIEDui83rrlqGjatXYyyUcN1SmTb9/wBX/vOc9i97wOdQkREFK6gAvXSpUsxcuRIbNiwQadk3zfumY9v/Nl8bHvjoE6JbE7lRTh56gw2/usbOiWy4yfPYMMzv8HZgXM6hYiIhpKCC9TLli1DU1MTfv7zn+vU7DID9SM/3qpTIvvMJ2bi0x+/WPdF53/8P/BPP/uV7iMioqGkIAO1lKtgbQbqeLz++7fx8n/u1X2RmUH/kSeiB34iIipMBdmYTAbo5cuX49Zbb9Up2SeLvqN1na/uiRmkE+ZtRk9PT8Su2avHyQtV8HWK9er0iU9ERBRNQQZqMzedy2C99fV9Ubs3d76rx0y3PrTUV6Ky0t41turBWedFc97dKBARDR4FFaiLior0JyNYb9q0SQVrsziccqCqEhX6Y0g3/LXiBqLWLz4REVE0BRWoz5+3V7dv3LhR5axl3fXixYt1KhER0eBR8C882bx5M/r7+1WwnjZtmk4dqnTdcFg5dHi6t1nXIVf50Gmp6+70RapV1tNbxpPzUvNoa4BHjFHtD6VLwfmrvhCVbp1PTzOca5vIuoXNj2XwRDTIFHSgnjhxIh566CEUFxfjgQcewKFDh/QQiounAW3rgFVmXbcvIJLa7PXNKli2oaHXZ6kT9yEgBrU2is/1LegTnwM+Pcy1styoy/ZXtKA+OJ9K+ALV8Pd0IiwGx1w34+bBPj9jvYiIBpOCDdRmkJ48ebIK0m+99ZYeUug8aGhz5CKTbl3dh5ZVlnrk1vVoEVG3emEoUntXihxznwiGtgDcisYEW695m/2olvNx1Fu3NtaLZYptWunMCcdat9moEFn5QJN1fomvFxFRrhVkoB66QVqK0Oo72UZbfV1ot03YjZ5e8a+iUgd+LxZWO4NhMoz59HW1R5hPN9q7VAS2F4HHXLft6JWT+SPkxomIBpGCDNRDN0hnWcQW3enXrSJwooyW5b6ApYSB9dNENAgVZKBmkC4sVZXJ3w6oenJZqiDryqv9fMkKEQ06BReoZQtvBmk3zuJhk1Gfm7Dudhil0qnmVFvREQA8NXURgmgV6mpkZXOHGCsF3X7U+tRCUMdITUSDSEEF6pMnT2LNmjU5DdID54xnueU7utPRSeY806FVRcQGhNpmydbRflTrvsR0w98k5idzqrZiZS+azf7uHhj3BtGjY+t6keOVLbkdOV5vcxsaPAH4Em4EZlkHzWtUhDvqtomI8ltB/ShHSUkJBgYGdF9ujC4bgXsXfwIlxaG3pKVCBukN//Ib9B8/rVOikO/69legpb4W/ijBqMrXibaGUBY64KtH73L9iJUOiPL5Y/Vok6MhWuR0+WiVPdjLx7GCsVWtlx4aMJYReT7ypkEGZt0rRWgJHt+6ha9TpHkREeW7ggrUREREhaYgG5MREREVCgZqIiKiPMZATURElMcYqImIiPIYAzUREVEeY6AmIiLKYzEfz/rkJz+p/hMREVH2xRWojx49qjoiIiLKrrgC9dtvv41Dhw6pfiIiIsoe1lETERHlMeaoM+SKK67Axz/+cd2Xut/97nfYuXOn7iMioqGCgTpDnnjiCZSWluq+1MlfBrvnnnt0HxERDRUFFainTJmCd999V/fl1s9+9jP827/9G5577jmdkrxbbrkFN998M26//XadQkREQ0VB1VF/+tOfRn19ve4jIiIa/AquMdnnPvc53HDDDbqPiIhocCuoom9ZRFxXV6c+b968GS+++KL6nKziYcMxcsplGDvrMygqKUH/nt/g2O5f6aHR/eQnP0GJmCZdBgYG8OUvf1n3DV6L/C9i9Vz5aRvW3uDDFpVKRERuCjJQywAtc9UpBeviEkyougFTapejpHQ0zp05CYg99cfXWvH+K5v0SO5WrVqFEydO4PDhwzh37pxKKyoqUl2iJk6ciFGjRmHdunU6xcWsr+LJR5egXPdaHXxmBe5+bIfuy41ZX30Sjy45YAnQs/DVJx/FEjyDFXc/hoTXbpEfL8qofzD29OYNwra1N8A3aO4OFsH/4mrMTctNTYr7mohypiCfozYD9G233ZZ0MfjISeUYM/ManHqvF7ubvoI9//w1HNvza0y8epEK3LH813/9l8pVy0Zlra2tqpPrJfvl/2effVY1Nvv3f//3mF1vby/GjRun5xzLQTyz4ga13aFuLQ4seVTtE/8iPVrWzULNfHELse2V9Oeiy5fgnmjbJW5g7lS5+FTIoBlp/7mlp8GiBZh78KA4onOxIGfHjYhyraACtTW3KoOhbHEtg7VZHJ6IklHjUDRiFE79cT9O/WEfBo4fwfF93WIhxSK9TI/l7vnnn8eZMdNQ/qW/xWXL/wmz7tuMij//ES5e9HWMufxanD59Gv39/apIO/O2wCcC9tptwNzVT+Krs3RyDhzcv0d/knbgsbvFjURKOTwRyA6K7YoSyWbVzEe5CngpmDUT0/VHG7f0lIkcsLi7OLj1QTwtj9udXxUpqUjHviaiXCioQH3+vL0Uv729XeUiZZH4jTfeqFNjk0F65AUeDJ8wBaUXejDxmkWY8PFajCq/CsUiNz3uivkoHu7+jHSxCPCeZd9XAVrmwEdNm42T7/Vh9CUfx+R5XjVsxm3/Q8xrnCoeN4vGM22Lby22oRxLomY/B5+tW1Ukc7kBWYR7lpSLgLcVB3TKoDCrBvPLD2Jr1w5seUVsX/l81OTwBouIcqcgi76tZM5WBkOZq77wwgt1anQTRGCe+vmvo2z6HIy+9FMov/VvcfHNq0TAvgnDRk/E1IUrcNH1f6bHths2ZhIuX96MMZd9Ch9sa8PAySM489E7ePu5tThx4C2cPzeAP776M4ytnIfKrz+BkrEXqPVz3mRkxhbIa77IforwZSHrtsUNjbypUd2T4bk3WccbHC47W1mvrP+MMlzWJb/4KES8RLkugjeHq/nGs7wX/fZ1tup6Rd2AzI8UyWTxsRj69GN7dUK4WMtSw3Xd/9zVehyx/m7pwf1h20eSW3o4oxRgK0ScFoftCTxzMPL2yXp/Y33Dj4FzMW77mojyW0EHalmvu3r1ahQXF2P9+vV4//339ZDoSkaW4fT7+3DwWT92/GO9revd8Fc42/8BikpH6bHtLr7p6xg+SeTg2r6Lk+/2oETkmv+4tVUF6Pd/+VMUFZfg3Onj2PdTn8iVl6H8lm+qHLUsCs+GPfsdBcC6ARqeWaHrs1fgGSzBo8GrvBEAVk9/Bissdd4y3gctugfzt5rT6+FzV+NJM4u7xSfSxHzFomWjNjWOa4suo87XvjxZbD8Xq190K7bfgifEzMuX3OMI5mLdZeW0a714fMva4hPpK55RReeyMZq5/m7pqTNLAbp0MfUOdG2NtH0mub73Aw/qdRDdCrE/5M1DHPcERJTnCjZQm0F6woQJKkjv2rVLD8mcsks+jvFVN6g67VHTrsSkebepAD184sW4YP7tGD3jYxg41Y8Jn7gZYy+fK8brxdhZ16nW5WfPns1SrlqajpkqCIlAdr/IEW5ba2kRvgOPGZWiOlBdihmyDdjT1rrNLfBZA5IIxPYW5UbOvXx+TcK5t0X+1ZgboRX3Fp8M9O7F9ju6toY3utLFx8884RKmk1xWxqlSAKPY2xRx+yy2rb0b1kOw47G7jTYJKddtE1GuFWSgzkWQlsbPuV79L72oApOvu139lznoyXOXqH7ZlYwcjeHjLlKfZTCXxl55vcpVZ6dhmXQAe+VFXQUymeF0BLI9+0VQKMeMS1UPZCY8diM0e9Gr8ax0ohZhgXzaKpiTtDJylWHF9qYdj4U1ulp0j7wJedoWwEJSWFaGLTJWzCj2Nu3ogrFKkdZoG5yHUFKlJ+UzxK0WEQ1mBRmocxGkpbKZV6N/35uqiHxP81+qtHee/6Gt6PzAM99W6fuevl/1H37930XArlRp2QjUl8rs8cH9IvyGBOtXzc72LLbRWnjtNpHDfFQPd5SnGnW8j9qKv2VuLt127I3eHGzLE8/goNnoSj+SFXYTEqdYy8oc4wZCPnL2qPWY6Dp+90ZzRFSoCjJQpyNIj5g4DRM/eYuqc7Z2F/zpMhSPGKPHshs2aiyKi/UjYkV61563t+g+ZwbjYmP4uRNHxbJCYTGjdPBy5iKD9auOzl66rdNlnezc1aFGSWZAFPPI9AtVZs2M8SCUynUaRdZGY6xn4FLqHVPMZWXIrK/eqRq/rXUci+C+d2s0R0QFq+ACtWxBnWqQ7t/7WxzZ8QucF0G1pGyCrSsePhLH93fjw9926LFdmAHaDNguikaWYeDER7ovk3R9tAheD5oBNWpxqosdj+FumV2O+rjQLCQX56LVbcfzwpRQ/fr9YtzIxdqmVJcVzQ6oDPn0mY55G/X97mIsVx+v8HU22xxYZfAFM0SUVQUVqE+dOoUf/ehHKRd39/e+joM//wf0/vivI3b7fnq/etTKqX/v7zBq+hzM+mYbLm18XKVNFblw2W92l9z+XZUu/8v+SZ+sw8n3+1SabJ2eEerxq0ivjzQD22pH6+BF8Acf4xGfnUXd1jrUHXvV88nWYL/Ir4tpk2AUXy/Bo47HiIx5ipxmrFbVW4xHtcrFuE/HyOEntCy9ndOdEdElfYu6C7C+MU3W4cvXgVrpev1g6YRLm4EgfbzCbpJktYTzkbI49xcR5b2CCtSyLi+bddJOH3W/oP6fOPRf6lnp04cPqneEy89md7b/sOrk5/69r6vxP/rt8+oHPP6//+//w3XXXRfWTZ+eSPbUUpdsdo/Ox1b5WtFIb6WSj06JHLK9nno1RJQLjSuLui3zU48zBee1BT6zOFwPv3P/iuTrqGWO3XxEzLnMuN53bTyqFVdOMqFlie0UG+V8Dtw1XexX8xEpY76PYsbTxiNqblTjN5eGYUH6RsTeIl0E5BX7cadef7UNc2XxOX/0hKgQFNSPcuSabOE9s+EHGDX1CvWctHyr2dRFf41D//d7ONqzDSMvnImZdz+M93/xExz9r//AJV/+Xzg/cBY7f3Anrq6agy984Qt6TuH27duHlpYW3UdkCP+hEyIqNAzUaTZs3IW4/C+bUTxsJP7wy6cx+brbcObIH9H31Dcx7QvfUm8se++lf8bka5eguLQMux5vxOk/7NNTEyWGgZqo8BVcY7JcO3vkfez+p79UP+ZxUc1fqDeTyeepZYvxsZVzVa57yg3Lce5UP/Y+cR+DNBERRcVAnQFnPnwHe5q/igNt/xPHdv9KvZ1s3JzP4tyZE6oI/O1/fwQ9//seHN8f3iCNiIjIikXfREREeSyuQH306FHVERERUXbFFaiJiIgoN1hHTURElMdY9E1ERJTH2JiMiIgoj7Hom4iIKI8xUBMREeUxBmoiIqI8VlB11FOmTMG7776r+3JD/tLV0qVLUVpaqlNSc/LkSWzatAkHDsgfUyQioqGmoAL1LbfcghEjRqCtrU2nZF91dTWuv/56vPbaazolNfPmzcPLL7+MQCCgU4iIaCgpuEBdV1eHzZs3q9/kzQUzUD/88MM6JTX33XcfAzUR0RBWkHXUt912G2644Qbdl7ziYcMxqnw2Lqr5c0y58SvqJyopNYv8L6qbqBdf9GORTqP8o47Tk1/FLN1PRLlTkIFaBoKUg3VxifrFq0vueBAXzPdi4jWfx/T6v8OFC5bqERJTdmEZpn5yKqZdOw3jLhknZm/s+kmzJ+GyusvCPidl1lfxpAqC4d2TX839JVf+dvLquduwVhyXG9TvJ8/CV58U65dsQFjkN7YvjunNGwT/oLo7WAS/On65vqlJ8TglJJvLIhocCjJQm0XfqQTrkZPKMWbmNTj1Xi92N30Fe/75azi259eYePUilJSO1mPFJgPy7Ntn4zMPfgZzGuZg1p2zMPfv5mLEhBFq+MTKibi07tKwz8k7iGdWyEBo7dbiwJJHcxyoZqFmfjmw7RURoNOsfAnuibZd4gbmzrn6c9KMoBm+/9zS02DRAsw9eFAc0blYkNtInSEZ3HdEBaSgAnVRUZH+ZATr5557TgVrWW+dqJJR41A0YhRO/XE/Tv1hHwaOH8Hxfd1iIcUivUyPFdvl9ZdjevV0vPXEW3jxr17ES6tewtbvbMXZ/rO48Z9uDAZm5+eUctZhtsAnAvbabcDc1U8il5nrg/v36E/SDjx2t7iRuPsx8SlZIpAdFNsVJZLNqpmPchXwUjBrJqbrjzZu6SkTOUtxd3Fw64N4Wh63O3OZw0zHcYog4r7L0LKIBrGCCtTnz9vbxbW3t6tcpGxkduONN+rU2GSQHnmBB8MnTEHphR5MvGYRJny8FqPKr0KxyE2Pu2I+iofHfvyqdHIpLrnhEux5bg8O/TLUGO/YwWM4e/Is9rTvwQc7PlBpzs+Hew6rz+m0xbcW21COJVGzn4PP1q0qkrncgCzCPUvKRcDbikH1gNusGswvP4itXTuw5RWxfeXzUcOyYKIhqSCLvq2ef/55nDhxQuWqL7zwQp0a3QQRmKd+/usomz4Hoy/9FMpv/VtcfPMqEbBvwrDREzF14QpcdP2f6bHdjZ85XmTAi/DuryM/2727fTc+3PlhxM8fbDeCdnptgbzmi+ynvc7TWbcdoX4w1AhMd7bySl2v6DZc1SU/ChEvUa6L4M3hbo2WwpYXrZ626xV1AzI/UiSTxcdi6NOP7dUJ4WItSw1/dIlYgiyR0OOI9XdLD+4P2z6S3NLDGaUAWyHitDhsT+CZg5G3T9b7G+sbfgyci0lkXKfIxynacY82zH2fBocleU4Ep3Wc0/nQRoMoWQUdqMeNG4fVq1ejuLgY69evx/vvv6+HRFcysgyn39+Hg8/6seMf621d74a/wtn+D1BUOkqP7a6ktET9HzgzoP47Za/oO2TPfkcBsLygiQsmnlmh67NX4BkswaOOC+7q6c9ghaXOW8b7oEX3YP5Wc3o9fO7q0MVxi0+kifmKRR80l+Nzq6k26i3ty5PF9nOx+kW3YvsteELMvHzJPY4Lt1h3WTntWi8e37K2+ET6imdU0fm2tXo8sf5u6akzSwG6dPHvDnRtjbR9Jrm+9wMP6nUQ3QqxP2QADA/AiYwbhQqE4ubrwNrgfGznRYxzIrF9l+A5US7OX7WJety14jZO3CAmtH1EeaRgA7UZpCdMmKCC9K5du/SQ7Dl9+LT6P+mKSeq/U7aLvkOmY6a6uIlAdr/I1Wxbi7sfM2sEd+Axo1JUXwAvxQzZBuxpa53hFvisF1URiEPTS0bOvXx+TViuKJZF/tWYe1BckB11lFt8MtC7F9vv6NoqLvqORle6+PiZJ1zCdJLLyjhVCmAUe5sibp/FtrV3w3oIdjx2t9EmIULddiLjull0jzhv5L6zBVfLeZHTc0Ic8wct46oSCbF9hdkij4aAggzU+RCkJRl4+w/14/IvXo7RU0MtxUsnlqJkREkOir5NB7BXXsVUIBMX7lccgWzPfnGpK8cMlcHfA5kJj90IzV7UuTqpVtaLsEBMF8pJWhm5yrBie9OOx8IaXalgsu1pW1AKSWFZGbbIWDGj2Nu0owvGKkVao21wHkJJlZ6UzxC3WlaJjOvG2Hf2m7dIcnROOPedGG+vbKAwfabRSzTIFGSgzocgLZ0bOIc3N7ypPs9fMx/X/vdrcd23r8OC7y3A8LHDVboMyi985YWwz5lyqcweH9wvwm9IsI7Q7HTdocFohbt2m8i5PKqHO8oQjbrDR21FnTKHlm471NXW3ZYnnsFBs9GVfiQr7CYkTrGWlTlGYFLFt9Zjouv43RvNZVEcLd3z5ZwgKgQFGajTEaRHTJyGiZ+8BRff9HVbd8GfLkPxiDF6rNiO7DuCV7/9Kn6/8ff441t/xIH/OIBt/m04/aFRLJ5VOng5cyfBOkJHZy/d1umyXnHu6lBjHzMginnYizrTb9bMGOFB5TqNolCjMdYzcCn1jinmsjJk1lfvhGz8ZrwUxtGpOl2XRnP5JJ/OCaICUHCBWrbwTjVI9+/9LY7s+AXODwygpGyCrSsePhLH93fjw9926LFjk49iycezZI55X9c+HNl7ROW2s0vXR4vg9aB58YxanOpix2O4W2aNoj4uNAvJXT+j1WPG88KUUP36/WLcyMWlplSXFU2oqNU+b6O+312M5erjFb7OZpsDK7d5JTKui2TOG7GM3JwTRINfQQXqU6dO4Uc/+lHKxd39va/j4M//Ab0//uuI3b6f3o8TB97SYw8CZgtdOBvkmIFttaNF7CL4g4/HiM/Oom5rHeqOver5ZOtFe5FfF9MmwSi+XoJHHY/nGPMUOU3XlsHaFuNRrXIx7tMxcnMJLUtv53RnlHNJ36Kii/WNabK+drXILVvpOtxg6YRLm4EgfbzCbpJktYTzkTK3/ZXIuG5C5429GkSfK/GeE2771CHlc4JokCuoQC3r8nJZJ2113XXXpaVLnKUu2ewenY+t8rWikd72JB+dEjlkez31aogoFxpXXpAt81OPyQTntQU+szhcD79z/4rk6yNljt18RMy5TPV+8FiMR7XiymUltCyxnWKjnM+Bu6aL/Wo+9mTM91HMeFq2UjYGR6Iav7k09grSNyL2ls4iWK3Yjzv1+qttUO9Uj7S/Ehk3CvXInfHIlTkfdd6olY/3nHDbpw4pnxNEg1tB/cxlPrjsssvw5S9/WT27nQ7nzp3DT37yE+zevVunEIXIl5g8uuRAXIE2kXGJKH8wUBMNYgzURIWvIFt9ExERFQoGaiIiojzGom8iIqI8FlegPnr0qOqIiIgou+IK1ERERJQbrKMmIiLKYyz6JiIiymNsTEZERJTHWPRNRESUxxioiYiI8hgDNRERUR4rqDrqKVOm4N1339V9uTF9+nQsXboUpaWlOiU1J0+exKZNm3DggPxBQCIiGmoKKlDfcsstGDFiBNra2nRK9lVXV+P666/Ha6+9plNSM2/ePLz88ssIBAI6hYiIhpKCC9R1dXXYvHmz+r3aXDAD9cMPP6xTUnPfffcxUBMRDWEFWUd922234YYbbtB9ySseNhyjymfjopo/x5Qbv4Ixl31KD6FkLfKbP/zvxyKdRkRE7goyUMtAkHKwLi7BuDmfxSV3PIgL5nsx8ZrPY3r93+HCBUv1CIkpu7AMUz85FdOunYZxl4wTszd2/aTZk3BZ3WVhn5My66t4UgXB8O7Jr87SI+WO/D3k1XO3Ya04Ljeo30Seha8+Kdbvya+KT0lY5De2L47pzRsEf77fHeT5MYwtxWNKRGEKMlCbRd+pBOuRk8oxZuY1OPVeL3Y3fQV7/vlrOLbn15h49SKUlI7WY8UmA/Ls22fjMw9+BnMa5mDWnbMw9+/mYsSEEWr4xMqJuLTu0rDPyTuIZ1bIQGjt1uLAkkfVPsldoJqFmvnlwLZXRIBOs/IluCfadongd+dc/Tlpi+CPuP/c0lORr8eQiHKhoAJ1UVGR/mQE6+eee04Fa1lvnaiSUeNQNGIUTv1xP079YR8Gjh/B8X3dYiHFIr1MjxXb5fWXY3r1dLz1xFt48a9exEurXsLW72zF2f6zuPGfbgwGZufnlHLWYbbAJy72a7cBc1c/iVxmzA7u36M/STvw2N0iCN39mPiUrIM4eFBs1wL36DWrZj7KxUhitOTNmonp+qONW3ra5c8xjC4dx5SIrAoqUJ8/b28X197ernIgspHZjTfeqFNjk0F65AUeDJ8wBaUXejDxmkWY8PFajCq/CsUiNz3uivkoHh778avSyaW45IZLsOe5PTj0y1BjvGMHj+HsybPY074HH+z4QKU5Px/uOaw+p9MW31psQzmWRM1+Dj5bt8rodadL8FqEe5aU4+DWrSiEB9wK9RgSkbuCLPq2ev7553HixAmVq77wwgt1anQTRGCe+vmvo2z6HIy+9FMov/VvcfHNq0TAvgnDRk/E1IUrcNH1f6bHdjd+5niRAS/Cu7+O/Gz37vbd+HDnhxE/f7DdCNrptQWviJgmsp/2hlzOetEI9YuhRmC6s5W/6npJt+GqLvlRiHiJcl18aw5X841nedEan3W9ooLX/JoIkXrRAswVQ59+bK9OCBdrWWr4o0vEEmRuVo8j1t8tPbg/bPtIcktPhMsxFOLZZ7KdgJFuFNkHxzXXyXkuuG1DlHHUeliOabDfMe/BUedOlHsFHajHjRuH1atXo7i4GOvXr8f777+vh0RXMrIMp9/fh4PP+rHjH+ttXe+Gv8LZ/g9QVDpKj+2upLRE/R84M6D+O2Wv6Dtkz35HAbC8eIpgg2dW6LrQFXgGS/Bo8OJrXJhXT38GKyz1pTJWBC26B/O3mtPr4XNXhy7EW3wiTcxXLPqguRyfW021EUDsy5NFvnOx+kW3It8teELMvHzJPY7AJNZdVk671ovHt6wtPpG+4hlVdL5trR5PrL9beqaFHcOE95lMX4BXzHHlNsjj9aQI4o/OwNPOdOsMYh1rN+XinLofeNCcbq24tRI3bSndsxANEQUbqM0gPWHCBBWkd+3apYdkz+nDp9X/SVdMUv+dsl30HTIdM9V1VQSy+0WOcNta3P2YWaO4A489bS1KvhQzZBuwp611jlvgswYkEYhD00tGrq98fk0wVxWvRf7VmHtQBBxHHecWnwz07kW+O7q2ioA5F7aq6lk1mF9+EM884RKmk1xWfjCPYTLbIRuryVb32o7HIA95uTjOEdOtxzHpYy2W+aBl/bY8oW7corUtICJDQQbqfAjSkgy8/Yf6cfkXL8foqaGW4qUTS1EyoiQHRd+mA9grr5gqkMkMpyOQ7dkvLqvlmKEy+HsgM3CxGzDZi0RXJ9XKehEWiOkObu2yBRzDDnRtVVd2R65Z00Fl7p2WItd75E3I07DFlaAUlpUX9DFMajvMaUOMXLpLevkMcbtmlcSxPrgVXbZ578Be2Whg+swYAZ6ICjJQ50OQls4NnMObG95Un+evmY9r//u1uO7b12HB9xZg+NjhKl0G5Re+8kLY50y5VGaPD+4X4TckWL9qdrre1WC04l27TeTMHtXDI9VJvviorUhUtk5Otx3qyu5uyxPP4GD5fKiqav1IVthNSJxiLSuXIh1DN+nejmwdayIKKchAnY4gPWLiNEz85C24+Kav27oL/nQZikeM0WPFdmTfEbz67Vfx+42/xx/f+iMO/McBbPNvw+kPjWLxrNLBy5n7CtavOjp76bZO1/WWwcZCZkAU87AXiabfrJkxHoTa0YWtuqjXeCTrGbiUescUc1m54nIM3aR1O7J4rIkopOACtWzhnWqQ7t/7WxzZ8QucHxhASdkEW1c8fCSO7+/Gh7/t0GPHJh/Fko9nyRzzvq59OLL3iMptZ5eujxbB60HzIqsCmywZTaCAd8djuFtmocyca0SzkFx8iFbfGc8LU0L16/eLcaMHs1SXFY1bsa5R35+8CMcwo9sRj2SPNRHFq6AC9alTp/CjH/0o5eLu/t7XcfDn/4DeH/91xG7fT+/HiQNv6bEHAZETelI+HgVngyMzsK12tL5dBH/w8Rrx2VnUbVSKGnWOO/aq55OtwX6R33gUKxlG8fUSPOp4ZMuY5zasjdWqeovxqFa5GPfpGLm+hJalt3O62YLL5JK+RUVP6xvTZL3uaog9Z6Hreh3Lj8j1GKZhn8UrzceaiOJTUIFa1p/msk7a6rrrrktLlzhLXXKwznk+tspXUjou8Ip8dErkkO311KsholxoXFnUbZmfegwoOK8t8JnF4Xr4nftXJF9vKXPs5iNizmWq94PHYjyqFVcuMqFlie0UG+V8Dtw1XezXFWI9Qvv1Ucx4WrbCNgZHl+AxTHmfxSvNx5qI4lJQP3OZDy677DJ8+ctfVs9up8O5c+fwk5/8BLt379YpREQ0lDBQExER5bGCbPVNRERUKBioiYiI8hgDNRERUR6Lq4766NGjqiMiIqLsiitQExERUW6w6JuIiCiPxZWjHhgYwPHjx1U/ERERZU9cgfrYsWPYsSPsfUhERESUYSz6JiIiymMM1ERERHmMgZqIiCiPFVQd9ZQpU/Duu+/qvtyYPn06li5ditLSUp2SmpMnT2LTpk04cED+wCAREQ01BRWob7nlFowYMQJtbW06Jfuqq6tx/fXX47XXXtMpqZk3bx5efvllBAIBnUJERENJwQXquro6bN68Wf1Wbi6Ygfrhhx/WKam57777GKiJiIawgqyjvu2223DDDTfovuQVDxuOUeWzcVHNn2PKjV/BmMs+pYdQshb5X1Q3US++6McinUbpxX1MVFgKMlDLi1TKwbq4BOPmfBaX3PEgLpjvxcRrPo/p9X+HCxcs1SMkpuzCMkz95FRMu3Yaxl0yTsze2PWTZk/CZXWXhX1Oyqyv4kl1gQ7vnvzqLD1S7sz66pNYPXcb1orjcsMNPmzBLHz1SbF+T35VfErCIr+xfXFMbwYvf75HLn0Mk13P8H1MRINdQQZqs+g7lWA9clI5xsy8Bqfe68Xupq9gzz9/Dcf2/BoTr16EktLReqzYZECefftsfObBz2BOwxzMunMW5v7dXIyYMEINn1g5EZfWXRr2OXkH8cwKeZG2dmtxYMmjOQ5Us1AzvxzY9kr6g0f5EtwTbbtE8Ltzrv6ctEXwR9x/bum5kMF97CpX259P+50oswoqUBcVFelPRrB+7rnnVLCW9daJKhk1DkUjRuHUH/fj1B/2YeD4ERzf1y0WUizSy/RYsV1efzmmV0/HW0+8hRf/6kW8tOolbP3OVpztP4sb/+nGYGB2fk4pZx1mC3wiYK/dBsxd/SRymbk+uH+P/iTtwGN3ixuJux8Tn5J1EAcPiu1a4H7FnlUzH+ViJDFa8mbNxHT90cYtPYfs+zjDcrX9ebjfiTKloAL1+fP2dnHt7e0qFykbmd144406NTYZpEde4MHwCVNQeqEHE69ZhAkfr8Wo8qtQLHLT466Yj+LhsR+/Kp1ciktuuAR7ntuDQ788pFOBYweP4ezJs9jTvgcf7PhApTk/H+45rD6n0xbfWmxDOZZEzX4OPlu3yjuQO11uQBbhniXlOLh1K/iAGxENRgVZ9G31/PPP48SJEypXfeGFF+rU6CaIwDz1819H2fQ5GH3pp1B+69/i4ptXiYB9E4aNnoipC1fgouv/TI/tbvzM8SIDXoR3fx352e7d7bvx4c4PI37+YLsRtNNrC14RMU1kP0X4snDWbUeo8w01UNKdrcxR1zW7DVd1yY9CxEuU6yJ4c7iabzzLi9YwqusVdQMyvyZCpF60AHPF0Kcf26sTwsValhr+6BKxBFkioccR6++WHtwftn0kuaVHF9xHjuNka3cQzz4Oq9OPcdy0sP1jnW/E7XdbZqL7JfL6uS83/vm77xMhju8DUTYVdKAeN24cVq9ejeLiYqxfvx7vv/++HhJdycgynH5/Hw4+68eOf6y3db0b/gpn+z9AUekoPba7ktIS9X/gzID675S9ou+QPfsdBcDyoiQuenhmha7PXoFnsASPBi9qxkVu9fRnsMJS5y3jfdCiezB/qzm9Hj53dSiQbPGJNDFfseiD5nJ8brWoRt2jfXmy2H4uVr/oVmy/BU+ImZcvuccRzMW6y8pp1zrb+Ja1xSfSVzyjis63rdXjifV3S8+IcnFM7gceNNdzrbg1EQE5eJhi7WM5/YJXjHSzqiHWcYtx7GNuf6RlxksFS3HjcWCtXq7sjGWnbb9HWr+Y3wei7CvYQG0G6QkTJqggvWvXLj0ke04fPq3+T7pikvrvlO2i75DpmKmuxeJCfL/ImWxbi7sfMy+jO/DY09ai5EsxQ2Rdtj1tvdBugc96YRRBIjS9ZOTcy+fXJJwTWeRfjbkHRWBwXNi3+GQQci+239G1VVy458JWVT2rBvPLD+KZJyJfxJNdVm6I7XjQsp5bnlBBOVrdvN02rHUGs5jHLY5jH1WEZcZp0T3ivJTHxjZ9IsuOh3P94vk+EGVfQQbqfAjSkgy8/Yf6cfkXL8foqaGW4qUTS1EyoiQHRd+mA9grr0MqkInL1SuOi9+e/SIslGOGyuDvgcyEx26EZuS+zOLC1Um1sl6EBWK6g1u7bIHTsANdW1VkcuSatR2Pwbiehoop1cV+29OwxaKgFJaVCwe3osu2ojuwV1a6T58Z383Qwf3iSEYS7bjFe+xduC4zFuPY2G8QMsC5fnF9H4iyryADdT4EaencwDm8ueFN9Xn+mvm49r9fi+u+fR0WfG8Bho8drtJlUH7hKy+Efc6US2UWyXGBCtbzmZ2u/zMYLbPXbhM5zEf1cEcxoFGH+aitGFW2ME+3HSoyudvyxDM4WD4fqqp6lvFIVthFN06xllUIYh+32Mc+I3Lcojv694Eo+woyUKcjSI+YOA0TP3kLLr7p67bugj9dhuIRY/RYsR3ZdwSvfvtV/H7j7/HHt/6IA/9xANv823D6Q6NYPKt08HLmIoP1fI7OWiqo6gVluqwbnLs61MDGDIhiHvZi1PSbNTPG5XtHF7bqImvjkaxn4FLqHVPMZQ12CRw312NfoOL5PhBlU8EFatnCO9Ug3b/3tziy4xc4PzCAkrIJtq54+Egc39+ND3/boceOTT6KJR/PkjnmfV37cGTvEZXbzi5d/yaC14PmhVkFNlnCm0AuacdjuFtmu8yca0SzkFyci1a3Hc/LPEL1ifeLcSMXa5tSXVY0bsXSRp1v/opx3OI69tHEuV+SOS+VFPd70sslyqyCCtSnTp3Cj370o5SLu/t7X8fBn/8Den/81xG7fT+9HycOvKXHHgRkS1bZghbOhlNmYFvteMPTIviDuSbx2VnUbVTuGnWmO/aq55OtF7dFfuMxoWQYxddL8Kgj12bMM47GSVuMR7XKxbhPx8opJrIsvZ3TjVZ4IS7pW9RdgPWNabIueDXEnrPQ9cO5yKHGddxiHHvJbb+4iG+/hM5Le1G7ZX1S2u9u4vk+EGVfQQVqWZ+Uyzppq+uuuy4tXeIs9YnBOrb52CpfKxrpERn5WI/IJdnr5VZDRLnQuPKCaZmfelwnOK8t8JlFonr4nftXJF9HLXNt5iMxzmXG9e5q41GtuHLDCS1LbKfYKOczyq7pYr+uEOsR2q+PYsbTsjW5MTj34jxuUY+95LZfXMS7X+R5qR8XCy1fnJfBNgcZ2u/xfB+IsqygfuYyH1x22WX48pe/rJ7dTodz587hJz/5CXbv3q1TiIhoKGGgJiIiymMF2eqbiIioUDBQExER5TEGaiIiojwWVx31wMAAjh8/rvqJiIgoe+IK1ERERJQbMQP1vn371H8iIiLKPtZRExER5TEGaiIiojzGQE1ERJTHGKiJiIjyGAM1ERFRHhsSrb6vuWoaNq1djLJRw3VKZNv3/AFf+85z2L3vA51CRESUW0MiUH/jnvn4xp/Nx7Y3ov/W3ZzKi3Dy1Bls/Nc3dEpkx0+ewYZnfoOzA+d0ChERUWYMqUD9yI+36pTIPvOJmfj0xy/WfdH5H/8P/NPPfqX7iIiIMiMvAvXEiRNx+PBh3Zd+ZqCOx+u/fxsv/+de3ReZGfQfeSJ64CciIkpVzhuT3Xrrrfj85z+v+zJLFn1H6zpf3RMzSBMREWVTTgO1DNLLly/XfZm39fV9Ubs3d76rx0w3L5p7etDs1b1plcl5ExFRruUsUGc7SOdUVSUq9Me0y+S8iYgo53ISqIdUkCYiIkpB1gP1UAvS3uYe9LQ1wCM+V/vF5x7RWcupq3zolGlm1+lDlR5kUvOwjqOnjzRvIiIqLFkN1MuWLYsYpIuKivSnwtPaWInK+hb0ic8Bn/hcKbrGVmOgDNIi0KKl3kivrEcLGtAWDORV8HX2wF/Rgno1XHY+BPTQSPMmIqLCkrVALYP00qVLdR+pILxO5IYDPtT6u3VaN/xNIgxXL4dPZatno0JklwNNfjHE1IpGM9ATEVHBy0qgZpCOoKoONTIIdziC7vZekUP2oGK26kGvyC5X+zt14CYioqEm44Fa1knHCtLnz0d858qQEKy3Njtd52wQOezaSvgCHjS06eF8DouIaEjJaKCWbxwbPXo0Nm7cGLXr7g4V7A41wXprR2ct3VZ10TJd1kdX+yM2OCMiosKU0UAtXwu6adOmmN3vfvc7PcUQ0t2OLlmsvTCBHHK3H7W+AOCpQR0jNRHRkDAkfpTj63fNwzfvvU73pcc/bngVP3zqNd0Xi3x7mB8VLfWWhmOCtxk9/mqVqw7loMW4nZVYXysbkInPzbA1HpOPZKlW4Gq4Sok8byIiKghDIlCPLhuBexd/AiXF6XkMbODceWz4l9+g//hpnRIHHZSVgC/0iJY1XQsFbiMI24b2WYO0ZpmHLCInIqLCMSQCNRER0WCVteeoiYiIKHEM1ERERHmMgZqIiCiPMVATERHlMQZqIiKiPMZATURElMcYqImIiPIYAzUREVEeY6AmIiLKYwzUREREeYyBmoiIKI8xUBMREeWxgvpRjunTp+PAgQO6LzfmzJmDhx9+GGVlZTolNcePH8d9992Ht956S6cQEdFQUlCBeunSpRg5ciQ2bNigU7KvoaEB9957L5566imdkpq77rpLbU9LS4tOISKioaTgAvWyZcvQ1NSEn//85zo1u8xA/aUvfUmnpObZZ59loCYiGsIKso56+fLluPXWW3Vf8opKhmO0508w7Zb7UP7F/4bxVy7QQyhZ3uYe9PTIrhlenUY0WKnzudOHKt1PlAkFmaOWuWkZqFPJWRcVD8OkT9Vh2he/hWGjxmLg9HGcF3vqvZc24N2Ox/RY4WRuWuaqX3vtNZ2Smnnz5qncdFzF+VU+dLY1wKN7rfpa6lHr79Z9uVHl60RbQy98lY1oNVLg62xDA1pQX+tHwmvnbUaPv1puXMzp5QVVjhrwVaLRWPgg4EVzjx/VCFj2WbLi2Nfm/owgv/ZbiudNGqnzqsJYj9n6HHOXjuNIQ1FB5qjNAJ1KznrkhR6MqZyHk2/vxO+/V4edD3txdMcvMXneEhSXjtFjhRs2bJgI6OdVgE1HJ+cl5xm/PrTUV6Ky0tr50NvQpnKyzTnLxlahrkbcQgQ60n+h8jRgZbTtEjcwy6NeQOMhg2ak/eeWngbehaju6xNHtBoLs3bcIp0/uQzSGdy/adbaaNln9S1iTxo3OKH9mI4gPXj2B6VPQQXqoqIi/ckI1ps2bVLBWuayEzVs9ASUjByNk+/uwSnRnTl2GMd2/0pmtVUO283+/fvxxhtvoK6uLi2dnJecZ2pa0SguFL4AUO3vhC+H5XR9vdv1J6kb/lpxAUspVyQCmbgiVkeJZFV1NfCogJeCqkpU6I82bukpE7lGcXfR17UKTfK4LU+1eDUd+zoHIu7fQbot6ZCx843yWUEFapn7tNq4caPKWcsi8cWLF+vU2ErKJmDklMsxYnI5Sqdehsnzl2DSp7+A0TOvwbDSsRg357MoGRH58atdu3aho6MDJ06ccO1Onz6tx86u1kYfAvCgIWr2c/Dp6lKRzOUGxIuVDR4R8LrQq1MGhao61Hj60NXejdYOsX2eGtSxIpRoSCr4F55s3rwZ/f39KlhPmzZNp0Z3wXVezPD+PcpEYB47ewE8y9Zixm3fxeR5izFs3AWYXn8/pi5aqce2k8XL7e3tOHXqlGt39uxZPXa2tUJe80X2U4QvC1m3LdbbaOQVuXFMqBGY7mxlb7LOMMpwWffZ0wYRL+HRRfDmcLfGOGHLi9b4rL1D3YDURIpksvhYDG3y9+iEcLGWpYbruv9qMR81jlh/t/Tg/rDtI8ktPZxRCtAFEafFYVuPlr7I2yfr/Y31DT8GzsW47ev4xb9dwWU5zq3OiHdT4esu5+W+f923RaVb5xPhvIl/3SKvV0pS+K5F2x+S23Q0+BV0oJ44cSIeeughFBcX44EHHsChQ4f0kOiKVZH3bux76pt48/65tq5nnRdnPnoPxaWRc9Tlc8vxuR98zrUrnVSqx8yN7b2OAmB54RBffrTU63q0erSgAW3BL7lxsVINZoJ1bTJnbuFdiZouc3o9vNofuvC1Noo0MV+xaNmoTY3jWulp1MHZlyeL7avh73Ertm/FejFzT8NKx0VZrLusnHatF49vWaru0VnnKNbfLT11ZilAuy7a7UZ7V6TtM8n1XQes0usgunqxP+TFPKfXao84j9Rq6fXyidspcaNmWycVuMRNXK8vuO7m+ZXY/k3wvIln3WKd14lK8bvmvj/i+I7SoFawgdoM0pMnT1ZBOltv9jp64Ch2b9mNMyfO4Ng7x7D3pb04e/Isjh400gdODOgxc6kClepaI77g68QdesBnaRHeDb9RKaovbrNRIW7hA03W+sBWNFovmCIQ21uUGzl3T02dWEJivM1+VEdoxd3aKAO9e7F9d3uXuIA5Gl3p4uOW9S5hOsllZZwqBTCKvU0Rt88i4KuF9RB0+2uNNgkJ122L7W5z5MySzoWLfb/Ksm9VyYBYJ8tGeFeK808eA1sAdpxfcUj8WMZet3Se12n7rkWU7HQ0WBRkoM5VkJaOHDyCXc/vUgG5/51+9AX6cPaEEahlugzgudeLHvmNVoFMfME7HF/o7b3iMuZBxWzVA5kJj90IzbirNy/u0R9TcePFQjFdKCdpZeQqw4rtTd3+sEZXKggEmmwBLCSFZWWY11gxo9jb1N0OY5UirVEAzkMoqdITT4W4jCciQqvvZBttObdBzKVHNhSoqNTHyDgG9gCTjCSOZcx1M6XjvBbS+l1zSnY6GiwKMlDnKkjHY+zYsWl7D3gyZstb775e8dUOCdZ3mZ2uBzMYLWx9AUtOy1GeatSNtdmKCWVuLt261ZXUXev6FvSZja6qjEeywi6McYq1rMwxgo4qmrUeE13H795obhDKUgvmZI9lJs7rVL9rkSU7HQ0WBRmo0xGkR0yagUnzb0d5/QO2bsrCr2HYqPF6rEFGBy9nzsP+rGeos5du63RZR1btDxWHmgFRzCPTL1SpqoxxWVe5TqOY02iM1QKXUu+YYi4rQ6p8y1XjN5/jWAT3vbisR2w0R66SOpYZOq9T+q7FEGk6KgwFF6hlC+9Ug/Sxnm048mYncP4cho+7wNYVjyjFsd5f4YNtz+qxw5VdVIYR40bgTL9RzC2LvsdfMh5FxUWq1Xdu6DoyEbxWmReeqMWpLrr9qJXZiqiPC1UhuTgXrQ4wnhemhOr81olxIxeFmlJdVjRuxahGXaK7GMvVxyt8nc02B1aZeMFMstvlIpnzL6JMHkurZM9rIWPftQgs01FhKKhAffLkSaxZsybl4u6jO7di71N/g52P3BGx2930FfTvfV2PHW7O7XNw7vQ59AaMIrc9L+zB6KmjMfOGmeoZ6jNnslxPLVubyqLTsFcumoHN72gd7EVz8C5efHYWdVvrULt71PPJ1guQt1kX0ybBKL5uQJsjF2HMU+Q0YzWQaTUe1fKIcZti5IQSWpbezgpnRHRJN559brC8MU3WdcrXgVrp+k9z+W71mEH6eIVduGWRp/ORslj7y7HsOMW3XfEKnX/2olrLOee23x1SPm+c0nxeW7c16e+aFHF/uE9HhaGgArV8uUmu66Rn1s7E2IvH4tSRU7iq/ip87I6Pofzacpw+choV11dgzNQxKljL14MuWLAgZpc4Sz1VsB6sBl2ygVCkRkHy0Slx922vO/NDRLnQuPJCapmfegwkOK9WNJpFbXr48t765OvyZG7AfGzFucy4XsFoPKoVVw4qoWWJ7RQb5XwO3DVd7FfzESljvm2oaJItkI3BkajGby4Nw4L0jYi9FbMIRPW9WK7XX21DtUjLxHulk9iuqOT5px97MtddnX/BneC23x1SPm+c0nxeSyl/1ySX/eEyHRWGgvpRjlwrHV+K+p/UY/iY4Tol3KFfH8IL972Am266CTfffLNOdTcwMIDHH38c27dbm38RGcJ/6ISICg0DdRpd+41rccXNV6BjVYd6htqp8pZKXN1wNV5e8zL2BvbqVKLkMVATFb6CbPWdK1OqpuD4+8fhud6j6qmdnWxgdm7gHC648gI9BRERUXQM1Gm06992YdSkUbjqtqsid4uvwon3T2Dn/92ppyAiIoqORd9ERER5jDlqIiKiPMZATURElMcYqImIiPIYAzUREVEeY6AmIiLKYwzUREREeYyBmoiIKI8xUBMREeWxgnrhyfTp03HgwAHdlxtz5szBww8/jLKyMp2SmuPHj+O+++7L+a+CERFRbhRUoF66dClGjhyJDRs26JTsa2howL333ounnnpKp6TmrrvuUtvT0tKiU4iIaCgpuEC9bNkyNDU1qd+mzgUzUH/pS1/SKal59tlnGaiJiIawgqyjXr58OW699Vbdl7yikuEY7fkTTLvlPpR/8b9h/JUL9BBKlrfZ/HH7ZuifvKc8pI5Tpw9Vup+Icqcgc9QyNy0DdSo566LiYZj0qTpM++K3MGzUWAycPo7zYk+999IGvNvxmB4rnMxNy1z1a6+9plNSM2/ePJWbjqs4v8qHzrYGeHSvVV9LPWr93bovN8J/O7kKvs42NKAF9bV+JLx23mb0+KvlxsWcXgYeOWrAV4nGQfPDzV409/hRjUDWf29a7a8Kc7+meJwSks1lWejvTu+gOj9Slfl9bX7v3GX/3B6MCjJHbQboVHLWIy/0YEzlPJx8eyd+/7067HzYi6M7fonJ85aguHSMHivcsGHDREA/rwJsOjo5LznP+PWhpb4SlZXWzofehjaVk23OWTa2CnU14hYi0JH+L6WnASujbZe4CC+PerGIhwyakfafW3oaeBeiuq9PHNFqLCzI4ocM7rusGgzbkZt1bG20XIfqW8S5bNwsh65N6QjShXIeuSuoQF1UVKQ/GcF606ZNKljLXHaiho2egJKRo3Hy3T04Jbozxw7j2O5fyay2ymG72b9/P9544w3U1dWlpZPzkvNMTSsaxZfCFwCq/Z3w5bA8s693u/4kdcNfK76sKd3Ni0Amvv3VUSJZVV0NPCrgpaCqEhX6o41bespEbkfcXfR1rUKTPG7Lc1kMnY7jFEHEfZehZWVSxs6BNCqUfR3JYNj/KSqoQC1zn1YbN25UOWtZJL548WKdGltJ2QSMnHI5RkwuR+nUyzB5/hJM+vQXMHrmNRhWOhbj5nwWJSMiP361a9cudHR04MSJE67d6dOn9djZ1droQwAeNETNfg4+XV0qkrncgHixssEjAl4XenXKoFBVhxpPH7rau9HaIbbPU4M6VhgTDUkF/8KTzZs3o7+/XwXradOm6dToLrjOixnev0eZCMxjZy+AZ9lazLjtu5g8bzGGjbsA0+vvx9RFK/XYdrJ4ub29HadOnXLtzp49q8fOtlbIa77IforwZSHr58R6G428IjciCjUC052tnEnWdUUZLuuSe9og4iU8ugjeHO7WaClsedEan7V3qBuQmkiRTBYfi6FN/h6dEC7WstRwXfdfLeajxhHr75Ye3B+2fSS5pYczSgG6IOK0OGzr0dIXeftkvb+xvuHHwLmYRMZ1inycoh33aMPc92lwWJLnRHBaxzndmUQxUjzzirYdShzfLTEXVXQbHKdHlnoZaWHLktOr75N1XoN8X6dw/Ym2bZLbdINNQQfqiRMn4qGHHkJxcTEeeOABHDp0SA+JrlgVee/Gvqe+iTfvn2vretZ5ceaj91BcGjlHXT63HJ/7wedcu9JJpXrM3Nje6ygAll8ScaKjpV7XGdWjBQ1oC57QxkVANSwK1ivJnLmFdyVquszp9fBqf+gL29oo0sR8xaJlozY1jmuLHeMCZV+eLLavhl9dwPRoNq1YL2buaVjpuJiIdZeV06714vEtS9WzOevXxPq7pafOLAVo10WS3WjvirR9Jrm+64BVeh1EVy/2h7xwhV+XEhk3CnVxFTdfvb7gfGznRYxzIrF9l+A54RHnr9pEPa5P3MaJG8SkrtEx5hV1O2J+twS1H/2oDlj3YxMq2mQjwgjk+izsMMYzi6wH875O8frjvm1xXLcGkYIN1GaQnjx5sgrS2Xqz19EDR7F7y26cOXEGx945hr0v7cXZk2dx9KCRPnBiQI+ZSxWoVF84cTKvE3ej4iIRahHeDb9RKaq/lLNRIW5XA03WeqxWNFq/6CIQ21uUGzl3T02dWEJivM3iAhWhFXdrowz07sX23e1d4svqaHSli49b1ke+KCW7rIxTpQBGsbcp4vZZBHy1sB6Cbn+t0SYhQt12IuO68a4U543cd7YLvuW8yOk5IY75Ksu4qkRCbF9SLfKSnVc8360o+1EHn3AB+GzjCoN2X6fp+hNRstPlp4IM1LkK0tKRg0ew6/ldKiD3v9OPvkAfzp4wArVMlwE893rRI89eFcjEydzhOHm394qvnwcVs1UPZCY8diM04w7WLGKK/kiGGy8WiulCOUkrI1cZVmxv6vaHNbpSF8FAky0ohaSwrAzzGitmFHubutthrFKkNQrAeQglVXriqRCXLKtExnVj7Dv7RTCSHJ0Tzn0nxuuRDRQqKhMOXEnPK67vVpRt6+6J3Kair1d8IyMZhPs6rdcfp2Sny08FGahzFaTjMXbs2LS9BzwZs+VtpuPLHqzbMTtd52MwWob6AuJuuk0Pd5RrGfVAbbbiN5lDS7dudQVw17pe5ELMRldVxiNZYReBOMVaVuYYF0tVpGg9JrqO35oby5k4WtnmyzmRa9G/W+kx2Pd1qtefyJKdLj8VZKBOR5AeMWkGJs2/HeX1D9i6KQu/hmGjxuuxBhkdvJx3zMG6HUdnLSVSdUEyXRbJVftDDT7MgCjmYS9+S7+qyhjhQeU6jeI5ozFWC1xKvWOKuawMqfIth/GCE/uxCO57cQmL2Ggun+TTOZFj8Xy3UlIA+zql608MyU6XbwouUMsW3qkG6WM923DkzU7g/DkMH3eBrSseUYpjvb/CB9ue1WOHK7uoDCPGjcCZfqOYWxZ9j79kPIqKi1Sr79zQ9UEieK0yv9BRi1NddPtRK2/Xoz4uVIXkvtPR6tbieWFKqH5rnRg3chGeKdVlReNW/GfUm7mLsVx9vMLX2WxzYOU2r0TGdZHMeSOWkZtzIkfi2kdG8WzEbVPtFJI1SPZ1xq4/ESQ7XZ4oqEB98uRJrFmzJuXi7qM7t2LvU3+DnY/cEbHb3fQV9O99XY8dbs7tc3Du9Dn0Boyioj0v7MHoqaMx84aZ6hnqM2eyXE8t7rpVC92wVwWagc3vaKXpRXPwzlN8dhZ1GxVZRt2Urkuzftm8zbqYNglG8XUD2hx3vsY8IzSkcWo1HtXyiHGbYuQwElqW3s4KZ5RzSTeefW6wvDFN1iE6W/LqekVz+W51dkH6eIVdbGTxnvORMrf9lci4bkLnjb04UZ8r8Z4TbvvUIeVzIoxjv6cq4nbE890yj6e1lbMgv6/xVjLn/b6OJg3XHynitsUx3SBSUIFavtwk13XSM2tnYuzFY3HqyClcVX8VPnbHx1B+bTlOHzmNiusrMGbqGBWs5etBFyxYELNLnKVOJljnU4Mu+VpRR0tORT46Je407fVEfogoFxpXXpAt81OPPATnpVuoWsZZ3luffB2ZvPM1H9FwLjOu1w0aj2rFdeef0LLEdoqNcj4H7pou9qv52JMx3zZUNMmWs8bgSFTjN5fGXkH6RsTe+lZcQOt7sVyvv9qGapEWcX8lMm4U8rzRjwGZ81HnjVr5eM8Jt33qkPI5kWnu50DM75Ycx7GvjKfn4n2UaJDv65SvP5LLtsWcbvAoqB/lyLXS8aWo/0k9ho8ZrlPCHfr1Ibxw3wu46aabcPPNN+tUdwMDA3j88cexfXvktp40tIX/0Im7RMalXBM5QhmwfEPpR0LIDQN1Gl37jWtxxc1XoGNVh3qG2qnylkpc3XA1Xl7zMvYG9upUouQxUBco9ctwFWiptz/zTkNTQbb6zpUpVVNw/P3j8FzvUfXUzk42MDs3cA4XXHmBnoKIhjJ58xT2yk398619LasYpElhoE6jXf+2C6MmjcJVt10VuVt8FU68fwI7/+9OPQURDWXyjXMw61bNTuWkM/+4FQ0eLPomIiLKY8xRExER5TEGaiIiojzGQE1ERJTHGKiJiIjyGAM1ERFRHmOgJiIiymMM1ERERHmMgZqIiCiPFdQLT6ZPn44DBw7ovtyYM2cOHn74YZSVlemU1Bw/fhz33Xdfzn8VjIiIcqOgAvXSpUsxcuRIbNiwQadkX0NDA+6991489dRTOiU1d911l9qelpYWnUJERENJwQXqZcuWoampSf02dS6YgfpLX/qSTknNs88+y0BNRDSEFWQd9fLly3HrrbfqvuQVlQzHaM+fYNot96H8i/8N469coIdQsrzN5o8PNMPlp+spD6jj1OmD43ediCgHCjJHLXPTMlCnkrMuKh6GSZ+qw7QvfgvDRo3FwOnjOC/21HsvbcC7HY/pscLJ3LTMVb/22ms6JTXz5s1Tuem4ivOrfOhsa4BH91r1tdTn/Nd4wn8PuQq+zjY0oAX1tX4kvHb65wDFxsWcXgYeOWpgUP0QvxfNPX5UI5D135BW+6vC3K8pHqeEZHNZIercrOlyWaZep14fKhM6eeLbFvPcdJf940/5pSBz1GaATiVnPfJCD8ZUzsPJt3fi99+rw86HvTi645eYPG8JikvH6LHCDRs2TAT08yrApqOT85LzjF+f+om8ykpr50Ov/im95pxlY6tQVyNuIQId6b/geBqwMtp2iRuY5VEvhPGQQTPS/nNLTwPvQlT39YkjWo2FBVn8kMF9l7fCt7m10fJdrW8Rx9u4oQx9f9MRpIfivi4cBRWoi4qK9CcjWG/atEkFa5nLTtSw0RNQMnI0Tr67B6dEd+bYYRzb/SuZ1VY5bDf79+/HG2+8gbq6urR0cl5ynqlpRaP4wvsCQLW/E87fqc+mvt7t+pPUDX+tuBCllHMSgUxc2aqjRLKquhp4VMBLQVUlKvRHG7f0lIncmLi76OtahSZ53Jbnshg6Hccpgoj7LkPLyokI25Kx8yWGXC2X0qKgArXMfVpt3LhR5axlkfjixYt1amwlZRMwcsrlGDG5HKVTL8Pk+Usw6dNfwOiZ12BY6ViMm/NZlIyI/PjVrl270NHRgRMnTrh2p0+f1mNnV2ujDwF40BA1+zn4dHWpSOZyA+LFygaPCHhd6NUpg0JVHWo8fehq70Zrh9g+Tw3qWGFMNCQV/AtPNm/ejP7+fhWsp02bplOju+A6L2Z4/x5lIjCPnb0AnmVrMeO272LyvMUYNu4CTK+/H1MXrdRj28ni5fb2dpw6dcq1O3v2rB4721ohr/ki+ynCl4Ws2xbrbTTyityIKNQITHe2MjRZFxdluKxL7mmDiJfw6CJ4c7hbo6Ww5UVrfNbeoW5AaiJFMll8LIY2+Xt0QrhYy1LDdd1/tZiPGkesv1t6cH/Y9pHklh7OKAXogojT4rCtR0tf5O2TdavG+oYfA+diEhnXKfJxinbcow1z36fBYUmeE8FpHed0Z5qLkeJdjnVb1GeXbY4phe9orOW6TUf5o6AD9cSJE/HQQw+huLgYDzzwAA4dOqSHRFesirx3Y99T38Sb98+1dT3rvDjz0XsoLo2coy6fW47P/eBzrl3ppFI9Zm5s73UUAMsLgPgSo6Ve14fVowUNaAt+WY0LrmpYFKwzkzlzC+9K1HSZ0+vh1f7QRau1UaSJ+YpFy0ZtahzXRjlGXZp9ebLYvhr+Hrdi+1asFzP3NKx0XLjFusvKadd68fiWpeoQnXWHYv3d0lNnlgK06yLTbrR3Rdo+k1zfdcAqvQ6iqxf7Q16Uw6+5iYwbhQocuoGVno/tvIhxTiS27xI8Jzzi/FWbqMf1ids4cYOY9viT4HKSPl9S/I66LzeO7zblhYIN1GaQnjx5sgrS2Xqz19EDR7F7y26cOXEGx945hr0v7cXZk2dx9KCRPnBiQI+ZSxWoVBc38UVdJ+60Az5Li/Bu+I1KUX0BnI0KcSseaLLWGbai0XqBEYHY3qLcyLl7aurEEhLjbfajOkIr7tZGGejdi+2727vEhcjR6EoXH7esj3wxTHZZGadKAYxib1PE7bMI+GphPQTd/lqjTUKEuu1ExnXjXSnOG7nvbIHGcl7k9JwQx3yVZVxVIiG2L+0t8rKxnDR9RyNKdjrKtoIM1LkK0tKRg0ew6/ldKiD3v9OPvkAfzp4wArVMlwE893rRI7+ZKpCJL2qH44u5vVdcgjyomK16IDPhsRuhGXfnZvFZ9MdN3HixUEwXyklaGbnKsGJ7U7c/rNGVCiaBJltQCklhWRnmNVbMKPY2dbfDWKVIaxSA8xBKqvTEUyEux1aJjOvG2Hf2C3wkOTonnPtOjNcjGyhUVCZ8kxBVNpaT1u+oU7LTUbYVZKDOVZCOx9ixY9P2HvBkzJa30H294isaEqy3Mjtdn2UwWq76AiLn0qaHO8r2jDquNltRp8yhpVu3ugq6a13fgj6z0VWV8UhW2AUuTrGWlTlGYFLFqtZjouv4Q7moHIqjBXG+nBMJiftGJftS/Y5Glux0lG0FGajTEaRHTJqBSfNvR3n9A7ZuysKvYdio8XqsQUYHL2fuJFhv5ejspds6XdZ1VftDjVnMgCjmkekXqlRVxggPKtdpFIUajbFa4FLqHVPMZWVIlW85jBec2I9FcN+Ly3PERnP5JJ/OibQwiojtjxZmV0rf0RiSnY6yp+ACtWzhnWqQPtazDUfe7ATOn8PwcRfYuuIRpTjW+yt8sO1ZPXa4sovKMGLcCJzpN4q5ZdH3+EvGo6i4SLX6zg1d1yWC1yrz4hm1ONVFtx+1MmsU9XGhKiR3/YxWjxnPC1NCdXfrxLiRi0tNqS4rGrciUOOC7y7GcvXxCl9ns82Bldu8EhnXRTLnjVhGbs6J+ERtAxChzUDWZOw7GkGy01HGFVSgPnnyJNasWZNycffRnVux96m/wc5H7ojY7W76Cvr3vq7HDjfn9jk4d/ocegNGsdyeF/Zg9NTRmHnDTPUM9ZkzWa6nlq1GZdFp2KsMzcDmd7RU9aI5eFctPjuLuq11qN096vlk64XE26yLaZNgFF83oM1xV2/MU+Q0YzV0aTUe1fKIcZti5OYSWpbezgpnlHNJN559brC8MU3W18rXgVrpOlxz+W71kUH6eIVdSGXRpfORMrf9lci4bkLnjb2oVJ8r8Z4TbvvUIeVzIoxjv0tmGwdnfa387qh3z7q1dUhQnNsckobvqBRxuXFMR3mhoAK1fLlJruukZ9bOxNiLx+LUkVO4qv4qfOyOj6H82nKcPnIaFddXYMzUMSpYy9eDLliwIGaXOEt9U7A+qwZd8rWijlazinx0StxF2+vA/BBRLjSuvCBb5qce5wjOqxWNZpGZHr68tz75+kh5V28+fuJcZlyvUjQe1Yorl5XQssR2io1yPgfumi72q/nYkzHfNlQ0yVbKxuBIVOM3l8ZeQfpGxN7SWQSr+l4s1+uvtqFapEXcX4mMG4V65M545Mqcjzpv1MrHe0647VOHlM+J+KgiYF+v/fvT1oBeWeyc8M2Amzi32Srl76jkstyY01E+KKgf5ci10vGlqP9JPYaPGa5Twh369SG8cN8LuOmmm3DzzTfrVHcDAwN4/PHHsX177urHKH+F/9CJu0TGJaL8wUCdRtd+41pccfMV6FjVoZ6hdqq8pRJXN1yNl9e8jL2BvTqVKHkM1ESFryBbfefKlKopOP7+cXiu96h6amcnG5idGziHC668QE9BREQUHQN1Gu36t10YNWkUrrrtqsjd4qtw4v0T2Pl/d+opiIiIomPRNxERUR5jjpqIiCiPMVATERHlMQZqIiKiPMZATURElMcYqImIiPIYAzUREVEeY6AmIiLKYwzUREREeaygXngyffp0HDhwQPflxpw5c/Dwww+jrKxMp6Tm+PHjuO+++3L+q2BERJQbBRWoly5dipEjR2LDhg06JfsaGhpw77334qmnntIpqbnrrrvU9rS0tOgUIiIaSgouUC9btgxNTU3qt6lzwQzUX/rSl3RKap599lkGaiKiIawg66iXL1+OW2+9Vfclr6hkOEZ7/gTTbrkP5V/8bxh/5QI9hJLlbTZ/pL4ZcfxkPmWIOg6dPlTpfiLKXwWZo5a5aRmoU8lZFxUPw6RP1WHaF7+FYaPGYuD0cZwXe+q9lzbg3Y7H9FjhZG5a5qpfe+01nZKaefPmqdx0XMX5VT50tjXAo3ut+lrqUevv1n25Ef57yFXwdbahAS2or/Uj4bXzNqPHXy03Lub0MjDJUQO+SjQOmh9j9qK5x49qBNL+G9Jqf1TE2m8pHp9Bwjw33KV//xMloiBz1GaATiVnPfJCD8ZUzsPJt3fi99+rw86HvTi645eYPG8JikvH6LHCDRs2TAT08yrApqOT85LzjF8fWuorUVlp7XzobWhTOdnmnGVjq1BXI24hAh3pv+B5GrAy2naJG5jlUS/E8ZBBM9L+c0tPA+9CVPf1iSNajYV5U/yQwe3N6LzdtTZaviv1LWJ/Gzd0oe9POoJ0braNCkNBBeqioiL9yQjWmzZtUsFa5rITNWz0BJSMHI2T7+7BKdGdOXYYx3b/Sma1VQ7bzf79+/HGG2+grq4uLZ2cl5xnalrRKC44vgBQ7e+EL4flnX292/UnqRv+WnEhTCm3JgKZuLJWR4lkVXU18KiAl4KqSlTojzZu6SkTuVlxd9HXtQpN8rgtz0UxdYTjk7HtFTI571wr5G2jjCuoQC1zn1YbN25UOWtZJL548WKdGltJ2QSMnHI5RkwuR+nUyzB5/hJM+vQXMHrmNRhWOhbj5nwWJSMiP361a9cudHR04MSJE67d6dOn9djZ1droQwAeNETNfg4+XV0qkrncgHixssEjAl4XenXKoFBVhxpPH7rau9HaIbbPU4M6VigTDUkF/8KTzZs3o7+/XwXradOm6dToLrjOixnev0eZCMxjZy+AZ9lazLjtu5g8bzGGjbsA0+vvx9RFK/XYdrJ4ub29HadOnXLtzp49q8fOtlbIa77IforwZSHrtsV6G428IjcyCjUC052tDE/WZUYZLuuSe9og4iU8ugjeHO7WqClsedEan7V3qBuQmkiRTBYfi6FN/h6dEC7WstRwXfdfLeajxhHr75Ye3B+2fSS5pYczSgG6IOK0OGzr0dIXefuC+0/tY/1ZD4t5XCTnsXcMD87f/Bxxe7U4ziO3dUrHvoy6L+JatyhS+I7E2m9u0xGZCjpQT5w4EQ899BCKi4vxwAMP4NChQ3pIdMWqyHs39j31Tbx5/1xb17POizMfvYfi0sg56vK55fjcDz7n2pVOKtVj5sb2XkcBsLwAiYsIWup1fVw9WtCAtuDFwrggqoZHwTo7mTO38K5ETZc5vR5e7UenmcVtbRRpYr5i0bJRmxrHtUWXUZdnX54stq+Gv8et2L4V68XMPQ0rHcFcrLusnHatF49vWaoO01l3KdbfLT11ZilAuy5y7kZ7V6Tt0zzieC3sMJZvFlOrwCJujnp9we0KO25yunXAKnO4UTcSOm4OUbc35nkkRFmntO1Lt30Ra92iSfE74r5tcXy3iISCDdRmkJ48ebIK0tl6s9fRA0exe8tunDlxBsfeOYa9L+3F2ZNncfSgkT5wYkCPmUsVqFTXYnGhWCfu9AM+S4vwbviNSlEdqGajQmQFAk3WeuRWNFovoiIQ21uUGzl3T02dWEJivM1+VEdoxd3aKAO9e7F9d3uXuBA6Gl3p4uOW9ZEv+MkuK+NUKYBR7G2KuH1BAfgcQc27UhxXuW22dMdxE3NsWWXZdpVzF8etYrZOiFc851G865Qq576Ib93cpek7ElGy09FQU5CBOldBWjpy8Ah2Pb9LBeT+d/rRF+jD2RNGoJbpMoDnXi965JVBBTJxoehwXBi294pLuAfG9Xo7ZCY8diM0I3dgFt9Ff9zFjRcLxXShnKSVkasMK7Y3dfvDGl2pwBBogu0eIiiFZWWY11gxo9jb1N0OY5UirFFfrzhKVsa22QNABM5liLF7ZEV+RWVwH8YlrvMoznVKlXNfxLVuUaT1O+KU7HQ01BRkoM5VkI7H2LFj0/Ye8GTMlrfwjotZsN7M7HR9msFo+esLiBxmmx7uKDI06tjabMXfshQ13bpVFHHXur4FfWajqyrjkaywC2ycYi0rc4yApopwrcdE1/HHlQvMUQvjqOdRjls9Rz/HY0v1OxJZstPRUFOQgTodQXrEpBmYNP92lNc/YOumLPwaho0ar8caZHTwcuYig/Vmjs5aAqfq2WS6rGur9oca05gBUczDXvydflWVMS71KtdpFFkbjbFa4FLqHVPMZWVIlW+5avzmcxyL4L4X4SFio7k8EM95lCuprltK35EYIk1HZFVwgVq28E41SB/r2YYjb3YC589h+LgLbF3xiFIc6/0VPtj2rB47XNlFZRgxbgTO9BvF3LLoe/wl41FUXKRafeeGrmsTwWuVGVCjFae66fajVmaXoz4uVIXk4ly0uu14XpgSqjtcJ8aNXKxtSnVZ0bgVIRt1ku5iLFcfr5h1/8kc11TEs7yk1ynZfamlui+SmT6u70gElumIrAoqUJ88eRJr1qxJubj76M6t2PvU32DnI3dE7HY3fQX9e1/XY4ebc/scnDt9Dr0Bo/h0zwt7MHrqaMy8YaZ6hvrMmSzXU8tWq7LoNOxVkGZg8zvemORFczA3ID47i7qtdajdPer5ZOuFzNusi2mTYBRfN6DNkRsx5hneaCpMq/GolkeM2xQjh5/QsvR2Vhit8EJc0o1nnxssb0yTdfjydaBWul7fXL5bfWiQPl4xA0DouNqLUsOPZcIibm8851Ec65TSvnQTz7pFE8/04fs1rJ1BxG1zn47IqqACtXy5Sa7rpGfWzsTYi8fi1JFTuKr+Knzsjo+h/NpynD5yGhXXV2DM1DEqWMvXgy5YsCBmlzhLfVewPq0GXfK1oo7WzYp8dErcxdvr4PwQUS40rry4WuanHicJzqsVjWaRnR6+vLc++TpqmaswH39xLjOuVzkaj2rFlRtOaFliO8VGOZ8Dd00X+7VerEdov7ahokm2JjcGR6Iav4nbjKjV6vpGJGaLdPVInPGYnLld6rgmWWcf4r69Mc+jmOuUvn1pE8+6RRPP9FG/I5LLtrlMR2RVUD/KkWul40tR/5N6DB8zXKeEO/TrQ3jhvhdw00034eabb9ap7gYGBvD4449j+3Z7u14iIhoaGKjT6NpvXIsrbr4CHas61DPUTpW3VOLqhqvx8pqXsTewV6cSERG5K5kwYcK39Web8eONls0fffSR+k+xfaLxE6puWjYau+hjF4V1JaNKMHnWZBx/7zgO/Sq+t6QREdHQxhx1Gl1ZfyU+8ZVPYNgo95+llC9B6bivQ70YhYiIKBYGaiIiojxWkC88ISIiKhQM1ERERHmMgZqIiCiPMVATERHlMQZqIiKiPMZATURElMcYqImIiPIYAzUREVEeK6gXnkyfPh0HDhzQfbkxZ84cPPzwwygrK9MpqTl+/Djuu+++nP8qGBER5UZBBeqlS5di5MiR2LBhg07JvoaGBtx777146qmndEpq7rrrLrU9LS0tOoWIiIaSggvUy5YtQ1NTk/pt6lwwA/WXvvQlnZKaZ599loGaiGgIK8g66uXLl+PWW2/VfckrKhmO0Z4/wbRb7kP5F/8bxl+5QA+hZHmbzR/Jb4b+6XwiIoqiIHPUMjctA3UqOeui4mGY9Kk6TPvitzBs1FgMnD6O82JPvffSBrzb8ZgeK5zMTctc9WuvvaZTUjNv3jyVm46rOL/Kh862Bnh0r1VfSz1q/d26LzeqfJ1oa+iFr7IRrUYKfJ1taEAL6mv9SHjtvM3o8VfLjYs5vbxBkKMGfJVoNBaen/L8GMaW4jG1UOdLTZfLfPRyen2oTOiAxrd+5vniLmA5j4kyqyBz1GaATiVnPfJCD8ZUzsPJt3fi99+rw86HvTi645eYPG8JikvH6LHCDRs2TAT08yrApqOT85LzjF8fWuorUVlp7XzobWhTOdnmnGVjq1BXI8JPoCP9FzdPA1ZG2y4R/JZHvejGw4vmiPvPLT0V+XoMC1X4MWxttOz7+hZxRIybvNDxSEeQzsS5Q4WooAJ1UVGR/mQE602bNqlgLXPZiRo2egJKRo7GyXf34JTozhw7jGO7fyWz2iqH7Wb//v144403UFdXl5ZOzkvOMzWtaBQXF18AqPZ3wlelk3Ogr3e7/iR1w18rLnop5bz60CeuotUL3a92VXU18IiR5MU2aVWVqNAfbdzS0y5/jmF06TimmRRh/bJ2DB1ytVwadAoqUMvcp9XGjRtVzloWiS9evFinxlZSNgEjp1yOEZPLUTr1MkyevwSTPv0FjJ55DYaVjsW4OZ9FyYjIj1/t2rULHR0dOHHihGt3+vRpPXZ2tTb6EIAHDVGzn4NPV5eMXstdgpcXKxs86OvqQq9OGcwK9RgSkbuCf+HJ5s2b0d/fr4L1tGnTdGp0F1znxQzv36NMBOaxsxfAs2wtZtz2XUyetxjDxl2A6fX3Y+qilXpsO1k02d7ejlOnTrl2Z8+e1WNnWys6REwT2U8RvixkvahYb6ORl+g6fXDGvFAjMN3ZyutkvV+U4bIuuacNIl7Co4tvzeFqvvEsL1rjs/YOFbxq6iJEau9CVIuhTf4enRAu1rLUcF1vXC3mo8YR6++WHtwftn0kuaUnwuUYCvHsM1nva6Qbxa7Bcc11cp4LbtsQZRy1HpZjGux3zLszzcUC8S7Hun7qc8RjGIcUvjexlus2HQ1NBR2oJ06ciIceegjFxcV44IEHcOjQIT0kumJV5L0b+576Jt68f66t61nnxZmP3kNxaeQcdfnccnzuB59z7Uonleoxc2N7r6MAWF5sxAUDLfW67q0eLWhAW/DCYFyY/RUtqA/Wz8lcnYV3JWq6zOn18Gp/6ALZ2ijSxHzFomWDKDWOawMgI4DYlyeLfKvh73Er8m3FejFzT8NKR2AS6y4rp13rxeNblqqvdNZTivV3S8+0sGOY8D6T6QvRYY4rt0Eer04RxNsq0ORMt84g1rF24xHn1DpglTmdT9xaiZu2tMefBJeT9DFM8Xvjvtw4vm805BRsoDaD9OTJk1WQztabvY4eOIrdW3bjzIkzOPbOMex9aS/OnjyLoweN9IETA3rMXKpApbquiovCOnFXH/BZWhN3w98kLgvBouTZqBC3/YEma51jKxqtFzMRiO2tkY1cn6emTiwhMd5mP6ojtOJubZSB3r3It7u9S1z0qmGrqq6qQ42nDy3rXcJ0ksvKD+YxTGY7ZGM1S2Oobj/kIfeI4xwx3Xockz7WYpmrLOvXul7duEVrW5CcbCwnTd+biJKdjgpZQQbqXAVp6cjBI9j1/C4VkPvf6UdfoA9nTxiBWqbLAJ57veiRVwEVyMRFocNxEdjeKy53HlTMVj2QGbjYDZiMnIBZVBf90RY3XiwU0/V1tVsuUqZutHepK64j16zpoFK93FLkulJeTJsQ+YmmFJaVF/QxTGo7zGlDjFy6S7qnQoQPqySOdV8X2m3z7kaPbDRQURkjwCcoG8tJ6/fGKdnpqJAVZKDOVZCOx9ixY9P2HvBkzJa363294nIQEqwjMztdd2YwWsn6AiJn1qaHO8oRjfq0NluRqGydnG7d6orrrnV9C/o8NVBV1VXGI1lhF9M4xVpWLkU6hm7SvR3ZOtZBYTcJ+SPV701kyU5HhawgA3U6gvSISTMwaf7tKK9/wNZNWfg1DBs1Xo81yOjg5cx92Z8PDXX20m2drustgw1nzIAo5pHpl3FUVcZ4mKW7HV26qNd4JKsFLqXeMcVcVq64HEM3ad2OLB7r2IwiYvvjftmV0vcmhmSno8JUcIFatvBONUgf69mGI292AufPYfi4C2xd8YhSHOv9FT7Y9qweO1zZRWUYMW4EzvQbxdyy6Hv8JeNRVFykWn3nhq5XE8FrlXmRVYFNlowmcMfe7UetzEKZOdeIqpBcfIhW3xnPC1NC9YTrxLjRg1mqy4rGrbjVCC7Ji3AMM7od8Uj2WMcWsd2BSbXm70OXvZw7OzL2vYkg2emooBRUoD558iTWrFmTcnH30Z1bsfepv8HOR+6I2O1u+gr6976uxw435/Y5OHf6HHoDRrHjnhf2YPTU0Zh5w0z1DPWZM1mupxY5oU75eFTYaxPNwOZ3tIr1ojl4By8+O4u6jUpRoy6wu0c9n2y9aHmbjUexkmEUXzegzZGDMOYZgC9Wo5pW41Etjxi3KUauL6Fl6e2sMFtwmVzSW1X0bLC8MU3W6/pFcLHSdb2O5UfkegzTsM/ileZjbRdhX5jtDpz1tXJfqPfBurU/SJDbsXWVhu+NFHG5cUxHQ05BBWr5cpNc10nPrJ2JsRePxakjp3BV/VX42B0fQ/m15Th95DQqrq/AmKljVLCWrwddsGBBzC5xlrqtYN1ZDbrkKykdF3hFPjol7tjt9W1+iCgXGlcWvVnmpx4dCc6rFY1m8Zwevry3Pvl6S5mDMB91cS4zrtc2Go9qxZWLTGhZYjvFRjmfA3dNF/u1XqxHaL+2oaJJtsI2BkeX4DFMeZ/FK83HOg6qCNjXa98fbQ3olcXO6boBcT22UaT8vZFclhtzOhpqCupHOXKtdHwp6n9Sj+FjhuuUcId+fQgv3PcCbrrpJtx888061d3AwAAef/xxbN+eu7o4IiLKHQbqNLr2G9fiipuvQMeqDvUMtVPlLZW4uuFqvLzmZewN7NWpRERE7komTJjwbf3ZZvx4o2XzRx99pP5TbJ9o/ISqm5aNxi762EVhXcmoEkyeNRnH3zuOQ7+K7y1pREQ0tDFHnUZX1l+JT3zlExg2yv1nKeVLUDru61AvRiEiIoqFgZqIiCiPFeQLT4iIiAoFAzUREVEeY6AmIiLKYwzUREREeYyBmoiIKI8xUBMREeUxBmoiIqI8xkBNRESUxxiotVHV92DSo3sx9i//SacQERHlHgO1afRE9a9o1Dj1n4iIKB/wFaJa8fgLUXzRZTjffxgDh3boVCIiotzKixz1xIlGbjYbrEXc1s8jr/k8xq36Kcq+8E09ZqZVwdepfxy+0yf6MsGyjJ5mxPFz+ERElGdyHqhvvfVWfP7zn9d9WWAt4nb7HMHIT3wewy//tO4jIiLKjpwGahmkly9frvuy49QvNuHIujvQ/7M1rp8jKb3lmxi74scomTZLpxAREWVezgJ1NoO0WxG322dnC/DiydNRMvUyEa1Ho2zRX6k0IiKibMhJoM56Tjqe4u4oxeDnjx8Bzp1Vn4d/sk4F8Qn/6/9hzN1rVRoREVGmZD1Q52txd7RicNkifODd3eqzSaUd/UD3xcHbrBt1GV2nb7YeEIkXzZZxjc69MZi32TluD5qjtByzjW8bMXy5nT5rMzdH47TgNsXfUC32usaz7c5GcvZpjPlZxxGdrcFe9Ont+8QU7zGJNF4nbLsxwjj2/UxEFJLVx7OWLVuGpUuX6r6QTZs2YePGjbovvcZ+fSOGX/mnui915/s/EEG7D6df+xlO/uKnOjW6Kl8n2ho8ui+CvhbU1/rRLT/L4OevVsmRBHyVaGzVPVU+dLY1INKcjfFkQGqDsegAfJWNaLXO37rcKPMSM0OlWqh1flZ63rovopjrKj7Eve1u6xFdX0s9av1ya+OYPrjNQrzr5bqNfWipr4Wx6Hj2MxFRSNZy1G5BOtNKLpqpP6Xu/Ikj+Oh/fg5H1n4p7iAtc08rgxFBBrRKVIquvqVPp1mJnFYwIMiLuzFuZaVPTGmo9pu5OBFs1oUu+DIIGeOKrr4FvTrdzjp/sS5mkLbOSwZvcz4+vdTq5Y4coSG0zBhBOq51TWTb7WSglOOaq6uY22FJ9NTUiTUJF1qf0LJC25zAes2uCG6juU6yq28xj0Zy+5mIhrasBOpcBWlp4PDb+lPqTjz3CM599L7ui5N3IYKX+Zb1wYDW7V+FsFhtG3eVkQNTWrE+OHI1FsqoUFWHmlBU0DlFrdsPf4TIWelbHpx/wGcJrtZ5eRrQZhbJBgOUBzV1zggSQJN1mTIIWYuaZWcWN8ezrolsu00AHXpDtveGdmhfV7txE9LaEQq+EVm3w7osDypk7USS61XtD21/t79R56aT2c9ENNRlPFDLOulYQfr8+Yil72lx7u2d+lNqBt7ZjZMvP6n7ktPbE7zKp86Se+vr3a4/RVONBkvO3gxuimVeGZHwuqYurfs6Xq2N9lx9MBiH57iJiOKV0UAt3zg2evRoVf8crevuztxF9eyOX+pPqTneuibY8jtZFZXW3NJsVKRy1d7ei2DeT2X9YgnAF4wi1fC7tDazFUtbOlsuOKJu+Gsd05lF6wmv6+DV2qi33Raxw/d38vuZiIaajAbqw4cPq4Zisbrf/e53eor0O/XbDpx7f6/uS87J9n/Emf/6he5LkDVINawM1rFWWYqhgyzFtNZxZT2ptZ5b5Ya7e0L10NV+e8tpb3PkVt+t60PF7dZpbMtdF95C2SWoxy2edU1k29OqGsvNDa7yYZ1zWQmsl2w0GNqnjar+3dzdSqb3MxEVpKw1JssZkQvu/xd/crnhk/04+vhXcHzLD3VCErr9aDKvzjJnpeslI7cCb0WjNddr1mH2+INBPVS3bB1Xxj9zXNEF6zydRK53VSh4hBpnWeflQUObZV6WZScvnnVNZNvTy9PQZizL0ho71J4gsfWybZtlfgEj6md4PxNRISr8QC2c+V0H+jesjDtYnz99Cqf+81l89NAX1LSpksWhljglyNbD9eGNySSZE7O2Pg4yWozbnt5xHbcPrlXB4sZhlaURlN+sP42UA1TEuq5PQ3iMZ10T2fa0sVYJGGSLbVsRdErr5Rgn0/uZiArOkPqZy+IxkzDi6oUYfs0t6rGt4olTReIwFcDPHX5HtRA/85//glP/rx3nT/XrqajwyBbqjufLVToRUf7h71HTEMRATUSDx5Ao+iYiIhqsGKiJiIjyGIu+iYiI8hhz1ERERHmMgZqIiCiPMVATERHlMQZqIiKiPMZATURElMcYqImIiPIYH8/KkJkzZ+LKK6/UfbGdPXsWr776Kvr7+epSIiIKYaDOkO9///soLS3VffF555138MMf/hBHjhzRKURENNQxUGeIDLhdXV146aWXdEp03/3ud9V/BmsiIrJiHXWemTp1Kr7+9a9j3LhxOoWIiIYyBuo8xGBNREQmBuo8JYP1ihUrdF+6edHc04NOX5XuT68qXyd6On3IzNyJiIYWBuo8Ieuzrd3evXtRXl6uh1KI/C3pHt4IENGQwUCdJ2SjM2u3Z88ePYSIiIYyBmoaZLrhr61EZa1ffCIiKnwM1ERERHmMgbrg6TrdHrPrRLQ2ZN5m67iya4ZXD7Nzzld0zZHHlMz52hqwVfnQaZ3eUe+sppFp3mbb8GC6MZpmNJALzkttZ3ijueC0jmW7NayLZ3+4racSYxuJiGJhoC5kKki0oaHXh8rKSt01oaLNj2o9SogR1PwVLagPjlsJX6AafmdwjzhfHwJ6sJMMZP7qPrTUV6LWrwus5TzaGiAS9fT1aEED2pzB3iPSFnYY47gVd6v1EdsUiGc7BTnPdcAqc1xfQCS1wb7oBPaHFGk9491GIqIoGKgLmHdlAzx9ItA0tuoUqRWN9S3o030mb7MIanJcRzBsbRTBpc+DhpWh4OI6X1u/QT6qZQTpWpgxWqTCt07MQwTWYOCWdc9NItRXL3cEwQB8EeZrlch2GsT6rLJsZ+t6sY1i0Qst25jA/jA41zORbSQicsdAXbC8WCiyk31d7bZAo3T3oFd/NEQZV6S0d6kopot8jXEDTS65W4vZIki3NXgQ8FmDtFBVhxqPmEeHIwBv7xUh1IOK2bpf6uvFdv0xskS2U+vrQrtt5G70yBErKnWxdCL7Q3OuZyLbSEQUBQM1xdStophWVYkK/TEqTwP8IkiLKA23DHG131J3K7s2kQPVw/KZbX/EMFi3kYjyBwM1xVRVGVdotpPFxj5ZzOt3bagV8IXqfq1djJLunEtkfwzWbSSi/MFAXbC2o7dPZGxr6sJbGXsXOhpZtaJDxNSI44qUOqMMV4wldLfDKPl11tFG0NoYbKhlC9aJzCOmRLYzXgnsDzdp3UYiGsoYqAuG89WauuGSbI1sbWUsWyL7w8NX6/oW9Mlxg9MbvM1taPBYG0qZDaL8jsexvGiO1JpZBOv6lj5HsA7NI6yltWP5sSW2nfGKf3+4Sec2EtFQxkBdyGSOVrZ8lkHVrCNVjyVFeJSq249a8/EhS52q8XhSoz33KOcr52Gdb48fcDac0rr9tcFgHbyR0Lltex2umEccjdTCJLKd8Upkf7hJ5zYS0ZBV5PF4zuvPNpdccon6v2/fPvWfEvPDH/5Q/biGfG93Mj772c+ipqZG/dwlJUs+Cy0Co491wkQ0eDFQZ8gjjzyCkpIS3ZecgYEBfOMb39B9lDD5pjB/heMZbiKiwYWBOkNmz56NiookWktb9Pb2Yvv26E8Rk6yO7sQ6rLK8WERQQboafS319nQiokGGgZoGP/2qTvvzyc63oRERDU4M1ERERHmMrb6JiIjyGAM1ERFRHmOgJiIiymMM1ERERHmMgZqIiCiPMVATERHlMT6elSEzZ87ElVdeqftiO3v2LF599VX09/frFCIiIgbqjPn+97+P0tJS3Refd955R70j/MiRIzqFiIiGuoIK1NOnT8eBAwd0X24l+qMc3/3ud9V/BmsiIrIqqDrq66+/Hvfee6/uG5ymTp2qfjFr3LhxOoWIiIaygmtM5vV6ceutt+q+wYnBmoiITAXZ6nv58uUFEaxXrFih+1Ilf5e5B52+Kt2fXvLXq3o6fcjM3Gmw8jb38LwgSoOCDNQ///nPB12wlvXZ1m7v3r0oLy/XQ4mIaKgqyEDd1NQ06IK1bHRm7fbs2aOHEBHRUFZQgbqoqEh/MoL1pk2bVLBetmyZTiUiIhpcCipQnz9vf9Js48aNKme9dOlSLF68WKcSERENHgVZ9G21efNm9bYvGaynTZumUwtZFXydPejpMbtORGtDphr8BMeVXTO8epidc76ia448pmTO19aArcqHTuv0joZGwcZH3uaIw93FXrd4tlM1ilPpRuO7sHk519+xjND04evjtqvi3f9h4zlnGGPfWgX3s+4P0euth6W6P4goPQo6UE+cOBEPPfQQiouL8cADD+DQoUN6SIFSF842NPT6UFlZqbsmVLT5Ua1HCTEuvv6KFtQHx62EL1ANvzO4R5yvDwE92EkGAn91H1rqK1Hr7zYS5TzaGiAS9fT1aEED2pwXd49IW9hhjFPrh57aXcx1S2A7FZm+EB3muPUt6Kv2o7NTBK22CjQ508NmIKdfB6zS44muvqUP1X5nsI53vYzgaR/Pse/j3bdaa4eYWuznlc7BVXWo8QCBJut+T3V/EFGqCjZQm0F68uTJKki/9dZbekh2bNmyBTt37sSJEyeS6uS0ch6J8K5sgKdPXNAbW3WK1IpGeRHVfSZvswjeclxHMGxtFBf5Pg8aLFdx1/na+g0yF2YE6VqYMVoFm3ViHgFfKHCLpfqbRMCoXu4IlgH4IszXTax1S2Q7DXLdG8UctG4/5Gp6RACLmF5TF5YzDfis2y5HrRUBWG5qKBcb/3rNRkVY8LTu+0T2rda6XixDDF5o3/aquhq1L9dbd2Ua9gcRpaYgA3Wug7T07//+72q5p06dSqqT08p5xM+LhSLb3NfVbrvwK9096NUfDVHGFSntXeoqLsaSjHHtgSKy2SJItzV4wgJVMKfWYYsAwPZeEQY8qJit+6W+XmzXHw3hxcih4uFY65bIdpp60eMYeXuvvM1xSfdUiFBqFYBzMyX7uIms13bISav9LlUYiezboEjb7sVKcezC1ynV/UFEqSrIQJ2rIL1o/IX41Ojxus9wzehxuH7cZJSVlOCLE6egbsIUPcROTiuHm+TnS0Yk9qMe6dLdYwnrVZWo0B+j8jTALy70IkrDLUMsi39tAbdN5AT1MHcid1iri1eDnc7JxbtuLmzbmUfs62Vsvy8gctlter9FKNJOdN92+5vELUU1gplq70LRF0CT7Q6LiPJBQQbqXOWkP142DusvuQpjS4ap/pHFxfjHGbMwQwTcCcXD8N3yK/Dg9CvCgvmcUWPwvRmz1XCT/HyNY7xsqapMIvzJYlxVvuteTxnwOQOu0SVQ0p1WSW1nFkRar9ZGvb90XbCzMVji+7YVsqraLI73qqKJjlBRNhHljYIL1LKFd66Ku//PH/ZjePF5LJtstC73TrpY/W/94G31X3r37GncNnmq7jPUi9yzTE+NUUQasY5Q5ZasjIt05PrEKtQZZanGRbu7HUYpaXguLkxrIypFsPY0tNmDdSLzSETM+SawnWlTgcqwhTmXlcJ6dftRK2+IPDWokxOnsG+NRmViPl4flst2BfbKaSLKEwUVqE+ePIk1a9bkJEhLfzhzGs988L4I0FNUrvreC6Zhwx8O4dS5c3oM4N8Ov4PPjp2IicOGq3453i3jp6j01OgGRLLVtLVoVLYI9tvDtNS6XuTM5LiOnJm3uQ0NHmuDLrNhksjF2YpcvWiO1KpYBGvZytkerEPzsE8i5uFYfmJir1v825kusoja/ohVpGXFv17h+1nlfvu60K5KqePZt/bHroJUozKxvn7ZIM+cHxHlm4IK1PLlJrkK0iaZqx5bUoLHZl6J4yI+W3PT0i+OfYgPzp7DzRMuUv23TLwIb508ht7TJ1V/SmSO1iwaNesq1ZNCER6lkjkz8zEeS92m8RiQpTWvJOcr52Gdb48fEVtNCbKVsxmsg8FB57btdaliHnE0Uosq1rolsp1pIYJsfS+WW5dVLdKcy0pkvWzbpsexthZPet/qRmVC5IZtRJQPijwej/11Xtoll1yi/u/bt0/9p/h96+LLsHTyNDxwcCf+9fC7Km3a8JF4fta1uLf3d/hY2Rh8YcJU1Pf8Gm2Vn0Tze/sworhY1Ut//M1X1Pi/+9gC2/SU/+SjaW0NveFBOY8NxnUmGmoKsjFZrr145A/q//8TuedI/vXwe5gxYjhum3QxJpcMR9fRP+ohRNmUqXp6IkonBuocOHz2DF46ehjfnFKB/ytyzNY6bKuJw4apnLjszDptonSp8q3LUD09EaUTA3WObPzD2xhVUoK2D92Ltu+bcqkqLpfdN6fm56NENPgY7/DuYZE30SDBOmoiIqI8xhw1ERFRHmOgJiIiymMM1ERERHmMgZqIiCiPMVATERHlMQZqIiKiPMbHszJk5syZuPLKK3VfbGfPnsWrr76qfv2LiIjIxECdId///vdRWlqq++Lzzjvv4Ic//CGOHDmiU4iIaKhjoM4QGXC7urrw0ksv6ZTovvvd76r/DNZERGTFOuo8M3XqVHz961/HuHHjdAoREQ1lDNR5iMGaiIhMDNR5SgbrFStW6L74eJt70NPpQ5Xuz0eDYR2JiPIJA3WekPXZ1m7v3r0oLy/XQ4eqKvg6RWDvsXedvkyGeb3MvLqZyMd1IqJsYaDOE7LRmbXbs2ePHjJEeZtFUG5DTVc9KisrQ50voEdIhBfNIsA3e3VvkFs6EVH+YKDOorvuugtr167VfSHf+c538LWvfQ1jx47VKUOdyEEurwYCPtT6u3Wa1toYnhZLVSUi/pp3xPRu+GvFDUGtX3zKF/m4TkSULQzUWTJ//nzcdttt+N3vfqdTQp5//nncdNNNuOOOO3TKUDcbFR79kYhoiGOgzpKysjL1f8uWLeq/1datW/H+++9jzJgxOiVdItTx2sp59fCwst/w9GAjsCofOi3zi1xfHGu5gmM+9uGt6JAl3NXLEVd1tHNelrpctd5tDZBxv9qvh4tluaUHp3HOI+5tN4rTzXF6ejrFNhhpzvHVfK3jOveRhXOdpHimDxunp1msoV1i20dE2cZAnSUlJSXq/5kzZ9R/p1OnTqGoqEj3pYl3paOO14dAtT/5C7CnAW3rgFWW+mJPQ5u9jldd7NvQ0OuzL1cPViLMR0RL23q1NsppPGho00FEp4eRyxMBFy3mdtajBWL+eqVaG0VafQv6xOeATy+vsdU13VXc2+5HdcC67U2oaBNpehSDcSPjr2hBfXA8xz6KKp7pjZsD+ziV8AWq4Vc3D3o0UzzbR0Q5wUCdBZMnT0Z1dbXKNX/44Yc61W7nzp245ppr1DvC0yasPtfIqXpq6twDX1R9aFllqSdtXY8WEemqF4au5t6VIpfaJ4KDLei1otHWH3k+norZOkES04iAUa8GiCAic3lhAVsErHVieba67G74m2TgjzM3HrcUtl3fEIQYRfuBJmuds3MfRRN7em+zuDmQ6+Ko125tFDcyfeIGaKUzAsfePiLKDQbqLJgzZw6qqqqivk70P/7jPzBhwgTMnTtXp6SLvRjab8/aJaavC+3Wq764rPf0in8VlTqAerFQtgGzBZAIYs4npNtfq3J4oYBtyQ1W1aFGBqwOR4Db3ivCjge2uJ+qOLe9r6s9fNu7eyBHDdmOXhkE/RFytnGJNX2UdREp7V0qAtuLwBM4JkSUXQzUWSCDcGtrK+rr64NF4E633norduzYgZ/97Gc6JXVG/aT9Eaeknm6Kl1vr6jQwArYuDl9nz1kH65jNTtc95y+jFbcvoIv25TonVMac2vTdKgIT0WDBQJ0lBw8exLBhwzBp0iSdYidfbiLHSZsqH4wnnCoTf5wpb7VivVFGDmtmOVjH7OjiLknOEVVPLtdVFo1X+6PXxUeQ7PRVlZm6nSKiTGCgzrLRo0frT3YjR47UnzKpCvZrtFvxZpKPR3W3wyhVzVy95mzrimVhefEziqMj1v97Fzoakzl0+1Erizo8NahLJFKbwqaP1hahCnVGfYEYi4gGAwbqLJE/F3r27Fn89V//tU4JWbVqlfoBju3bt+uUNND1orbGTs1taHAE4FZ1RW9AqG2RrNN2tlKOl9mQS+TubEWxXjQnVLQrWyyHP0YkNkDVsfe1rNdBJrQ8++zF9Nbcpd4XFZWOsOWWnhS9LrIe3boysiV4WMOA8P3hNSqVdT2xblfgmkOONb04rutFLluui2MexjkQgC/fixuIKIiBOktkPaL8RayOjg6dEvLWW29h9erVEZ+xTp5ubSyDpq67Xd5bH15H3dqoGmqF6nnbUNEkWwbr4YkS8zMfAzOX29PjB5wNvmKSjxGZ0+vOX4GWekdRvlye2Ch7PbVYnrNFtBhHPm6khgeDnFt6kuS6OPZ5j3rkKcKjV7b9ox+jSuTNY7Gml7ls81E153iVjcxNEw0iRR6P57z+bHPJJZeo/zInSIn74Q9/qH5cI1pL72g++9nPoqamRgV3GuxkCYG4efAlX28uGwYmHMyJqCAwUGfII4884trCO14DAwP4xje+ofto0JI/MKJKA2qRXLs+WRSuXyLDImuiIYeBOkNmz56NiorUWtf29vamt96aMqrK14l1WGUvmldBuhp9LfXJt75POdAT0WDGQE2ULvp1pvb2en1JBlidi1YzS3YeRFQIGKiJiIjyGFt9ExER5TEGaiIiojzGQE1ERJTHGKiJiIjyGAM1ERFRHmOgJiIiymMM1ERERHmMgZqIiCiPMVATERHlMQZqIiKiPMZATURElMcYqImIiPIYAzUREVEeY6AmIiLKYwzUREREeYyBmoiIKI8xUBMREeUxBmoiIqI8xkBNRESUt4D/H5mCIQzqOiguAAAAAElFTkSuQmCC;imageBorder=default;" parent="1" vertex="1">
          <mxGeometry x="1016" y="840" width="384" height="469" as="geometry" />
        </mxCell>
        <mxCell id="nvwnlEwFlLKaPRoTBn40-63" value="&lt;span&gt;&lt;font style=&quot;font-size: 16px;&quot;&gt;ESTRUTURA DE PASTAS&lt;/font&gt;&lt;/span&gt;" style="text;html=1;strokeColor=none;fillColor=none;align=right;verticalAlign=middle;whiteSpace=wrap;rounded=0;shadow=1;fontFamily=Lucida Console;fontStyle=1" parent="1" vertex="1">
          <mxGeometry x="1000" y="800" width="400" height="40" as="geometry" />
        </mxCell>
        <mxCell id="nvwnlEwFlLKaPRoTBn40-64" value="" style="curved=1;endArrow=classic;html=1;rounded=0;exitX=0.427;exitY=0.423;exitDx=0;exitDy=0;exitPerimeter=0;strokeColor=#ffff00;startSize=6;strokeWidth=8;fillColor=#fff2cc;" parent="1" source="nvwnlEwFlLKaPRoTBn40-57" edge="1">
          <mxGeometry width="50" height="50" relative="1" as="geometry">
            <mxPoint x="760" y="1270" as="sourcePoint" />
            <mxPoint x="1010" y="1000" as="targetPoint" />
            <Array as="points">
              <mxPoint x="580" y="1040" />
              <mxPoint x="650" y="1000" />
              <mxPoint x="760" y="990" />
            </Array>
          </mxGeometry>
        </mxCell>
        <mxCell id="nvwnlEwFlLKaPRoTBn40-67" value="" style="curved=1;endArrow=classic;html=1;rounded=0;exitX=0.427;exitY=0.423;exitDx=0;exitDy=0;exitPerimeter=0;strokeColor=#b85450;startSize=6;strokeWidth=8;fillColor=#f8cecc;" parent="1" edge="1">
          <mxGeometry width="50" height="50" relative="1" as="geometry">
            <mxPoint x="420" y="1220" as="sourcePoint" />
            <mxPoint x="1010" y="1020" as="targetPoint" />
            <Array as="points">
              <mxPoint x="530" y="1130" />
              <mxPoint x="600" y="1070" />
              <mxPoint x="650" y="1030" />
              <mxPoint x="730" y="1010" />
            </Array>
          </mxGeometry>
        </mxCell>
        <mxCell id="nvwnlEwFlLKaPRoTBn40-68" value="" style="curved=1;endArrow=classic;html=1;rounded=0;exitX=0.427;exitY=0.423;exitDx=0;exitDy=0;exitPerimeter=0;strokeColor=#82b366;startSize=6;strokeWidth=8;fillColor=#d5e8d4;" parent="1" edge="1">
          <mxGeometry width="50" height="50" relative="1" as="geometry">
            <mxPoint x="350" y="1310" as="sourcePoint" />
            <mxPoint x="1010" y="1050" as="targetPoint" />
            <Array as="points">
              <mxPoint x="460" y="1220" />
              <mxPoint x="530" y="1160" />
              <mxPoint x="610" y="1100" />
              <mxPoint x="660" y="1060" />
              <mxPoint x="720" y="1050" />
              <mxPoint x="810" y="1050" />
            </Array>
          </mxGeometry>
        </mxCell>
        <mxCell id="nvwnlEwFlLKaPRoTBn40-69" value="" style="curved=1;endArrow=classic;html=1;rounded=0;startSize=6;strokeWidth=8;fillColor=#d5e8d4;strokeColor=#82b366;" parent="1" edge="1">
          <mxGeometry width="50" height="50" relative="1" as="geometry">
            <mxPoint x="500" y="1070" as="sourcePoint" />
            <mxPoint x="1010" y="970" as="targetPoint" />
            <Array as="points">
              <mxPoint x="600" y="970" />
              <mxPoint x="770" y="960" />
            </Array>
          </mxGeometry>
        </mxCell>
        <mxCell id="nvwnlEwFlLKaPRoTBn40-71" value="DIAGRAMA UML (SIMPLIFICADO)" style="text;html=1;strokeColor=none;fillColor=none;align=left;verticalAlign=top;whiteSpace=wrap;rounded=0;fontFamily=Lucida Console;fontSize=16;shadow=1;fontStyle=1" parent="1" vertex="1">
          <mxGeometry x="160" y="40" width="1240" height="40" as="geometry" />
        </mxCell>
        <mxCell id="dzLeR_utrmkmIb1Fz9iY-1" value="" style="rounded=0;whiteSpace=wrap;html=1;fillColor=none;strokeColor=#d79b00;strokeWidth=2;shadow=0;" parent="1" vertex="1">
          <mxGeometry x="215" y="1616" width="315" height="580" as="geometry" />
        </mxCell>
        <mxCell id="Wy0FvdjGNj6q11W69VIN-1" value="&lt;p style=&quot;margin:0px;margin-top:4px;text-align:center;&quot;&gt;&lt;br&gt;&lt;b&gt;ICommandHandler&lt;/b&gt;&lt;/p&gt;" style="verticalAlign=top;align=left;overflow=fill;fontSize=12;fontFamily=Helvetica;html=1;whiteSpace=wrap;" parent="1" vertex="1">
          <mxGeometry x="440" y="410" width="200" height="60" as="geometry" />
        </mxCell>
        <mxCell id="Wy0FvdjGNj6q11W69VIN-2" value="" style="endArrow=block;dashed=1;endFill=0;endSize=12;html=1;rounded=0;entryX=0.5;entryY=1;entryDx=0;entryDy=0;exitX=0.5;exitY=0;exitDx=0;exitDy=0;" parent="1" source="Wy0FvdjGNj6q11W69VIN-1" target="nvwnlEwFlLKaPRoTBn40-3" edge="1">
          <mxGeometry width="160" relative="1" as="geometry">
            <mxPoint x="310" y="420" as="sourcePoint" />
            <mxPoint x="430" y="350" as="targetPoint" />
          </mxGeometry>
        </mxCell>
      </root>
    </mxGraphModel>
  </diagram>
</mxfile>
